%TF.GenerationSoftware,KiCad,Pcbnew,(5.1.5-131-g305ed0b65)-1*%
%TF.CreationDate,2021-01-25T18:11:24+08:00*%
%TF.ProjectId,OpenTEC,4f70656e-5445-4432-9e6b-696361645f70,rev?*%
%TF.SameCoordinates,Original*%
%TF.FileFunction,Copper,L1,Top*%
%TF.FilePolarity,Positive*%
%FSLAX46Y46*%
G04 Gerber Fmt 4.6, Leading zero omitted, Abs format (unit mm)*
G04 Created by KiCad (PCBNEW (5.1.5-131-g305ed0b65)-1) date 2021-01-25 18:11:24*
%MOMM*%
%LPD*%
G01*
G04 APERTURE LIST*
%TA.AperFunction,SMDPad,CuDef*%
%ADD10R,2.000000X3.800000*%
%TD*%
%TA.AperFunction,SMDPad,CuDef*%
%ADD11R,2.000000X1.500000*%
%TD*%
%TA.AperFunction,ComponentPad*%
%ADD12C,6.400000*%
%TD*%
%TA.AperFunction,ComponentPad*%
%ADD13C,0.800000*%
%TD*%
%TA.AperFunction,SMDPad,CuDef*%
%ADD14R,1.750000X1.900000*%
%TD*%
%TA.AperFunction,SMDPad,CuDef*%
%ADD15R,0.400000X1.400000*%
%TD*%
%TA.AperFunction,ComponentPad*%
%ADD16O,1.050000X1.900000*%
%TD*%
%TA.AperFunction,SMDPad,CuDef*%
%ADD17R,1.150000X1.450000*%
%TD*%
%TA.AperFunction,ComponentPad*%
%ADD18C,3.000000*%
%TD*%
%TA.AperFunction,ComponentPad*%
%ADD19R,3.000000X3.000000*%
%TD*%
%TA.AperFunction,ComponentPad*%
%ADD20R,1.700000X1.700000*%
%TD*%
%TA.AperFunction,ComponentPad*%
%ADD21O,1.700000X1.700000*%
%TD*%
%TA.AperFunction,ComponentPad*%
%ADD22O,1.700000X2.000000*%
%TD*%
%TA.AperFunction,ComponentPad*%
%ADD23C,1.440000*%
%TD*%
%TA.AperFunction,SMDPad,CuDef*%
%ADD24R,2.200000X0.800000*%
%TD*%
%TA.AperFunction,SMDPad,CuDef*%
%ADD25R,6.400000X5.800000*%
%TD*%
%TA.AperFunction,SMDPad,CuDef*%
%ADD26R,1.200000X1.400000*%
%TD*%
%TA.AperFunction,ViaPad*%
%ADD27C,0.600000*%
%TD*%
%TA.AperFunction,Conductor*%
%ADD28C,0.500000*%
%TD*%
%TA.AperFunction,Conductor*%
%ADD29C,0.250000*%
%TD*%
%TA.AperFunction,Conductor*%
%ADD30C,2.000000*%
%TD*%
%TA.AperFunction,Conductor*%
%ADD31C,0.200000*%
%TD*%
%TA.AperFunction,Conductor*%
%ADD32C,0.300000*%
%TD*%
G04 APERTURE END LIST*
D10*
%TO.P,U1,2*%
%TO.N,+5V*%
X154850000Y-63000000D03*
D11*
X161150000Y-63000000D03*
%TO.P,U1,3*%
%TO.N,+12V*%
X161150000Y-60700000D03*
%TO.P,U1,1*%
%TO.N,GND*%
X161150000Y-65300000D03*
%TD*%
%TO.P,U2,1*%
%TO.N,GND*%
X161150000Y-75300000D03*
%TO.P,U2,3*%
%TO.N,+5V*%
X161150000Y-70700000D03*
%TO.P,U2,2*%
%TO.N,+3V3*%
X161150000Y-73000000D03*
D10*
X154850000Y-73000000D03*
%TD*%
%TO.P,D2,1*%
%TO.N,Net-(D2-Pad1)*%
%TA.AperFunction,SMDPad,CuDef*%
G36*
G01*
X111475000Y-96743750D02*
X111475000Y-97256250D01*
G75*
G02*
X111256250Y-97475000I-218750J0D01*
G01*
X110818750Y-97475000D01*
G75*
G02*
X110600000Y-97256250I0J218750D01*
G01*
X110600000Y-96743750D01*
G75*
G02*
X110818750Y-96525000I218750J0D01*
G01*
X111256250Y-96525000D01*
G75*
G02*
X111475000Y-96743750I0J-218750D01*
G01*
G37*
%TD.AperFunction*%
%TO.P,D2,2*%
%TO.N,Net-(D2-Pad2)*%
%TA.AperFunction,SMDPad,CuDef*%
G36*
G01*
X109900000Y-96743750D02*
X109900000Y-97256250D01*
G75*
G02*
X109681250Y-97475000I-218750J0D01*
G01*
X109243750Y-97475000D01*
G75*
G02*
X109025000Y-97256250I0J218750D01*
G01*
X109025000Y-96743750D01*
G75*
G02*
X109243750Y-96525000I218750J0D01*
G01*
X109681250Y-96525000D01*
G75*
G02*
X109900000Y-96743750I0J-218750D01*
G01*
G37*
%TD.AperFunction*%
%TD*%
%TO.P,R10,2*%
%TO.N,GND*%
%TA.AperFunction,SMDPad,CuDef*%
G36*
G01*
X112922500Y-96310000D02*
X112577500Y-96310000D01*
G75*
G02*
X112430000Y-96162500I0J147500D01*
G01*
X112430000Y-95867500D01*
G75*
G02*
X112577500Y-95720000I147500J0D01*
G01*
X112922500Y-95720000D01*
G75*
G02*
X113070000Y-95867500I0J-147500D01*
G01*
X113070000Y-96162500D01*
G75*
G02*
X112922500Y-96310000I-147500J0D01*
G01*
G37*
%TD.AperFunction*%
%TO.P,R10,1*%
%TO.N,Net-(D2-Pad1)*%
%TA.AperFunction,SMDPad,CuDef*%
G36*
G01*
X112922500Y-97280000D02*
X112577500Y-97280000D01*
G75*
G02*
X112430000Y-97132500I0J147500D01*
G01*
X112430000Y-96837500D01*
G75*
G02*
X112577500Y-96690000I147500J0D01*
G01*
X112922500Y-96690000D01*
G75*
G02*
X113070000Y-96837500I0J-147500D01*
G01*
X113070000Y-97132500D01*
G75*
G02*
X112922500Y-97280000I-147500J0D01*
G01*
G37*
%TD.AperFunction*%
%TD*%
%TO.P,C1,1*%
%TO.N,+12V*%
%TA.AperFunction,SMDPad,CuDef*%
G36*
G01*
X163575000Y-61206250D02*
X163575000Y-60293750D01*
G75*
G02*
X163818750Y-60050000I243750J0D01*
G01*
X164306250Y-60050000D01*
G75*
G02*
X164550000Y-60293750I0J-243750D01*
G01*
X164550000Y-61206250D01*
G75*
G02*
X164306250Y-61450000I-243750J0D01*
G01*
X163818750Y-61450000D01*
G75*
G02*
X163575000Y-61206250I0J243750D01*
G01*
G37*
%TD.AperFunction*%
%TO.P,C1,2*%
%TO.N,GND*%
%TA.AperFunction,SMDPad,CuDef*%
G36*
G01*
X165450000Y-61206250D02*
X165450000Y-60293750D01*
G75*
G02*
X165693750Y-60050000I243750J0D01*
G01*
X166181250Y-60050000D01*
G75*
G02*
X166425000Y-60293750I0J-243750D01*
G01*
X166425000Y-61206250D01*
G75*
G02*
X166181250Y-61450000I-243750J0D01*
G01*
X165693750Y-61450000D01*
G75*
G02*
X165450000Y-61206250I0J243750D01*
G01*
G37*
%TD.AperFunction*%
%TD*%
%TO.P,C2,1*%
%TO.N,+5V*%
%TA.AperFunction,SMDPad,CuDef*%
G36*
G01*
X163575000Y-68456250D02*
X163575000Y-67543750D01*
G75*
G02*
X163818750Y-67300000I243750J0D01*
G01*
X164306250Y-67300000D01*
G75*
G02*
X164550000Y-67543750I0J-243750D01*
G01*
X164550000Y-68456250D01*
G75*
G02*
X164306250Y-68700000I-243750J0D01*
G01*
X163818750Y-68700000D01*
G75*
G02*
X163575000Y-68456250I0J243750D01*
G01*
G37*
%TD.AperFunction*%
%TO.P,C2,2*%
%TO.N,GND*%
%TA.AperFunction,SMDPad,CuDef*%
G36*
G01*
X165450000Y-68456250D02*
X165450000Y-67543750D01*
G75*
G02*
X165693750Y-67300000I243750J0D01*
G01*
X166181250Y-67300000D01*
G75*
G02*
X166425000Y-67543750I0J-243750D01*
G01*
X166425000Y-68456250D01*
G75*
G02*
X166181250Y-68700000I-243750J0D01*
G01*
X165693750Y-68700000D01*
G75*
G02*
X165450000Y-68456250I0J243750D01*
G01*
G37*
%TD.AperFunction*%
%TD*%
%TO.P,C3,2*%
%TO.N,GND*%
%TA.AperFunction,SMDPad,CuDef*%
G36*
G01*
X165450000Y-73456250D02*
X165450000Y-72543750D01*
G75*
G02*
X165693750Y-72300000I243750J0D01*
G01*
X166181250Y-72300000D01*
G75*
G02*
X166425000Y-72543750I0J-243750D01*
G01*
X166425000Y-73456250D01*
G75*
G02*
X166181250Y-73700000I-243750J0D01*
G01*
X165693750Y-73700000D01*
G75*
G02*
X165450000Y-73456250I0J243750D01*
G01*
G37*
%TD.AperFunction*%
%TO.P,C3,1*%
%TO.N,+3V3*%
%TA.AperFunction,SMDPad,CuDef*%
G36*
G01*
X163575000Y-73456250D02*
X163575000Y-72543750D01*
G75*
G02*
X163818750Y-72300000I243750J0D01*
G01*
X164306250Y-72300000D01*
G75*
G02*
X164550000Y-72543750I0J-243750D01*
G01*
X164550000Y-73456250D01*
G75*
G02*
X164306250Y-73700000I-243750J0D01*
G01*
X163818750Y-73700000D01*
G75*
G02*
X163575000Y-73456250I0J243750D01*
G01*
G37*
%TD.AperFunction*%
%TD*%
%TO.P,C4,1*%
%TO.N,+3V3*%
%TA.AperFunction,SMDPad,CuDef*%
G36*
G01*
X110043750Y-92325000D02*
X110956250Y-92325000D01*
G75*
G02*
X111200000Y-92568750I0J-243750D01*
G01*
X111200000Y-93056250D01*
G75*
G02*
X110956250Y-93300000I-243750J0D01*
G01*
X110043750Y-93300000D01*
G75*
G02*
X109800000Y-93056250I0J243750D01*
G01*
X109800000Y-92568750D01*
G75*
G02*
X110043750Y-92325000I243750J0D01*
G01*
G37*
%TD.AperFunction*%
%TO.P,C4,2*%
%TO.N,GND*%
%TA.AperFunction,SMDPad,CuDef*%
G36*
G01*
X110043750Y-94200000D02*
X110956250Y-94200000D01*
G75*
G02*
X111200000Y-94443750I0J-243750D01*
G01*
X111200000Y-94931250D01*
G75*
G02*
X110956250Y-95175000I-243750J0D01*
G01*
X110043750Y-95175000D01*
G75*
G02*
X109800000Y-94931250I0J243750D01*
G01*
X109800000Y-94443750D01*
G75*
G02*
X110043750Y-94200000I243750J0D01*
G01*
G37*
%TD.AperFunction*%
%TD*%
%TO.P,C5,2*%
%TO.N,GND*%
%TA.AperFunction,SMDPad,CuDef*%
G36*
G01*
X97810000Y-89827500D02*
X97810000Y-90172500D01*
G75*
G02*
X97662500Y-90320000I-147500J0D01*
G01*
X97367500Y-90320000D01*
G75*
G02*
X97220000Y-90172500I0J147500D01*
G01*
X97220000Y-89827500D01*
G75*
G02*
X97367500Y-89680000I147500J0D01*
G01*
X97662500Y-89680000D01*
G75*
G02*
X97810000Y-89827500I0J-147500D01*
G01*
G37*
%TD.AperFunction*%
%TO.P,C5,1*%
%TO.N,+3V3*%
%TA.AperFunction,SMDPad,CuDef*%
G36*
G01*
X98780000Y-89827500D02*
X98780000Y-90172500D01*
G75*
G02*
X98632500Y-90320000I-147500J0D01*
G01*
X98337500Y-90320000D01*
G75*
G02*
X98190000Y-90172500I0J147500D01*
G01*
X98190000Y-89827500D01*
G75*
G02*
X98337500Y-89680000I147500J0D01*
G01*
X98632500Y-89680000D01*
G75*
G02*
X98780000Y-89827500I0J-147500D01*
G01*
G37*
%TD.AperFunction*%
%TD*%
%TO.P,C6,1*%
%TO.N,+3V3*%
%TA.AperFunction,SMDPad,CuDef*%
G36*
G01*
X96172500Y-96280000D02*
X95827500Y-96280000D01*
G75*
G02*
X95680000Y-96132500I0J147500D01*
G01*
X95680000Y-95837500D01*
G75*
G02*
X95827500Y-95690000I147500J0D01*
G01*
X96172500Y-95690000D01*
G75*
G02*
X96320000Y-95837500I0J-147500D01*
G01*
X96320000Y-96132500D01*
G75*
G02*
X96172500Y-96280000I-147500J0D01*
G01*
G37*
%TD.AperFunction*%
%TO.P,C6,2*%
%TO.N,GND*%
%TA.AperFunction,SMDPad,CuDef*%
G36*
G01*
X96172500Y-95310000D02*
X95827500Y-95310000D01*
G75*
G02*
X95680000Y-95162500I0J147500D01*
G01*
X95680000Y-94867500D01*
G75*
G02*
X95827500Y-94720000I147500J0D01*
G01*
X96172500Y-94720000D01*
G75*
G02*
X96320000Y-94867500I0J-147500D01*
G01*
X96320000Y-95162500D01*
G75*
G02*
X96172500Y-95310000I-147500J0D01*
G01*
G37*
%TD.AperFunction*%
%TD*%
%TO.P,C7,2*%
%TO.N,GND*%
%TA.AperFunction,SMDPad,CuDef*%
G36*
G01*
X105810000Y-99577500D02*
X105810000Y-99922500D01*
G75*
G02*
X105662500Y-100070000I-147500J0D01*
G01*
X105367500Y-100070000D01*
G75*
G02*
X105220000Y-99922500I0J147500D01*
G01*
X105220000Y-99577500D01*
G75*
G02*
X105367500Y-99430000I147500J0D01*
G01*
X105662500Y-99430000D01*
G75*
G02*
X105810000Y-99577500I0J-147500D01*
G01*
G37*
%TD.AperFunction*%
%TO.P,C7,1*%
%TO.N,+3V3*%
%TA.AperFunction,SMDPad,CuDef*%
G36*
G01*
X106780000Y-99577500D02*
X106780000Y-99922500D01*
G75*
G02*
X106632500Y-100070000I-147500J0D01*
G01*
X106337500Y-100070000D01*
G75*
G02*
X106190000Y-99922500I0J147500D01*
G01*
X106190000Y-99577500D01*
G75*
G02*
X106337500Y-99430000I147500J0D01*
G01*
X106632500Y-99430000D01*
G75*
G02*
X106780000Y-99577500I0J-147500D01*
G01*
G37*
%TD.AperFunction*%
%TD*%
%TO.P,C8,1*%
%TO.N,+3V3*%
%TA.AperFunction,SMDPad,CuDef*%
G36*
G01*
X107220000Y-90172500D02*
X107220000Y-89827500D01*
G75*
G02*
X107367500Y-89680000I147500J0D01*
G01*
X107662500Y-89680000D01*
G75*
G02*
X107810000Y-89827500I0J-147500D01*
G01*
X107810000Y-90172500D01*
G75*
G02*
X107662500Y-90320000I-147500J0D01*
G01*
X107367500Y-90320000D01*
G75*
G02*
X107220000Y-90172500I0J147500D01*
G01*
G37*
%TD.AperFunction*%
%TO.P,C8,2*%
%TO.N,GND*%
%TA.AperFunction,SMDPad,CuDef*%
G36*
G01*
X108190000Y-90172500D02*
X108190000Y-89827500D01*
G75*
G02*
X108337500Y-89680000I147500J0D01*
G01*
X108632500Y-89680000D01*
G75*
G02*
X108780000Y-89827500I0J-147500D01*
G01*
X108780000Y-90172500D01*
G75*
G02*
X108632500Y-90320000I-147500J0D01*
G01*
X108337500Y-90320000D01*
G75*
G02*
X108190000Y-90172500I0J147500D01*
G01*
G37*
%TD.AperFunction*%
%TD*%
%TO.P,C9,2*%
%TO.N,GND*%
%TA.AperFunction,SMDPad,CuDef*%
G36*
G01*
X99456250Y-86550000D02*
X98543750Y-86550000D01*
G75*
G02*
X98300000Y-86306250I0J243750D01*
G01*
X98300000Y-85818750D01*
G75*
G02*
X98543750Y-85575000I243750J0D01*
G01*
X99456250Y-85575000D01*
G75*
G02*
X99700000Y-85818750I0J-243750D01*
G01*
X99700000Y-86306250D01*
G75*
G02*
X99456250Y-86550000I-243750J0D01*
G01*
G37*
%TD.AperFunction*%
%TO.P,C9,1*%
%TO.N,+3V3*%
%TA.AperFunction,SMDPad,CuDef*%
G36*
G01*
X99456250Y-88425000D02*
X98543750Y-88425000D01*
G75*
G02*
X98300000Y-88181250I0J243750D01*
G01*
X98300000Y-87693750D01*
G75*
G02*
X98543750Y-87450000I243750J0D01*
G01*
X99456250Y-87450000D01*
G75*
G02*
X99700000Y-87693750I0J-243750D01*
G01*
X99700000Y-88181250D01*
G75*
G02*
X99456250Y-88425000I-243750J0D01*
G01*
G37*
%TD.AperFunction*%
%TD*%
%TO.P,C10,2*%
%TO.N,GND*%
%TA.AperFunction,SMDPad,CuDef*%
G36*
G01*
X100672500Y-87310000D02*
X100327500Y-87310000D01*
G75*
G02*
X100180000Y-87162500I0J147500D01*
G01*
X100180000Y-86867500D01*
G75*
G02*
X100327500Y-86720000I147500J0D01*
G01*
X100672500Y-86720000D01*
G75*
G02*
X100820000Y-86867500I0J-147500D01*
G01*
X100820000Y-87162500D01*
G75*
G02*
X100672500Y-87310000I-147500J0D01*
G01*
G37*
%TD.AperFunction*%
%TO.P,C10,1*%
%TO.N,+3V3*%
%TA.AperFunction,SMDPad,CuDef*%
G36*
G01*
X100672500Y-88280000D02*
X100327500Y-88280000D01*
G75*
G02*
X100180000Y-88132500I0J147500D01*
G01*
X100180000Y-87837500D01*
G75*
G02*
X100327500Y-87690000I147500J0D01*
G01*
X100672500Y-87690000D01*
G75*
G02*
X100820000Y-87837500I0J-147500D01*
G01*
X100820000Y-88132500D01*
G75*
G02*
X100672500Y-88280000I-147500J0D01*
G01*
G37*
%TD.AperFunction*%
%TD*%
%TO.P,C11,1*%
%TO.N,+3V3*%
%TA.AperFunction,SMDPad,CuDef*%
G36*
G01*
X101672500Y-88280000D02*
X101327500Y-88280000D01*
G75*
G02*
X101180000Y-88132500I0J147500D01*
G01*
X101180000Y-87837500D01*
G75*
G02*
X101327500Y-87690000I147500J0D01*
G01*
X101672500Y-87690000D01*
G75*
G02*
X101820000Y-87837500I0J-147500D01*
G01*
X101820000Y-88132500D01*
G75*
G02*
X101672500Y-88280000I-147500J0D01*
G01*
G37*
%TD.AperFunction*%
%TO.P,C11,2*%
%TO.N,GND*%
%TA.AperFunction,SMDPad,CuDef*%
G36*
G01*
X101672500Y-87310000D02*
X101327500Y-87310000D01*
G75*
G02*
X101180000Y-87162500I0J147500D01*
G01*
X101180000Y-86867500D01*
G75*
G02*
X101327500Y-86720000I147500J0D01*
G01*
X101672500Y-86720000D01*
G75*
G02*
X101820000Y-86867500I0J-147500D01*
G01*
X101820000Y-87162500D01*
G75*
G02*
X101672500Y-87310000I-147500J0D01*
G01*
G37*
%TD.AperFunction*%
%TD*%
%TO.P,C12,2*%
%TO.N,Net-(C12-Pad2)*%
%TA.AperFunction,SMDPad,CuDef*%
G36*
G01*
X92650000Y-89743750D02*
X92650000Y-90256250D01*
G75*
G02*
X92431250Y-90475000I-218750J0D01*
G01*
X91993750Y-90475000D01*
G75*
G02*
X91775000Y-90256250I0J218750D01*
G01*
X91775000Y-89743750D01*
G75*
G02*
X91993750Y-89525000I218750J0D01*
G01*
X92431250Y-89525000D01*
G75*
G02*
X92650000Y-89743750I0J-218750D01*
G01*
G37*
%TD.AperFunction*%
%TO.P,C12,1*%
%TO.N,GND*%
%TA.AperFunction,SMDPad,CuDef*%
G36*
G01*
X94225000Y-89743750D02*
X94225000Y-90256250D01*
G75*
G02*
X94006250Y-90475000I-218750J0D01*
G01*
X93568750Y-90475000D01*
G75*
G02*
X93350000Y-90256250I0J218750D01*
G01*
X93350000Y-89743750D01*
G75*
G02*
X93568750Y-89525000I218750J0D01*
G01*
X94006250Y-89525000D01*
G75*
G02*
X94225000Y-89743750I0J-218750D01*
G01*
G37*
%TD.AperFunction*%
%TD*%
%TO.P,C13,1*%
%TO.N,Net-(C13-Pad1)*%
%TA.AperFunction,SMDPad,CuDef*%
G36*
G01*
X94225000Y-95743750D02*
X94225000Y-96256250D01*
G75*
G02*
X94006250Y-96475000I-218750J0D01*
G01*
X93568750Y-96475000D01*
G75*
G02*
X93350000Y-96256250I0J218750D01*
G01*
X93350000Y-95743750D01*
G75*
G02*
X93568750Y-95525000I218750J0D01*
G01*
X94006250Y-95525000D01*
G75*
G02*
X94225000Y-95743750I0J-218750D01*
G01*
G37*
%TD.AperFunction*%
%TO.P,C13,2*%
%TO.N,GND*%
%TA.AperFunction,SMDPad,CuDef*%
G36*
G01*
X92650000Y-95743750D02*
X92650000Y-96256250D01*
G75*
G02*
X92431250Y-96475000I-218750J0D01*
G01*
X91993750Y-96475000D01*
G75*
G02*
X91775000Y-96256250I0J218750D01*
G01*
X91775000Y-95743750D01*
G75*
G02*
X91993750Y-95525000I218750J0D01*
G01*
X92431250Y-95525000D01*
G75*
G02*
X92650000Y-95743750I0J-218750D01*
G01*
G37*
%TD.AperFunction*%
%TD*%
%TO.P,D1,2*%
%TO.N,+3V3*%
%TA.AperFunction,SMDPad,CuDef*%
G36*
G01*
X164256250Y-77650000D02*
X163743750Y-77650000D01*
G75*
G02*
X163525000Y-77431250I0J218750D01*
G01*
X163525000Y-76993750D01*
G75*
G02*
X163743750Y-76775000I218750J0D01*
G01*
X164256250Y-76775000D01*
G75*
G02*
X164475000Y-76993750I0J-218750D01*
G01*
X164475000Y-77431250D01*
G75*
G02*
X164256250Y-77650000I-218750J0D01*
G01*
G37*
%TD.AperFunction*%
%TO.P,D1,1*%
%TO.N,Net-(D1-Pad1)*%
%TA.AperFunction,SMDPad,CuDef*%
G36*
G01*
X164256250Y-79225000D02*
X163743750Y-79225000D01*
G75*
G02*
X163525000Y-79006250I0J218750D01*
G01*
X163525000Y-78568750D01*
G75*
G02*
X163743750Y-78350000I218750J0D01*
G01*
X164256250Y-78350000D01*
G75*
G02*
X164475000Y-78568750I0J-218750D01*
G01*
X164475000Y-79006250D01*
G75*
G02*
X164256250Y-79225000I-218750J0D01*
G01*
G37*
%TD.AperFunction*%
%TD*%
D12*
%TO.P,H1,1*%
%TO.N,Earth*%
X79000000Y-51000000D03*
D13*
X81400000Y-51000000D03*
X80697056Y-52697056D03*
X79000000Y-53400000D03*
X77302944Y-52697056D03*
X76600000Y-51000000D03*
X77302944Y-49302944D03*
X79000000Y-48600000D03*
X80697056Y-49302944D03*
%TD*%
%TO.P,H2,1*%
%TO.N,Earth*%
X200697056Y-49302944D03*
X199000000Y-48600000D03*
X197302944Y-49302944D03*
X196600000Y-51000000D03*
X197302944Y-52697056D03*
X199000000Y-53400000D03*
X200697056Y-52697056D03*
X201400000Y-51000000D03*
D12*
X199000000Y-51000000D03*
%TD*%
%TO.P,H3,1*%
%TO.N,Earth*%
X199000000Y-131000000D03*
D13*
X201400000Y-131000000D03*
X200697056Y-132697056D03*
X199000000Y-133400000D03*
X197302944Y-132697056D03*
X196600000Y-131000000D03*
X197302944Y-129302944D03*
X199000000Y-128600000D03*
X200697056Y-129302944D03*
%TD*%
%TO.P,H4,1*%
%TO.N,Earth*%
X80697056Y-129302944D03*
X79000000Y-128600000D03*
X77302944Y-129302944D03*
X76600000Y-131000000D03*
X77302944Y-132697056D03*
X79000000Y-133400000D03*
X80697056Y-132697056D03*
X81400000Y-131000000D03*
D12*
X79000000Y-131000000D03*
%TD*%
D14*
%TO.P,J1,6*%
%TO.N,Earth*%
X93875000Y-47800000D03*
D15*
%TO.P,J1,2*%
%TO.N,USB_D-*%
X95650000Y-50450000D03*
%TO.P,J1,1*%
%TO.N,+5V*%
X96300000Y-50450000D03*
%TO.P,J1,5*%
%TO.N,GND*%
X93700000Y-50450000D03*
%TO.P,J1,4*%
%TO.N,Net-(J1-Pad4)*%
X94350000Y-50450000D03*
%TO.P,J1,3*%
%TO.N,USB_D+*%
X95000000Y-50450000D03*
D14*
%TO.P,J1,6*%
%TO.N,Earth*%
X96125000Y-47800000D03*
D16*
X98575000Y-47800000D03*
X91425000Y-47800000D03*
D17*
X92680000Y-50030000D03*
X97320000Y-50030000D03*
%TD*%
D18*
%TO.P,J2,2*%
%TO.N,+12V*%
X171920000Y-50000000D03*
%TO.P,J2,3*%
%TO.N,GND*%
X166840000Y-50000000D03*
D19*
%TO.P,J2,1*%
%TO.N,+12V*%
X177000000Y-50000000D03*
D18*
%TO.P,J2,4*%
%TO.N,GND*%
X161760000Y-50000000D03*
%TD*%
D20*
%TO.P,J3,1*%
%TO.N,+3V3*%
X104000000Y-71000000D03*
D21*
%TO.P,J3,2*%
%TO.N,JTAG_MS*%
X106540000Y-71000000D03*
%TO.P,J3,3*%
%TO.N,GND*%
X104000000Y-73540000D03*
%TO.P,J3,4*%
%TO.N,JTAG_CLK*%
X106540000Y-73540000D03*
%TO.P,J3,5*%
%TO.N,GND*%
X104000000Y-76080000D03*
%TO.P,J3,6*%
%TO.N,JTAG_DO*%
X106540000Y-76080000D03*
%TO.P,J3,7*%
%TO.N,Net-(J3-Pad7)*%
X104000000Y-78620000D03*
%TO.P,J3,8*%
%TO.N,JTAG_DI*%
X106540000Y-78620000D03*
%TO.P,J3,9*%
%TO.N,GND*%
X104000000Y-81160000D03*
%TO.P,J3,10*%
%TO.N,nRST*%
X106540000Y-81160000D03*
%TD*%
D20*
%TO.P,J5,1*%
%TO.N,+3V3*%
X102000000Y-132000000D03*
D21*
%TO.P,J5,2*%
%TO.N,I2C_SCL*%
X104540000Y-132000000D03*
%TO.P,J5,3*%
%TO.N,I2C_SDA*%
X107080000Y-132000000D03*
%TO.P,J5,4*%
%TO.N,GND*%
X109620000Y-132000000D03*
%TD*%
D20*
%TO.P,J6,1*%
%TO.N,+3V3*%
X89000000Y-85000000D03*
D21*
%TO.P,J6,2*%
%TO.N,BOOT*%
X91540000Y-85000000D03*
%TO.P,J6,3*%
%TO.N,GND*%
X94080000Y-85000000D03*
%TD*%
D20*
%TO.P,J7,1*%
%TO.N,+3V3*%
X79000000Y-70000000D03*
D21*
%TO.P,J7,2*%
%TO.N,TEMP0*%
X79000000Y-72540000D03*
%TO.P,J7,3*%
%TO.N,GND*%
X79000000Y-75080000D03*
%TD*%
%TO.P,J8,3*%
%TO.N,GND*%
X79000000Y-86080000D03*
%TO.P,J8,2*%
%TO.N,TEMP1*%
X79000000Y-83540000D03*
D20*
%TO.P,J8,1*%
%TO.N,+3V3*%
X79000000Y-81000000D03*
%TD*%
%TO.P,J9,1*%
%TO.N,+3V3*%
X79000000Y-92000000D03*
D21*
%TO.P,J9,2*%
%TO.N,TEMP2*%
X79000000Y-94540000D03*
%TO.P,J9,3*%
%TO.N,GND*%
X79000000Y-97080000D03*
%TD*%
%TO.P,J10,3*%
%TO.N,GND*%
X79000000Y-108080000D03*
%TO.P,J10,2*%
%TO.N,TEMP3*%
X79000000Y-105540000D03*
D20*
%TO.P,J10,1*%
%TO.N,+3V3*%
X79000000Y-103000000D03*
%TD*%
D18*
%TO.P,J11,2*%
%TO.N,Net-(J11-Pad2)*%
X200000000Y-61920000D03*
D19*
%TO.P,J11,1*%
%TO.N,Net-(J11-Pad1)*%
X200000000Y-67000000D03*
%TD*%
%TO.P,J12,1*%
%TO.N,Net-(J12-Pad1)*%
X200000000Y-92000000D03*
D18*
%TO.P,J12,2*%
%TO.N,Net-(J12-Pad2)*%
X200000000Y-86920000D03*
%TD*%
D22*
%TO.P,J13,2*%
%TO.N,GND*%
X125500000Y-50000000D03*
%TO.P,J13,1*%
%TO.N,+12V*%
%TA.AperFunction,ComponentPad*%
G36*
G01*
X122150000Y-50750000D02*
X122150000Y-49250000D01*
G75*
G02*
X122400000Y-49000000I250000J0D01*
G01*
X123600000Y-49000000D01*
G75*
G02*
X123850000Y-49250000I0J-250000D01*
G01*
X123850000Y-50750000D01*
G75*
G02*
X123600000Y-51000000I-250000J0D01*
G01*
X122400000Y-51000000D01*
G75*
G02*
X122150000Y-50750000I0J250000D01*
G01*
G37*
%TD.AperFunction*%
%TD*%
%TO.P,J14,1*%
%TO.N,+12V*%
%TA.AperFunction,ComponentPad*%
G36*
G01*
X135150000Y-50750000D02*
X135150000Y-49250000D01*
G75*
G02*
X135400000Y-49000000I250000J0D01*
G01*
X136600000Y-49000000D01*
G75*
G02*
X136850000Y-49250000I0J-250000D01*
G01*
X136850000Y-50750000D01*
G75*
G02*
X136600000Y-51000000I-250000J0D01*
G01*
X135400000Y-51000000D01*
G75*
G02*
X135150000Y-50750000I0J250000D01*
G01*
G37*
%TD.AperFunction*%
%TO.P,J14,2*%
%TO.N,GND*%
X138500000Y-50000000D03*
%TD*%
%TO.P,J15,1*%
%TO.N,+12V*%
%TA.AperFunction,ComponentPad*%
G36*
G01*
X143150000Y-107750000D02*
X143150000Y-106250000D01*
G75*
G02*
X143400000Y-106000000I250000J0D01*
G01*
X144600000Y-106000000D01*
G75*
G02*
X144850000Y-106250000I0J-250000D01*
G01*
X144850000Y-107750000D01*
G75*
G02*
X144600000Y-108000000I-250000J0D01*
G01*
X143400000Y-108000000D01*
G75*
G02*
X143150000Y-107750000I0J250000D01*
G01*
G37*
%TD.AperFunction*%
%TO.P,J15,2*%
%TO.N,GND*%
X146500000Y-107000000D03*
%TD*%
%TO.P,J16,2*%
%TO.N,GND*%
X158500000Y-107000000D03*
%TO.P,J16,1*%
%TO.N,+12V*%
%TA.AperFunction,ComponentPad*%
G36*
G01*
X155150000Y-107750000D02*
X155150000Y-106250000D01*
G75*
G02*
X155400000Y-106000000I250000J0D01*
G01*
X156600000Y-106000000D01*
G75*
G02*
X156850000Y-106250000I0J-250000D01*
G01*
X156850000Y-107750000D01*
G75*
G02*
X156600000Y-108000000I-250000J0D01*
G01*
X155400000Y-108000000D01*
G75*
G02*
X155150000Y-107750000I0J250000D01*
G01*
G37*
%TD.AperFunction*%
%TD*%
%TO.P,J17,1*%
%TO.N,+12V*%
%TA.AperFunction,ComponentPad*%
G36*
G01*
X167150000Y-107750000D02*
X167150000Y-106250000D01*
G75*
G02*
X167400000Y-106000000I250000J0D01*
G01*
X168600000Y-106000000D01*
G75*
G02*
X168850000Y-106250000I0J-250000D01*
G01*
X168850000Y-107750000D01*
G75*
G02*
X168600000Y-108000000I-250000J0D01*
G01*
X167400000Y-108000000D01*
G75*
G02*
X167150000Y-107750000I0J250000D01*
G01*
G37*
%TD.AperFunction*%
%TO.P,J17,2*%
%TO.N,GND*%
X170500000Y-107000000D03*
%TD*%
%TO.P,J18,2*%
%TO.N,GND*%
X182500000Y-107000000D03*
%TO.P,J18,1*%
%TO.N,+12V*%
%TA.AperFunction,ComponentPad*%
G36*
G01*
X179150000Y-107750000D02*
X179150000Y-106250000D01*
G75*
G02*
X179400000Y-106000000I250000J0D01*
G01*
X180600000Y-106000000D01*
G75*
G02*
X180850000Y-106250000I0J-250000D01*
G01*
X180850000Y-107750000D01*
G75*
G02*
X180600000Y-108000000I-250000J0D01*
G01*
X179400000Y-108000000D01*
G75*
G02*
X179150000Y-107750000I0J250000D01*
G01*
G37*
%TD.AperFunction*%
%TD*%
%TO.P,J19,1*%
%TO.N,+12V*%
%TA.AperFunction,ComponentPad*%
G36*
G01*
X191150000Y-107750000D02*
X191150000Y-106250000D01*
G75*
G02*
X191400000Y-106000000I250000J0D01*
G01*
X192600000Y-106000000D01*
G75*
G02*
X192850000Y-106250000I0J-250000D01*
G01*
X192850000Y-107750000D01*
G75*
G02*
X192600000Y-108000000I-250000J0D01*
G01*
X191400000Y-108000000D01*
G75*
G02*
X191150000Y-107750000I0J250000D01*
G01*
G37*
%TD.AperFunction*%
%TO.P,J19,2*%
%TO.N,GND*%
X194500000Y-107000000D03*
%TD*%
%TO.P,J20,2*%
%TO.N,GND*%
X146500000Y-118000000D03*
%TO.P,J20,1*%
%TO.N,+12V*%
%TA.AperFunction,ComponentPad*%
G36*
G01*
X143150000Y-118750000D02*
X143150000Y-117250000D01*
G75*
G02*
X143400000Y-117000000I250000J0D01*
G01*
X144600000Y-117000000D01*
G75*
G02*
X144850000Y-117250000I0J-250000D01*
G01*
X144850000Y-118750000D01*
G75*
G02*
X144600000Y-119000000I-250000J0D01*
G01*
X143400000Y-119000000D01*
G75*
G02*
X143150000Y-118750000I0J250000D01*
G01*
G37*
%TD.AperFunction*%
%TD*%
%TO.P,J21,1*%
%TO.N,+12V*%
%TA.AperFunction,ComponentPad*%
G36*
G01*
X155150000Y-118750000D02*
X155150000Y-117250000D01*
G75*
G02*
X155400000Y-117000000I250000J0D01*
G01*
X156600000Y-117000000D01*
G75*
G02*
X156850000Y-117250000I0J-250000D01*
G01*
X156850000Y-118750000D01*
G75*
G02*
X156600000Y-119000000I-250000J0D01*
G01*
X155400000Y-119000000D01*
G75*
G02*
X155150000Y-118750000I0J250000D01*
G01*
G37*
%TD.AperFunction*%
%TO.P,J21,2*%
%TO.N,GND*%
X158500000Y-118000000D03*
%TD*%
%TO.P,J22,2*%
%TO.N,GND*%
X170500000Y-118000000D03*
%TO.P,J22,1*%
%TO.N,+12V*%
%TA.AperFunction,ComponentPad*%
G36*
G01*
X167150000Y-118750000D02*
X167150000Y-117250000D01*
G75*
G02*
X167400000Y-117000000I250000J0D01*
G01*
X168600000Y-117000000D01*
G75*
G02*
X168850000Y-117250000I0J-250000D01*
G01*
X168850000Y-118750000D01*
G75*
G02*
X168600000Y-119000000I-250000J0D01*
G01*
X167400000Y-119000000D01*
G75*
G02*
X167150000Y-118750000I0J250000D01*
G01*
G37*
%TD.AperFunction*%
%TD*%
%TO.P,J23,1*%
%TO.N,+12V*%
%TA.AperFunction,ComponentPad*%
G36*
G01*
X179150000Y-118750000D02*
X179150000Y-117250000D01*
G75*
G02*
X179400000Y-117000000I250000J0D01*
G01*
X180600000Y-117000000D01*
G75*
G02*
X180850000Y-117250000I0J-250000D01*
G01*
X180850000Y-118750000D01*
G75*
G02*
X180600000Y-119000000I-250000J0D01*
G01*
X179400000Y-119000000D01*
G75*
G02*
X179150000Y-118750000I0J250000D01*
G01*
G37*
%TD.AperFunction*%
%TO.P,J23,2*%
%TO.N,GND*%
X182500000Y-118000000D03*
%TD*%
%TO.P,J24,2*%
%TO.N,GND*%
X194500000Y-118000000D03*
%TO.P,J24,1*%
%TO.N,+12V*%
%TA.AperFunction,ComponentPad*%
G36*
G01*
X191150000Y-118750000D02*
X191150000Y-117250000D01*
G75*
G02*
X191400000Y-117000000I250000J0D01*
G01*
X192600000Y-117000000D01*
G75*
G02*
X192850000Y-117250000I0J-250000D01*
G01*
X192850000Y-118750000D01*
G75*
G02*
X192600000Y-119000000I-250000J0D01*
G01*
X191400000Y-119000000D01*
G75*
G02*
X191150000Y-118750000I0J250000D01*
G01*
G37*
%TD.AperFunction*%
%TD*%
%TO.P,J25,1*%
%TO.N,+12V*%
%TA.AperFunction,ComponentPad*%
G36*
G01*
X143150000Y-129750000D02*
X143150000Y-128250000D01*
G75*
G02*
X143400000Y-128000000I250000J0D01*
G01*
X144600000Y-128000000D01*
G75*
G02*
X144850000Y-128250000I0J-250000D01*
G01*
X144850000Y-129750000D01*
G75*
G02*
X144600000Y-130000000I-250000J0D01*
G01*
X143400000Y-130000000D01*
G75*
G02*
X143150000Y-129750000I0J250000D01*
G01*
G37*
%TD.AperFunction*%
%TO.P,J25,2*%
%TO.N,GND*%
X146500000Y-129000000D03*
%TD*%
%TO.P,J26,2*%
%TO.N,GND*%
X158500000Y-129000000D03*
%TO.P,J26,1*%
%TO.N,+12V*%
%TA.AperFunction,ComponentPad*%
G36*
G01*
X155150000Y-129750000D02*
X155150000Y-128250000D01*
G75*
G02*
X155400000Y-128000000I250000J0D01*
G01*
X156600000Y-128000000D01*
G75*
G02*
X156850000Y-128250000I0J-250000D01*
G01*
X156850000Y-129750000D01*
G75*
G02*
X156600000Y-130000000I-250000J0D01*
G01*
X155400000Y-130000000D01*
G75*
G02*
X155150000Y-129750000I0J250000D01*
G01*
G37*
%TD.AperFunction*%
%TD*%
%TO.P,J27,1*%
%TO.N,+12V*%
%TA.AperFunction,ComponentPad*%
G36*
G01*
X167150000Y-129750000D02*
X167150000Y-128250000D01*
G75*
G02*
X167400000Y-128000000I250000J0D01*
G01*
X168600000Y-128000000D01*
G75*
G02*
X168850000Y-128250000I0J-250000D01*
G01*
X168850000Y-129750000D01*
G75*
G02*
X168600000Y-130000000I-250000J0D01*
G01*
X167400000Y-130000000D01*
G75*
G02*
X167150000Y-129750000I0J250000D01*
G01*
G37*
%TD.AperFunction*%
%TO.P,J27,2*%
%TO.N,GND*%
X170500000Y-129000000D03*
%TD*%
%TO.P,J28,2*%
%TO.N,GND*%
X182500000Y-129000000D03*
%TO.P,J28,1*%
%TO.N,+12V*%
%TA.AperFunction,ComponentPad*%
G36*
G01*
X179150000Y-129750000D02*
X179150000Y-128250000D01*
G75*
G02*
X179400000Y-128000000I250000J0D01*
G01*
X180600000Y-128000000D01*
G75*
G02*
X180850000Y-128250000I0J-250000D01*
G01*
X180850000Y-129750000D01*
G75*
G02*
X180600000Y-130000000I-250000J0D01*
G01*
X179400000Y-130000000D01*
G75*
G02*
X179150000Y-129750000I0J250000D01*
G01*
G37*
%TD.AperFunction*%
%TD*%
%TO.P,R1,1*%
%TO.N,+12V*%
%TA.AperFunction,SMDPad,CuDef*%
G36*
G01*
X154025000Y-84375000D02*
X154025000Y-85625000D01*
G75*
G02*
X153775000Y-85875000I-250000J0D01*
G01*
X153025000Y-85875000D01*
G75*
G02*
X152775000Y-85625000I0J250000D01*
G01*
X152775000Y-84375000D01*
G75*
G02*
X153025000Y-84125000I250000J0D01*
G01*
X153775000Y-84125000D01*
G75*
G02*
X154025000Y-84375000I0J-250000D01*
G01*
G37*
%TD.AperFunction*%
%TO.P,R1,2*%
%TO.N,Net-(R1-Pad2)*%
%TA.AperFunction,SMDPad,CuDef*%
G36*
G01*
X151225000Y-84375000D02*
X151225000Y-85625000D01*
G75*
G02*
X150975000Y-85875000I-250000J0D01*
G01*
X150225000Y-85875000D01*
G75*
G02*
X149975000Y-85625000I0J250000D01*
G01*
X149975000Y-84375000D01*
G75*
G02*
X150225000Y-84125000I250000J0D01*
G01*
X150975000Y-84125000D01*
G75*
G02*
X151225000Y-84375000I0J-250000D01*
G01*
G37*
%TD.AperFunction*%
%TD*%
%TO.P,R2,2*%
%TO.N,Net-(R2-Pad2)*%
%TA.AperFunction,SMDPad,CuDef*%
G36*
G01*
X151225000Y-78375000D02*
X151225000Y-79625000D01*
G75*
G02*
X150975000Y-79875000I-250000J0D01*
G01*
X150225000Y-79875000D01*
G75*
G02*
X149975000Y-79625000I0J250000D01*
G01*
X149975000Y-78375000D01*
G75*
G02*
X150225000Y-78125000I250000J0D01*
G01*
X150975000Y-78125000D01*
G75*
G02*
X151225000Y-78375000I0J-250000D01*
G01*
G37*
%TD.AperFunction*%
%TO.P,R2,1*%
%TO.N,+12V*%
%TA.AperFunction,SMDPad,CuDef*%
G36*
G01*
X154025000Y-78375000D02*
X154025000Y-79625000D01*
G75*
G02*
X153775000Y-79875000I-250000J0D01*
G01*
X153025000Y-79875000D01*
G75*
G02*
X152775000Y-79625000I0J250000D01*
G01*
X152775000Y-78375000D01*
G75*
G02*
X153025000Y-78125000I250000J0D01*
G01*
X153775000Y-78125000D01*
G75*
G02*
X154025000Y-78375000I0J-250000D01*
G01*
G37*
%TD.AperFunction*%
%TD*%
%TO.P,R3,1*%
%TO.N,Net-(D1-Pad1)*%
%TA.AperFunction,SMDPad,CuDef*%
G36*
G01*
X165220000Y-79172500D02*
X165220000Y-78827500D01*
G75*
G02*
X165367500Y-78680000I147500J0D01*
G01*
X165662500Y-78680000D01*
G75*
G02*
X165810000Y-78827500I0J-147500D01*
G01*
X165810000Y-79172500D01*
G75*
G02*
X165662500Y-79320000I-147500J0D01*
G01*
X165367500Y-79320000D01*
G75*
G02*
X165220000Y-79172500I0J147500D01*
G01*
G37*
%TD.AperFunction*%
%TO.P,R3,2*%
%TO.N,GND*%
%TA.AperFunction,SMDPad,CuDef*%
G36*
G01*
X166190000Y-79172500D02*
X166190000Y-78827500D01*
G75*
G02*
X166337500Y-78680000I147500J0D01*
G01*
X166632500Y-78680000D01*
G75*
G02*
X166780000Y-78827500I0J-147500D01*
G01*
X166780000Y-79172500D01*
G75*
G02*
X166632500Y-79320000I-147500J0D01*
G01*
X166337500Y-79320000D01*
G75*
G02*
X166190000Y-79172500I0J147500D01*
G01*
G37*
%TD.AperFunction*%
%TD*%
%TO.P,R4,2*%
%TO.N,HB_A1*%
%TA.AperFunction,SMDPad,CuDef*%
G36*
G01*
X139810000Y-84827500D02*
X139810000Y-85172500D01*
G75*
G02*
X139662500Y-85320000I-147500J0D01*
G01*
X139367500Y-85320000D01*
G75*
G02*
X139220000Y-85172500I0J147500D01*
G01*
X139220000Y-84827500D01*
G75*
G02*
X139367500Y-84680000I147500J0D01*
G01*
X139662500Y-84680000D01*
G75*
G02*
X139810000Y-84827500I0J-147500D01*
G01*
G37*
%TD.AperFunction*%
%TO.P,R4,1*%
%TO.N,Net-(R4-Pad1)*%
%TA.AperFunction,SMDPad,CuDef*%
G36*
G01*
X140780000Y-84827500D02*
X140780000Y-85172500D01*
G75*
G02*
X140632500Y-85320000I-147500J0D01*
G01*
X140337500Y-85320000D01*
G75*
G02*
X140190000Y-85172500I0J147500D01*
G01*
X140190000Y-84827500D01*
G75*
G02*
X140337500Y-84680000I147500J0D01*
G01*
X140632500Y-84680000D01*
G75*
G02*
X140780000Y-84827500I0J-147500D01*
G01*
G37*
%TD.AperFunction*%
%TD*%
%TO.P,R5,1*%
%TO.N,HB_A2*%
%TA.AperFunction,SMDPad,CuDef*%
G36*
G01*
X139220000Y-79172500D02*
X139220000Y-78827500D01*
G75*
G02*
X139367500Y-78680000I147500J0D01*
G01*
X139662500Y-78680000D01*
G75*
G02*
X139810000Y-78827500I0J-147500D01*
G01*
X139810000Y-79172500D01*
G75*
G02*
X139662500Y-79320000I-147500J0D01*
G01*
X139367500Y-79320000D01*
G75*
G02*
X139220000Y-79172500I0J147500D01*
G01*
G37*
%TD.AperFunction*%
%TO.P,R5,2*%
%TO.N,Net-(R5-Pad2)*%
%TA.AperFunction,SMDPad,CuDef*%
G36*
G01*
X140190000Y-79172500D02*
X140190000Y-78827500D01*
G75*
G02*
X140337500Y-78680000I147500J0D01*
G01*
X140632500Y-78680000D01*
G75*
G02*
X140780000Y-78827500I0J-147500D01*
G01*
X140780000Y-79172500D01*
G75*
G02*
X140632500Y-79320000I-147500J0D01*
G01*
X140337500Y-79320000D01*
G75*
G02*
X140190000Y-79172500I0J147500D01*
G01*
G37*
%TD.AperFunction*%
%TD*%
%TO.P,R6,2*%
%TO.N,Net-(R6-Pad2)*%
%TA.AperFunction,SMDPad,CuDef*%
G36*
G01*
X151225000Y-96375000D02*
X151225000Y-97625000D01*
G75*
G02*
X150975000Y-97875000I-250000J0D01*
G01*
X150225000Y-97875000D01*
G75*
G02*
X149975000Y-97625000I0J250000D01*
G01*
X149975000Y-96375000D01*
G75*
G02*
X150225000Y-96125000I250000J0D01*
G01*
X150975000Y-96125000D01*
G75*
G02*
X151225000Y-96375000I0J-250000D01*
G01*
G37*
%TD.AperFunction*%
%TO.P,R6,1*%
%TO.N,+12V*%
%TA.AperFunction,SMDPad,CuDef*%
G36*
G01*
X154025000Y-96375000D02*
X154025000Y-97625000D01*
G75*
G02*
X153775000Y-97875000I-250000J0D01*
G01*
X153025000Y-97875000D01*
G75*
G02*
X152775000Y-97625000I0J250000D01*
G01*
X152775000Y-96375000D01*
G75*
G02*
X153025000Y-96125000I250000J0D01*
G01*
X153775000Y-96125000D01*
G75*
G02*
X154025000Y-96375000I0J-250000D01*
G01*
G37*
%TD.AperFunction*%
%TD*%
%TO.P,R7,1*%
%TO.N,+12V*%
%TA.AperFunction,SMDPad,CuDef*%
G36*
G01*
X154025000Y-90375000D02*
X154025000Y-91625000D01*
G75*
G02*
X153775000Y-91875000I-250000J0D01*
G01*
X153025000Y-91875000D01*
G75*
G02*
X152775000Y-91625000I0J250000D01*
G01*
X152775000Y-90375000D01*
G75*
G02*
X153025000Y-90125000I250000J0D01*
G01*
X153775000Y-90125000D01*
G75*
G02*
X154025000Y-90375000I0J-250000D01*
G01*
G37*
%TD.AperFunction*%
%TO.P,R7,2*%
%TO.N,Net-(R7-Pad2)*%
%TA.AperFunction,SMDPad,CuDef*%
G36*
G01*
X151225000Y-90375000D02*
X151225000Y-91625000D01*
G75*
G02*
X150975000Y-91875000I-250000J0D01*
G01*
X150225000Y-91875000D01*
G75*
G02*
X149975000Y-91625000I0J250000D01*
G01*
X149975000Y-90375000D01*
G75*
G02*
X150225000Y-90125000I250000J0D01*
G01*
X150975000Y-90125000D01*
G75*
G02*
X151225000Y-90375000I0J-250000D01*
G01*
G37*
%TD.AperFunction*%
%TD*%
%TO.P,R8,2*%
%TO.N,HB_B1*%
%TA.AperFunction,SMDPad,CuDef*%
G36*
G01*
X139810000Y-96827500D02*
X139810000Y-97172500D01*
G75*
G02*
X139662500Y-97320000I-147500J0D01*
G01*
X139367500Y-97320000D01*
G75*
G02*
X139220000Y-97172500I0J147500D01*
G01*
X139220000Y-96827500D01*
G75*
G02*
X139367500Y-96680000I147500J0D01*
G01*
X139662500Y-96680000D01*
G75*
G02*
X139810000Y-96827500I0J-147500D01*
G01*
G37*
%TD.AperFunction*%
%TO.P,R8,1*%
%TO.N,Net-(R8-Pad1)*%
%TA.AperFunction,SMDPad,CuDef*%
G36*
G01*
X140780000Y-96827500D02*
X140780000Y-97172500D01*
G75*
G02*
X140632500Y-97320000I-147500J0D01*
G01*
X140337500Y-97320000D01*
G75*
G02*
X140190000Y-97172500I0J147500D01*
G01*
X140190000Y-96827500D01*
G75*
G02*
X140337500Y-96680000I147500J0D01*
G01*
X140632500Y-96680000D01*
G75*
G02*
X140780000Y-96827500I0J-147500D01*
G01*
G37*
%TD.AperFunction*%
%TD*%
%TO.P,R9,1*%
%TO.N,HB_B2*%
%TA.AperFunction,SMDPad,CuDef*%
G36*
G01*
X139220000Y-91172500D02*
X139220000Y-90827500D01*
G75*
G02*
X139367500Y-90680000I147500J0D01*
G01*
X139662500Y-90680000D01*
G75*
G02*
X139810000Y-90827500I0J-147500D01*
G01*
X139810000Y-91172500D01*
G75*
G02*
X139662500Y-91320000I-147500J0D01*
G01*
X139367500Y-91320000D01*
G75*
G02*
X139220000Y-91172500I0J147500D01*
G01*
G37*
%TD.AperFunction*%
%TO.P,R9,2*%
%TO.N,Net-(R9-Pad2)*%
%TA.AperFunction,SMDPad,CuDef*%
G36*
G01*
X140190000Y-91172500D02*
X140190000Y-90827500D01*
G75*
G02*
X140337500Y-90680000I147500J0D01*
G01*
X140632500Y-90680000D01*
G75*
G02*
X140780000Y-90827500I0J-147500D01*
G01*
X140780000Y-91172500D01*
G75*
G02*
X140632500Y-91320000I-147500J0D01*
G01*
X140337500Y-91320000D01*
G75*
G02*
X140190000Y-91172500I0J147500D01*
G01*
G37*
%TD.AperFunction*%
%TD*%
%TO.P,R11,2*%
%TO.N,I2C_SCL*%
%TA.AperFunction,SMDPad,CuDef*%
G36*
G01*
X104327500Y-128690000D02*
X104672500Y-128690000D01*
G75*
G02*
X104820000Y-128837500I0J-147500D01*
G01*
X104820000Y-129132500D01*
G75*
G02*
X104672500Y-129280000I-147500J0D01*
G01*
X104327500Y-129280000D01*
G75*
G02*
X104180000Y-129132500I0J147500D01*
G01*
X104180000Y-128837500D01*
G75*
G02*
X104327500Y-128690000I147500J0D01*
G01*
G37*
%TD.AperFunction*%
%TO.P,R11,1*%
%TO.N,+3V3*%
%TA.AperFunction,SMDPad,CuDef*%
G36*
G01*
X104327500Y-127720000D02*
X104672500Y-127720000D01*
G75*
G02*
X104820000Y-127867500I0J-147500D01*
G01*
X104820000Y-128162500D01*
G75*
G02*
X104672500Y-128310000I-147500J0D01*
G01*
X104327500Y-128310000D01*
G75*
G02*
X104180000Y-128162500I0J147500D01*
G01*
X104180000Y-127867500D01*
G75*
G02*
X104327500Y-127720000I147500J0D01*
G01*
G37*
%TD.AperFunction*%
%TD*%
%TO.P,R12,1*%
%TO.N,+3V3*%
%TA.AperFunction,SMDPad,CuDef*%
G36*
G01*
X106827500Y-127720000D02*
X107172500Y-127720000D01*
G75*
G02*
X107320000Y-127867500I0J-147500D01*
G01*
X107320000Y-128162500D01*
G75*
G02*
X107172500Y-128310000I-147500J0D01*
G01*
X106827500Y-128310000D01*
G75*
G02*
X106680000Y-128162500I0J147500D01*
G01*
X106680000Y-127867500D01*
G75*
G02*
X106827500Y-127720000I147500J0D01*
G01*
G37*
%TD.AperFunction*%
%TO.P,R12,2*%
%TO.N,I2C_SDA*%
%TA.AperFunction,SMDPad,CuDef*%
G36*
G01*
X106827500Y-128690000D02*
X107172500Y-128690000D01*
G75*
G02*
X107320000Y-128837500I0J-147500D01*
G01*
X107320000Y-129132500D01*
G75*
G02*
X107172500Y-129280000I-147500J0D01*
G01*
X106827500Y-129280000D01*
G75*
G02*
X106680000Y-129132500I0J147500D01*
G01*
X106680000Y-128837500D01*
G75*
G02*
X106827500Y-128690000I147500J0D01*
G01*
G37*
%TD.AperFunction*%
%TD*%
D23*
%TO.P,RV1,3*%
%TO.N,GND*%
X145000000Y-72080000D03*
%TO.P,RV1,2*%
%TO.N,Net-(J4-Pad3)*%
X142460000Y-69540000D03*
%TO.P,RV1,1*%
%TO.N,+3V3*%
X145000000Y-67000000D03*
%TD*%
D24*
%TO.P,U3,1*%
%TO.N,GND*%
X183800000Y-67720000D03*
%TO.P,U3,2*%
%TO.N,Net-(R1-Pad2)*%
X183800000Y-68860000D03*
%TO.P,U3,4*%
%TO.N,+12V*%
X183800000Y-71140000D03*
%TO.P,U3,5*%
%TO.N,Net-(R1-Pad2)*%
X183800000Y-72280000D03*
D25*
%TO.P,U3,3*%
%TO.N,Net-(J11-Pad1)*%
X190100000Y-70000000D03*
%TD*%
%TO.P,U4,3*%
%TO.N,Net-(J11-Pad2)*%
X190100000Y-59000000D03*
D24*
%TO.P,U4,5*%
%TO.N,Net-(R2-Pad2)*%
X183800000Y-61280000D03*
%TO.P,U4,4*%
%TO.N,+12V*%
X183800000Y-60140000D03*
%TO.P,U4,2*%
%TO.N,Net-(R2-Pad2)*%
X183800000Y-57860000D03*
%TO.P,U4,1*%
%TO.N,GND*%
X183800000Y-56720000D03*
%TD*%
%TO.P,U5,1*%
%TO.N,Net-(R4-Pad1)*%
%TA.AperFunction,SMDPad,CuDef*%
G36*
G01*
X141525000Y-84867500D02*
X141525000Y-84592500D01*
G75*
G02*
X141662500Y-84455000I137500J0D01*
G01*
X142837500Y-84455000D01*
G75*
G02*
X142975000Y-84592500I0J-137500D01*
G01*
X142975000Y-84867500D01*
G75*
G02*
X142837500Y-85005000I-137500J0D01*
G01*
X141662500Y-85005000D01*
G75*
G02*
X141525000Y-84867500I0J137500D01*
G01*
G37*
%TD.AperFunction*%
%TO.P,U5,2*%
%TO.N,GND*%
%TA.AperFunction,SMDPad,CuDef*%
G36*
G01*
X141525000Y-87407500D02*
X141525000Y-87132500D01*
G75*
G02*
X141662500Y-86995000I137500J0D01*
G01*
X142837500Y-86995000D01*
G75*
G02*
X142975000Y-87132500I0J-137500D01*
G01*
X142975000Y-87407500D01*
G75*
G02*
X142837500Y-87545000I-137500J0D01*
G01*
X141662500Y-87545000D01*
G75*
G02*
X141525000Y-87407500I0J137500D01*
G01*
G37*
%TD.AperFunction*%
%TO.P,U5,3*%
%TA.AperFunction,SMDPad,CuDef*%
G36*
G01*
X147025000Y-87407500D02*
X147025000Y-87132500D01*
G75*
G02*
X147162500Y-86995000I137500J0D01*
G01*
X148337500Y-86995000D01*
G75*
G02*
X148475000Y-87132500I0J-137500D01*
G01*
X148475000Y-87407500D01*
G75*
G02*
X148337500Y-87545000I-137500J0D01*
G01*
X147162500Y-87545000D01*
G75*
G02*
X147025000Y-87407500I0J137500D01*
G01*
G37*
%TD.AperFunction*%
%TO.P,U5,4*%
%TO.N,Net-(R1-Pad2)*%
%TA.AperFunction,SMDPad,CuDef*%
G36*
G01*
X147025000Y-84867500D02*
X147025000Y-84592500D01*
G75*
G02*
X147162500Y-84455000I137500J0D01*
G01*
X148337500Y-84455000D01*
G75*
G02*
X148475000Y-84592500I0J-137500D01*
G01*
X148475000Y-84867500D01*
G75*
G02*
X148337500Y-85005000I-137500J0D01*
G01*
X147162500Y-85005000D01*
G75*
G02*
X147025000Y-84867500I0J137500D01*
G01*
G37*
%TD.AperFunction*%
%TD*%
%TO.P,U6,4*%
%TO.N,Net-(R2-Pad2)*%
%TA.AperFunction,SMDPad,CuDef*%
G36*
G01*
X147025000Y-78867500D02*
X147025000Y-78592500D01*
G75*
G02*
X147162500Y-78455000I137500J0D01*
G01*
X148337500Y-78455000D01*
G75*
G02*
X148475000Y-78592500I0J-137500D01*
G01*
X148475000Y-78867500D01*
G75*
G02*
X148337500Y-79005000I-137500J0D01*
G01*
X147162500Y-79005000D01*
G75*
G02*
X147025000Y-78867500I0J137500D01*
G01*
G37*
%TD.AperFunction*%
%TO.P,U6,3*%
%TO.N,GND*%
%TA.AperFunction,SMDPad,CuDef*%
G36*
G01*
X147025000Y-81407500D02*
X147025000Y-81132500D01*
G75*
G02*
X147162500Y-80995000I137500J0D01*
G01*
X148337500Y-80995000D01*
G75*
G02*
X148475000Y-81132500I0J-137500D01*
G01*
X148475000Y-81407500D01*
G75*
G02*
X148337500Y-81545000I-137500J0D01*
G01*
X147162500Y-81545000D01*
G75*
G02*
X147025000Y-81407500I0J137500D01*
G01*
G37*
%TD.AperFunction*%
%TO.P,U6,2*%
%TA.AperFunction,SMDPad,CuDef*%
G36*
G01*
X141525000Y-81407500D02*
X141525000Y-81132500D01*
G75*
G02*
X141662500Y-80995000I137500J0D01*
G01*
X142837500Y-80995000D01*
G75*
G02*
X142975000Y-81132500I0J-137500D01*
G01*
X142975000Y-81407500D01*
G75*
G02*
X142837500Y-81545000I-137500J0D01*
G01*
X141662500Y-81545000D01*
G75*
G02*
X141525000Y-81407500I0J137500D01*
G01*
G37*
%TD.AperFunction*%
%TO.P,U6,1*%
%TO.N,Net-(R5-Pad2)*%
%TA.AperFunction,SMDPad,CuDef*%
G36*
G01*
X141525000Y-78867500D02*
X141525000Y-78592500D01*
G75*
G02*
X141662500Y-78455000I137500J0D01*
G01*
X142837500Y-78455000D01*
G75*
G02*
X142975000Y-78592500I0J-137500D01*
G01*
X142975000Y-78867500D01*
G75*
G02*
X142837500Y-79005000I-137500J0D01*
G01*
X141662500Y-79005000D01*
G75*
G02*
X141525000Y-78867500I0J137500D01*
G01*
G37*
%TD.AperFunction*%
%TD*%
%TO.P,U7,1*%
%TO.N,GND*%
X183700000Y-92720000D03*
%TO.P,U7,2*%
%TO.N,Net-(R6-Pad2)*%
X183700000Y-93860000D03*
%TO.P,U7,4*%
%TO.N,+12V*%
X183700000Y-96140000D03*
%TO.P,U7,5*%
%TO.N,Net-(R6-Pad2)*%
X183700000Y-97280000D03*
D25*
%TO.P,U7,3*%
%TO.N,Net-(J12-Pad1)*%
X190000000Y-95000000D03*
%TD*%
%TO.P,U8,3*%
%TO.N,Net-(J12-Pad2)*%
X190100000Y-84000000D03*
D24*
%TO.P,U8,5*%
%TO.N,Net-(R7-Pad2)*%
X183800000Y-86280000D03*
%TO.P,U8,4*%
%TO.N,+12V*%
X183800000Y-85140000D03*
%TO.P,U8,2*%
%TO.N,Net-(R7-Pad2)*%
X183800000Y-82860000D03*
%TO.P,U8,1*%
%TO.N,GND*%
X183800000Y-81720000D03*
%TD*%
%TO.P,U9,4*%
%TO.N,Net-(R6-Pad2)*%
%TA.AperFunction,SMDPad,CuDef*%
G36*
G01*
X147025000Y-96867500D02*
X147025000Y-96592500D01*
G75*
G02*
X147162500Y-96455000I137500J0D01*
G01*
X148337500Y-96455000D01*
G75*
G02*
X148475000Y-96592500I0J-137500D01*
G01*
X148475000Y-96867500D01*
G75*
G02*
X148337500Y-97005000I-137500J0D01*
G01*
X147162500Y-97005000D01*
G75*
G02*
X147025000Y-96867500I0J137500D01*
G01*
G37*
%TD.AperFunction*%
%TO.P,U9,3*%
%TO.N,GND*%
%TA.AperFunction,SMDPad,CuDef*%
G36*
G01*
X147025000Y-99407500D02*
X147025000Y-99132500D01*
G75*
G02*
X147162500Y-98995000I137500J0D01*
G01*
X148337500Y-98995000D01*
G75*
G02*
X148475000Y-99132500I0J-137500D01*
G01*
X148475000Y-99407500D01*
G75*
G02*
X148337500Y-99545000I-137500J0D01*
G01*
X147162500Y-99545000D01*
G75*
G02*
X147025000Y-99407500I0J137500D01*
G01*
G37*
%TD.AperFunction*%
%TO.P,U9,2*%
%TA.AperFunction,SMDPad,CuDef*%
G36*
G01*
X141525000Y-99407500D02*
X141525000Y-99132500D01*
G75*
G02*
X141662500Y-98995000I137500J0D01*
G01*
X142837500Y-98995000D01*
G75*
G02*
X142975000Y-99132500I0J-137500D01*
G01*
X142975000Y-99407500D01*
G75*
G02*
X142837500Y-99545000I-137500J0D01*
G01*
X141662500Y-99545000D01*
G75*
G02*
X141525000Y-99407500I0J137500D01*
G01*
G37*
%TD.AperFunction*%
%TO.P,U9,1*%
%TO.N,Net-(R8-Pad1)*%
%TA.AperFunction,SMDPad,CuDef*%
G36*
G01*
X141525000Y-96867500D02*
X141525000Y-96592500D01*
G75*
G02*
X141662500Y-96455000I137500J0D01*
G01*
X142837500Y-96455000D01*
G75*
G02*
X142975000Y-96592500I0J-137500D01*
G01*
X142975000Y-96867500D01*
G75*
G02*
X142837500Y-97005000I-137500J0D01*
G01*
X141662500Y-97005000D01*
G75*
G02*
X141525000Y-96867500I0J137500D01*
G01*
G37*
%TD.AperFunction*%
%TD*%
%TO.P,U10,1*%
%TO.N,Net-(R9-Pad2)*%
%TA.AperFunction,SMDPad,CuDef*%
G36*
G01*
X141525000Y-90867500D02*
X141525000Y-90592500D01*
G75*
G02*
X141662500Y-90455000I137500J0D01*
G01*
X142837500Y-90455000D01*
G75*
G02*
X142975000Y-90592500I0J-137500D01*
G01*
X142975000Y-90867500D01*
G75*
G02*
X142837500Y-91005000I-137500J0D01*
G01*
X141662500Y-91005000D01*
G75*
G02*
X141525000Y-90867500I0J137500D01*
G01*
G37*
%TD.AperFunction*%
%TO.P,U10,2*%
%TO.N,GND*%
%TA.AperFunction,SMDPad,CuDef*%
G36*
G01*
X141525000Y-93407500D02*
X141525000Y-93132500D01*
G75*
G02*
X141662500Y-92995000I137500J0D01*
G01*
X142837500Y-92995000D01*
G75*
G02*
X142975000Y-93132500I0J-137500D01*
G01*
X142975000Y-93407500D01*
G75*
G02*
X142837500Y-93545000I-137500J0D01*
G01*
X141662500Y-93545000D01*
G75*
G02*
X141525000Y-93407500I0J137500D01*
G01*
G37*
%TD.AperFunction*%
%TO.P,U10,3*%
%TA.AperFunction,SMDPad,CuDef*%
G36*
G01*
X147025000Y-93407500D02*
X147025000Y-93132500D01*
G75*
G02*
X147162500Y-92995000I137500J0D01*
G01*
X148337500Y-92995000D01*
G75*
G02*
X148475000Y-93132500I0J-137500D01*
G01*
X148475000Y-93407500D01*
G75*
G02*
X148337500Y-93545000I-137500J0D01*
G01*
X147162500Y-93545000D01*
G75*
G02*
X147025000Y-93407500I0J137500D01*
G01*
G37*
%TD.AperFunction*%
%TO.P,U10,4*%
%TO.N,Net-(R7-Pad2)*%
%TA.AperFunction,SMDPad,CuDef*%
G36*
G01*
X147025000Y-90867500D02*
X147025000Y-90592500D01*
G75*
G02*
X147162500Y-90455000I137500J0D01*
G01*
X148337500Y-90455000D01*
G75*
G02*
X148475000Y-90592500I0J-137500D01*
G01*
X148475000Y-90867500D01*
G75*
G02*
X148337500Y-91005000I-137500J0D01*
G01*
X147162500Y-91005000D01*
G75*
G02*
X147025000Y-90867500I0J137500D01*
G01*
G37*
%TD.AperFunction*%
%TD*%
%TO.P,U11,1*%
%TO.N,+3V3*%
%TA.AperFunction,SMDPad,CuDef*%
G36*
G01*
X98100000Y-91325000D02*
X98100000Y-91175000D01*
G75*
G02*
X98175000Y-91100000I75000J0D01*
G01*
X99500000Y-91100000D01*
G75*
G02*
X99575000Y-91175000I0J-75000D01*
G01*
X99575000Y-91325000D01*
G75*
G02*
X99500000Y-91400000I-75000J0D01*
G01*
X98175000Y-91400000D01*
G75*
G02*
X98100000Y-91325000I0J75000D01*
G01*
G37*
%TD.AperFunction*%
%TO.P,U11,2*%
%TO.N,Net-(U11-Pad2)*%
%TA.AperFunction,SMDPad,CuDef*%
G36*
G01*
X98100000Y-91825000D02*
X98100000Y-91675000D01*
G75*
G02*
X98175000Y-91600000I75000J0D01*
G01*
X99500000Y-91600000D01*
G75*
G02*
X99575000Y-91675000I0J-75000D01*
G01*
X99575000Y-91825000D01*
G75*
G02*
X99500000Y-91900000I-75000J0D01*
G01*
X98175000Y-91900000D01*
G75*
G02*
X98100000Y-91825000I0J75000D01*
G01*
G37*
%TD.AperFunction*%
%TO.P,U11,3*%
%TO.N,Net-(U11-Pad3)*%
%TA.AperFunction,SMDPad,CuDef*%
G36*
G01*
X98100000Y-92325000D02*
X98100000Y-92175000D01*
G75*
G02*
X98175000Y-92100000I75000J0D01*
G01*
X99500000Y-92100000D01*
G75*
G02*
X99575000Y-92175000I0J-75000D01*
G01*
X99575000Y-92325000D01*
G75*
G02*
X99500000Y-92400000I-75000J0D01*
G01*
X98175000Y-92400000D01*
G75*
G02*
X98100000Y-92325000I0J75000D01*
G01*
G37*
%TD.AperFunction*%
%TO.P,U11,4*%
%TO.N,Net-(U11-Pad4)*%
%TA.AperFunction,SMDPad,CuDef*%
G36*
G01*
X98100000Y-92825000D02*
X98100000Y-92675000D01*
G75*
G02*
X98175000Y-92600000I75000J0D01*
G01*
X99500000Y-92600000D01*
G75*
G02*
X99575000Y-92675000I0J-75000D01*
G01*
X99575000Y-92825000D01*
G75*
G02*
X99500000Y-92900000I-75000J0D01*
G01*
X98175000Y-92900000D01*
G75*
G02*
X98100000Y-92825000I0J75000D01*
G01*
G37*
%TD.AperFunction*%
%TO.P,U11,5*%
%TO.N,Net-(C12-Pad2)*%
%TA.AperFunction,SMDPad,CuDef*%
G36*
G01*
X98100000Y-93325000D02*
X98100000Y-93175000D01*
G75*
G02*
X98175000Y-93100000I75000J0D01*
G01*
X99500000Y-93100000D01*
G75*
G02*
X99575000Y-93175000I0J-75000D01*
G01*
X99575000Y-93325000D01*
G75*
G02*
X99500000Y-93400000I-75000J0D01*
G01*
X98175000Y-93400000D01*
G75*
G02*
X98100000Y-93325000I0J75000D01*
G01*
G37*
%TD.AperFunction*%
%TO.P,U11,6*%
%TO.N,Net-(C13-Pad1)*%
%TA.AperFunction,SMDPad,CuDef*%
G36*
G01*
X98100000Y-93825000D02*
X98100000Y-93675000D01*
G75*
G02*
X98175000Y-93600000I75000J0D01*
G01*
X99500000Y-93600000D01*
G75*
G02*
X99575000Y-93675000I0J-75000D01*
G01*
X99575000Y-93825000D01*
G75*
G02*
X99500000Y-93900000I-75000J0D01*
G01*
X98175000Y-93900000D01*
G75*
G02*
X98100000Y-93825000I0J75000D01*
G01*
G37*
%TD.AperFunction*%
%TO.P,U11,7*%
%TO.N,nRST*%
%TA.AperFunction,SMDPad,CuDef*%
G36*
G01*
X98100000Y-94325000D02*
X98100000Y-94175000D01*
G75*
G02*
X98175000Y-94100000I75000J0D01*
G01*
X99500000Y-94100000D01*
G75*
G02*
X99575000Y-94175000I0J-75000D01*
G01*
X99575000Y-94325000D01*
G75*
G02*
X99500000Y-94400000I-75000J0D01*
G01*
X98175000Y-94400000D01*
G75*
G02*
X98100000Y-94325000I0J75000D01*
G01*
G37*
%TD.AperFunction*%
%TO.P,U11,8*%
%TO.N,GND*%
%TA.AperFunction,SMDPad,CuDef*%
G36*
G01*
X98100000Y-94825000D02*
X98100000Y-94675000D01*
G75*
G02*
X98175000Y-94600000I75000J0D01*
G01*
X99500000Y-94600000D01*
G75*
G02*
X99575000Y-94675000I0J-75000D01*
G01*
X99575000Y-94825000D01*
G75*
G02*
X99500000Y-94900000I-75000J0D01*
G01*
X98175000Y-94900000D01*
G75*
G02*
X98100000Y-94825000I0J75000D01*
G01*
G37*
%TD.AperFunction*%
%TO.P,U11,9*%
%TO.N,+3V3*%
%TA.AperFunction,SMDPad,CuDef*%
G36*
G01*
X98100000Y-95325000D02*
X98100000Y-95175000D01*
G75*
G02*
X98175000Y-95100000I75000J0D01*
G01*
X99500000Y-95100000D01*
G75*
G02*
X99575000Y-95175000I0J-75000D01*
G01*
X99575000Y-95325000D01*
G75*
G02*
X99500000Y-95400000I-75000J0D01*
G01*
X98175000Y-95400000D01*
G75*
G02*
X98100000Y-95325000I0J75000D01*
G01*
G37*
%TD.AperFunction*%
%TO.P,U11,10*%
%TO.N,TEMP0*%
%TA.AperFunction,SMDPad,CuDef*%
G36*
G01*
X98100000Y-95825000D02*
X98100000Y-95675000D01*
G75*
G02*
X98175000Y-95600000I75000J0D01*
G01*
X99500000Y-95600000D01*
G75*
G02*
X99575000Y-95675000I0J-75000D01*
G01*
X99575000Y-95825000D01*
G75*
G02*
X99500000Y-95900000I-75000J0D01*
G01*
X98175000Y-95900000D01*
G75*
G02*
X98100000Y-95825000I0J75000D01*
G01*
G37*
%TD.AperFunction*%
%TO.P,U11,11*%
%TO.N,TEMP1*%
%TA.AperFunction,SMDPad,CuDef*%
G36*
G01*
X98100000Y-96325000D02*
X98100000Y-96175000D01*
G75*
G02*
X98175000Y-96100000I75000J0D01*
G01*
X99500000Y-96100000D01*
G75*
G02*
X99575000Y-96175000I0J-75000D01*
G01*
X99575000Y-96325000D01*
G75*
G02*
X99500000Y-96400000I-75000J0D01*
G01*
X98175000Y-96400000D01*
G75*
G02*
X98100000Y-96325000I0J75000D01*
G01*
G37*
%TD.AperFunction*%
%TO.P,U11,12*%
%TO.N,TEMP2*%
%TA.AperFunction,SMDPad,CuDef*%
G36*
G01*
X98100000Y-96825000D02*
X98100000Y-96675000D01*
G75*
G02*
X98175000Y-96600000I75000J0D01*
G01*
X99500000Y-96600000D01*
G75*
G02*
X99575000Y-96675000I0J-75000D01*
G01*
X99575000Y-96825000D01*
G75*
G02*
X99500000Y-96900000I-75000J0D01*
G01*
X98175000Y-96900000D01*
G75*
G02*
X98100000Y-96825000I0J75000D01*
G01*
G37*
%TD.AperFunction*%
%TO.P,U11,13*%
%TO.N,TEMP3*%
%TA.AperFunction,SMDPad,CuDef*%
G36*
G01*
X100100000Y-98825000D02*
X100100000Y-97500000D01*
G75*
G02*
X100175000Y-97425000I75000J0D01*
G01*
X100325000Y-97425000D01*
G75*
G02*
X100400000Y-97500000I0J-75000D01*
G01*
X100400000Y-98825000D01*
G75*
G02*
X100325000Y-98900000I-75000J0D01*
G01*
X100175000Y-98900000D01*
G75*
G02*
X100100000Y-98825000I0J75000D01*
G01*
G37*
%TD.AperFunction*%
%TO.P,U11,14*%
%TO.N,LCD_D4*%
%TA.AperFunction,SMDPad,CuDef*%
G36*
G01*
X100600000Y-98825000D02*
X100600000Y-97500000D01*
G75*
G02*
X100675000Y-97425000I75000J0D01*
G01*
X100825000Y-97425000D01*
G75*
G02*
X100900000Y-97500000I0J-75000D01*
G01*
X100900000Y-98825000D01*
G75*
G02*
X100825000Y-98900000I-75000J0D01*
G01*
X100675000Y-98900000D01*
G75*
G02*
X100600000Y-98825000I0J75000D01*
G01*
G37*
%TD.AperFunction*%
%TO.P,U11,15*%
%TO.N,LCD_D5*%
%TA.AperFunction,SMDPad,CuDef*%
G36*
G01*
X101100000Y-98825000D02*
X101100000Y-97500000D01*
G75*
G02*
X101175000Y-97425000I75000J0D01*
G01*
X101325000Y-97425000D01*
G75*
G02*
X101400000Y-97500000I0J-75000D01*
G01*
X101400000Y-98825000D01*
G75*
G02*
X101325000Y-98900000I-75000J0D01*
G01*
X101175000Y-98900000D01*
G75*
G02*
X101100000Y-98825000I0J75000D01*
G01*
G37*
%TD.AperFunction*%
%TO.P,U11,16*%
%TO.N,LCD_D6*%
%TA.AperFunction,SMDPad,CuDef*%
G36*
G01*
X101600000Y-98825000D02*
X101600000Y-97500000D01*
G75*
G02*
X101675000Y-97425000I75000J0D01*
G01*
X101825000Y-97425000D01*
G75*
G02*
X101900000Y-97500000I0J-75000D01*
G01*
X101900000Y-98825000D01*
G75*
G02*
X101825000Y-98900000I-75000J0D01*
G01*
X101675000Y-98900000D01*
G75*
G02*
X101600000Y-98825000I0J75000D01*
G01*
G37*
%TD.AperFunction*%
%TO.P,U11,17*%
%TO.N,LCD_D7*%
%TA.AperFunction,SMDPad,CuDef*%
G36*
G01*
X102100000Y-98825000D02*
X102100000Y-97500000D01*
G75*
G02*
X102175000Y-97425000I75000J0D01*
G01*
X102325000Y-97425000D01*
G75*
G02*
X102400000Y-97500000I0J-75000D01*
G01*
X102400000Y-98825000D01*
G75*
G02*
X102325000Y-98900000I-75000J0D01*
G01*
X102175000Y-98900000D01*
G75*
G02*
X102100000Y-98825000I0J75000D01*
G01*
G37*
%TD.AperFunction*%
%TO.P,U11,18*%
%TO.N,LCD_RS*%
%TA.AperFunction,SMDPad,CuDef*%
G36*
G01*
X102600000Y-98825000D02*
X102600000Y-97500000D01*
G75*
G02*
X102675000Y-97425000I75000J0D01*
G01*
X102825000Y-97425000D01*
G75*
G02*
X102900000Y-97500000I0J-75000D01*
G01*
X102900000Y-98825000D01*
G75*
G02*
X102825000Y-98900000I-75000J0D01*
G01*
X102675000Y-98900000D01*
G75*
G02*
X102600000Y-98825000I0J75000D01*
G01*
G37*
%TD.AperFunction*%
%TO.P,U11,19*%
%TO.N,LCD_EN*%
%TA.AperFunction,SMDPad,CuDef*%
G36*
G01*
X103100000Y-98825000D02*
X103100000Y-97500000D01*
G75*
G02*
X103175000Y-97425000I75000J0D01*
G01*
X103325000Y-97425000D01*
G75*
G02*
X103400000Y-97500000I0J-75000D01*
G01*
X103400000Y-98825000D01*
G75*
G02*
X103325000Y-98900000I-75000J0D01*
G01*
X103175000Y-98900000D01*
G75*
G02*
X103100000Y-98825000I0J75000D01*
G01*
G37*
%TD.AperFunction*%
%TO.P,U11,20*%
%TO.N,Net-(U11-Pad20)*%
%TA.AperFunction,SMDPad,CuDef*%
G36*
G01*
X103600000Y-98825000D02*
X103600000Y-97500000D01*
G75*
G02*
X103675000Y-97425000I75000J0D01*
G01*
X103825000Y-97425000D01*
G75*
G02*
X103900000Y-97500000I0J-75000D01*
G01*
X103900000Y-98825000D01*
G75*
G02*
X103825000Y-98900000I-75000J0D01*
G01*
X103675000Y-98900000D01*
G75*
G02*
X103600000Y-98825000I0J75000D01*
G01*
G37*
%TD.AperFunction*%
%TO.P,U11,21*%
%TO.N,I2C_SCL*%
%TA.AperFunction,SMDPad,CuDef*%
G36*
G01*
X104100000Y-98825000D02*
X104100000Y-97500000D01*
G75*
G02*
X104175000Y-97425000I75000J0D01*
G01*
X104325000Y-97425000D01*
G75*
G02*
X104400000Y-97500000I0J-75000D01*
G01*
X104400000Y-98825000D01*
G75*
G02*
X104325000Y-98900000I-75000J0D01*
G01*
X104175000Y-98900000D01*
G75*
G02*
X104100000Y-98825000I0J75000D01*
G01*
G37*
%TD.AperFunction*%
%TO.P,U11,22*%
%TO.N,I2C_SDA*%
%TA.AperFunction,SMDPad,CuDef*%
G36*
G01*
X104600000Y-98825000D02*
X104600000Y-97500000D01*
G75*
G02*
X104675000Y-97425000I75000J0D01*
G01*
X104825000Y-97425000D01*
G75*
G02*
X104900000Y-97500000I0J-75000D01*
G01*
X104900000Y-98825000D01*
G75*
G02*
X104825000Y-98900000I-75000J0D01*
G01*
X104675000Y-98900000D01*
G75*
G02*
X104600000Y-98825000I0J75000D01*
G01*
G37*
%TD.AperFunction*%
%TO.P,U11,23*%
%TO.N,GND*%
%TA.AperFunction,SMDPad,CuDef*%
G36*
G01*
X105100000Y-98825000D02*
X105100000Y-97500000D01*
G75*
G02*
X105175000Y-97425000I75000J0D01*
G01*
X105325000Y-97425000D01*
G75*
G02*
X105400000Y-97500000I0J-75000D01*
G01*
X105400000Y-98825000D01*
G75*
G02*
X105325000Y-98900000I-75000J0D01*
G01*
X105175000Y-98900000D01*
G75*
G02*
X105100000Y-98825000I0J75000D01*
G01*
G37*
%TD.AperFunction*%
%TO.P,U11,24*%
%TO.N,+3V3*%
%TA.AperFunction,SMDPad,CuDef*%
G36*
G01*
X105600000Y-98825000D02*
X105600000Y-97500000D01*
G75*
G02*
X105675000Y-97425000I75000J0D01*
G01*
X105825000Y-97425000D01*
G75*
G02*
X105900000Y-97500000I0J-75000D01*
G01*
X105900000Y-98825000D01*
G75*
G02*
X105825000Y-98900000I-75000J0D01*
G01*
X105675000Y-98900000D01*
G75*
G02*
X105600000Y-98825000I0J75000D01*
G01*
G37*
%TD.AperFunction*%
%TO.P,U11,25*%
%TO.N,Net-(U11-Pad25)*%
%TA.AperFunction,SMDPad,CuDef*%
G36*
G01*
X106425000Y-96825000D02*
X106425000Y-96675000D01*
G75*
G02*
X106500000Y-96600000I75000J0D01*
G01*
X107825000Y-96600000D01*
G75*
G02*
X107900000Y-96675000I0J-75000D01*
G01*
X107900000Y-96825000D01*
G75*
G02*
X107825000Y-96900000I-75000J0D01*
G01*
X106500000Y-96900000D01*
G75*
G02*
X106425000Y-96825000I0J75000D01*
G01*
G37*
%TD.AperFunction*%
%TO.P,U11,26*%
%TO.N,Net-(U11-Pad26)*%
%TA.AperFunction,SMDPad,CuDef*%
G36*
G01*
X106425000Y-96325000D02*
X106425000Y-96175000D01*
G75*
G02*
X106500000Y-96100000I75000J0D01*
G01*
X107825000Y-96100000D01*
G75*
G02*
X107900000Y-96175000I0J-75000D01*
G01*
X107900000Y-96325000D01*
G75*
G02*
X107825000Y-96400000I-75000J0D01*
G01*
X106500000Y-96400000D01*
G75*
G02*
X106425000Y-96325000I0J75000D01*
G01*
G37*
%TD.AperFunction*%
%TO.P,U11,27*%
%TO.N,Net-(U11-Pad27)*%
%TA.AperFunction,SMDPad,CuDef*%
G36*
G01*
X106425000Y-95825000D02*
X106425000Y-95675000D01*
G75*
G02*
X106500000Y-95600000I75000J0D01*
G01*
X107825000Y-95600000D01*
G75*
G02*
X107900000Y-95675000I0J-75000D01*
G01*
X107900000Y-95825000D01*
G75*
G02*
X107825000Y-95900000I-75000J0D01*
G01*
X106500000Y-95900000D01*
G75*
G02*
X106425000Y-95825000I0J75000D01*
G01*
G37*
%TD.AperFunction*%
%TO.P,U11,28*%
%TO.N,Net-(U11-Pad28)*%
%TA.AperFunction,SMDPad,CuDef*%
G36*
G01*
X106425000Y-95325000D02*
X106425000Y-95175000D01*
G75*
G02*
X106500000Y-95100000I75000J0D01*
G01*
X107825000Y-95100000D01*
G75*
G02*
X107900000Y-95175000I0J-75000D01*
G01*
X107900000Y-95325000D01*
G75*
G02*
X107825000Y-95400000I-75000J0D01*
G01*
X106500000Y-95400000D01*
G75*
G02*
X106425000Y-95325000I0J75000D01*
G01*
G37*
%TD.AperFunction*%
%TO.P,U11,29*%
%TO.N,Net-(D2-Pad2)*%
%TA.AperFunction,SMDPad,CuDef*%
G36*
G01*
X106425000Y-94825000D02*
X106425000Y-94675000D01*
G75*
G02*
X106500000Y-94600000I75000J0D01*
G01*
X107825000Y-94600000D01*
G75*
G02*
X107900000Y-94675000I0J-75000D01*
G01*
X107900000Y-94825000D01*
G75*
G02*
X107825000Y-94900000I-75000J0D01*
G01*
X106500000Y-94900000D01*
G75*
G02*
X106425000Y-94825000I0J75000D01*
G01*
G37*
%TD.AperFunction*%
%TO.P,U11,30*%
%TO.N,Net-(U11-Pad30)*%
%TA.AperFunction,SMDPad,CuDef*%
G36*
G01*
X106425000Y-94325000D02*
X106425000Y-94175000D01*
G75*
G02*
X106500000Y-94100000I75000J0D01*
G01*
X107825000Y-94100000D01*
G75*
G02*
X107900000Y-94175000I0J-75000D01*
G01*
X107900000Y-94325000D01*
G75*
G02*
X107825000Y-94400000I-75000J0D01*
G01*
X106500000Y-94400000D01*
G75*
G02*
X106425000Y-94325000I0J75000D01*
G01*
G37*
%TD.AperFunction*%
%TO.P,U11,31*%
%TO.N,Net-(U11-Pad31)*%
%TA.AperFunction,SMDPad,CuDef*%
G36*
G01*
X106425000Y-93825000D02*
X106425000Y-93675000D01*
G75*
G02*
X106500000Y-93600000I75000J0D01*
G01*
X107825000Y-93600000D01*
G75*
G02*
X107900000Y-93675000I0J-75000D01*
G01*
X107900000Y-93825000D01*
G75*
G02*
X107825000Y-93900000I-75000J0D01*
G01*
X106500000Y-93900000D01*
G75*
G02*
X106425000Y-93825000I0J75000D01*
G01*
G37*
%TD.AperFunction*%
%TO.P,U11,32*%
%TO.N,USB_D-*%
%TA.AperFunction,SMDPad,CuDef*%
G36*
G01*
X106425000Y-93325000D02*
X106425000Y-93175000D01*
G75*
G02*
X106500000Y-93100000I75000J0D01*
G01*
X107825000Y-93100000D01*
G75*
G02*
X107900000Y-93175000I0J-75000D01*
G01*
X107900000Y-93325000D01*
G75*
G02*
X107825000Y-93400000I-75000J0D01*
G01*
X106500000Y-93400000D01*
G75*
G02*
X106425000Y-93325000I0J75000D01*
G01*
G37*
%TD.AperFunction*%
%TO.P,U11,33*%
%TO.N,USB_D+*%
%TA.AperFunction,SMDPad,CuDef*%
G36*
G01*
X106425000Y-92825000D02*
X106425000Y-92675000D01*
G75*
G02*
X106500000Y-92600000I75000J0D01*
G01*
X107825000Y-92600000D01*
G75*
G02*
X107900000Y-92675000I0J-75000D01*
G01*
X107900000Y-92825000D01*
G75*
G02*
X107825000Y-92900000I-75000J0D01*
G01*
X106500000Y-92900000D01*
G75*
G02*
X106425000Y-92825000I0J75000D01*
G01*
G37*
%TD.AperFunction*%
%TO.P,U11,34*%
%TO.N,JTAG_MS*%
%TA.AperFunction,SMDPad,CuDef*%
G36*
G01*
X106425000Y-92325000D02*
X106425000Y-92175000D01*
G75*
G02*
X106500000Y-92100000I75000J0D01*
G01*
X107825000Y-92100000D01*
G75*
G02*
X107900000Y-92175000I0J-75000D01*
G01*
X107900000Y-92325000D01*
G75*
G02*
X107825000Y-92400000I-75000J0D01*
G01*
X106500000Y-92400000D01*
G75*
G02*
X106425000Y-92325000I0J75000D01*
G01*
G37*
%TD.AperFunction*%
%TO.P,U11,35*%
%TO.N,GND*%
%TA.AperFunction,SMDPad,CuDef*%
G36*
G01*
X106425000Y-91825000D02*
X106425000Y-91675000D01*
G75*
G02*
X106500000Y-91600000I75000J0D01*
G01*
X107825000Y-91600000D01*
G75*
G02*
X107900000Y-91675000I0J-75000D01*
G01*
X107900000Y-91825000D01*
G75*
G02*
X107825000Y-91900000I-75000J0D01*
G01*
X106500000Y-91900000D01*
G75*
G02*
X106425000Y-91825000I0J75000D01*
G01*
G37*
%TD.AperFunction*%
%TO.P,U11,36*%
%TO.N,+3V3*%
%TA.AperFunction,SMDPad,CuDef*%
G36*
G01*
X106425000Y-91325000D02*
X106425000Y-91175000D01*
G75*
G02*
X106500000Y-91100000I75000J0D01*
G01*
X107825000Y-91100000D01*
G75*
G02*
X107900000Y-91175000I0J-75000D01*
G01*
X107900000Y-91325000D01*
G75*
G02*
X107825000Y-91400000I-75000J0D01*
G01*
X106500000Y-91400000D01*
G75*
G02*
X106425000Y-91325000I0J75000D01*
G01*
G37*
%TD.AperFunction*%
%TO.P,U11,37*%
%TO.N,JTAG_CLK*%
%TA.AperFunction,SMDPad,CuDef*%
G36*
G01*
X105600000Y-90500000D02*
X105600000Y-89175000D01*
G75*
G02*
X105675000Y-89100000I75000J0D01*
G01*
X105825000Y-89100000D01*
G75*
G02*
X105900000Y-89175000I0J-75000D01*
G01*
X105900000Y-90500000D01*
G75*
G02*
X105825000Y-90575000I-75000J0D01*
G01*
X105675000Y-90575000D01*
G75*
G02*
X105600000Y-90500000I0J75000D01*
G01*
G37*
%TD.AperFunction*%
%TO.P,U11,38*%
%TO.N,JTAG_DI*%
%TA.AperFunction,SMDPad,CuDef*%
G36*
G01*
X105100000Y-90500000D02*
X105100000Y-89175000D01*
G75*
G02*
X105175000Y-89100000I75000J0D01*
G01*
X105325000Y-89100000D01*
G75*
G02*
X105400000Y-89175000I0J-75000D01*
G01*
X105400000Y-90500000D01*
G75*
G02*
X105325000Y-90575000I-75000J0D01*
G01*
X105175000Y-90575000D01*
G75*
G02*
X105100000Y-90500000I0J75000D01*
G01*
G37*
%TD.AperFunction*%
%TO.P,U11,39*%
%TO.N,JTAG_DO*%
%TA.AperFunction,SMDPad,CuDef*%
G36*
G01*
X104600000Y-90500000D02*
X104600000Y-89175000D01*
G75*
G02*
X104675000Y-89100000I75000J0D01*
G01*
X104825000Y-89100000D01*
G75*
G02*
X104900000Y-89175000I0J-75000D01*
G01*
X104900000Y-90500000D01*
G75*
G02*
X104825000Y-90575000I-75000J0D01*
G01*
X104675000Y-90575000D01*
G75*
G02*
X104600000Y-90500000I0J75000D01*
G01*
G37*
%TD.AperFunction*%
%TO.P,U11,40*%
%TO.N,HB_A1*%
%TA.AperFunction,SMDPad,CuDef*%
G36*
G01*
X104100000Y-90500000D02*
X104100000Y-89175000D01*
G75*
G02*
X104175000Y-89100000I75000J0D01*
G01*
X104325000Y-89100000D01*
G75*
G02*
X104400000Y-89175000I0J-75000D01*
G01*
X104400000Y-90500000D01*
G75*
G02*
X104325000Y-90575000I-75000J0D01*
G01*
X104175000Y-90575000D01*
G75*
G02*
X104100000Y-90500000I0J75000D01*
G01*
G37*
%TD.AperFunction*%
%TO.P,U11,41*%
%TO.N,HB_A2*%
%TA.AperFunction,SMDPad,CuDef*%
G36*
G01*
X103600000Y-90500000D02*
X103600000Y-89175000D01*
G75*
G02*
X103675000Y-89100000I75000J0D01*
G01*
X103825000Y-89100000D01*
G75*
G02*
X103900000Y-89175000I0J-75000D01*
G01*
X103900000Y-90500000D01*
G75*
G02*
X103825000Y-90575000I-75000J0D01*
G01*
X103675000Y-90575000D01*
G75*
G02*
X103600000Y-90500000I0J75000D01*
G01*
G37*
%TD.AperFunction*%
%TO.P,U11,42*%
%TO.N,HB_B1*%
%TA.AperFunction,SMDPad,CuDef*%
G36*
G01*
X103100000Y-90500000D02*
X103100000Y-89175000D01*
G75*
G02*
X103175000Y-89100000I75000J0D01*
G01*
X103325000Y-89100000D01*
G75*
G02*
X103400000Y-89175000I0J-75000D01*
G01*
X103400000Y-90500000D01*
G75*
G02*
X103325000Y-90575000I-75000J0D01*
G01*
X103175000Y-90575000D01*
G75*
G02*
X103100000Y-90500000I0J75000D01*
G01*
G37*
%TD.AperFunction*%
%TO.P,U11,43*%
%TO.N,HB_B2*%
%TA.AperFunction,SMDPad,CuDef*%
G36*
G01*
X102600000Y-90500000D02*
X102600000Y-89175000D01*
G75*
G02*
X102675000Y-89100000I75000J0D01*
G01*
X102825000Y-89100000D01*
G75*
G02*
X102900000Y-89175000I0J-75000D01*
G01*
X102900000Y-90500000D01*
G75*
G02*
X102825000Y-90575000I-75000J0D01*
G01*
X102675000Y-90575000D01*
G75*
G02*
X102600000Y-90500000I0J75000D01*
G01*
G37*
%TD.AperFunction*%
%TO.P,U11,44*%
%TO.N,BOOT*%
%TA.AperFunction,SMDPad,CuDef*%
G36*
G01*
X102100000Y-90500000D02*
X102100000Y-89175000D01*
G75*
G02*
X102175000Y-89100000I75000J0D01*
G01*
X102325000Y-89100000D01*
G75*
G02*
X102400000Y-89175000I0J-75000D01*
G01*
X102400000Y-90500000D01*
G75*
G02*
X102325000Y-90575000I-75000J0D01*
G01*
X102175000Y-90575000D01*
G75*
G02*
X102100000Y-90500000I0J75000D01*
G01*
G37*
%TD.AperFunction*%
%TO.P,U11,45*%
%TO.N,Net-(U11-Pad45)*%
%TA.AperFunction,SMDPad,CuDef*%
G36*
G01*
X101600000Y-90500000D02*
X101600000Y-89175000D01*
G75*
G02*
X101675000Y-89100000I75000J0D01*
G01*
X101825000Y-89100000D01*
G75*
G02*
X101900000Y-89175000I0J-75000D01*
G01*
X101900000Y-90500000D01*
G75*
G02*
X101825000Y-90575000I-75000J0D01*
G01*
X101675000Y-90575000D01*
G75*
G02*
X101600000Y-90500000I0J75000D01*
G01*
G37*
%TD.AperFunction*%
%TO.P,U11,46*%
%TO.N,Net-(U11-Pad46)*%
%TA.AperFunction,SMDPad,CuDef*%
G36*
G01*
X101100000Y-90500000D02*
X101100000Y-89175000D01*
G75*
G02*
X101175000Y-89100000I75000J0D01*
G01*
X101325000Y-89100000D01*
G75*
G02*
X101400000Y-89175000I0J-75000D01*
G01*
X101400000Y-90500000D01*
G75*
G02*
X101325000Y-90575000I-75000J0D01*
G01*
X101175000Y-90575000D01*
G75*
G02*
X101100000Y-90500000I0J75000D01*
G01*
G37*
%TD.AperFunction*%
%TO.P,U11,47*%
%TO.N,GND*%
%TA.AperFunction,SMDPad,CuDef*%
G36*
G01*
X100600000Y-90500000D02*
X100600000Y-89175000D01*
G75*
G02*
X100675000Y-89100000I75000J0D01*
G01*
X100825000Y-89100000D01*
G75*
G02*
X100900000Y-89175000I0J-75000D01*
G01*
X100900000Y-90500000D01*
G75*
G02*
X100825000Y-90575000I-75000J0D01*
G01*
X100675000Y-90575000D01*
G75*
G02*
X100600000Y-90500000I0J75000D01*
G01*
G37*
%TD.AperFunction*%
%TO.P,U11,48*%
%TO.N,+3V3*%
%TA.AperFunction,SMDPad,CuDef*%
G36*
G01*
X100100000Y-90500000D02*
X100100000Y-89175000D01*
G75*
G02*
X100175000Y-89100000I75000J0D01*
G01*
X100325000Y-89100000D01*
G75*
G02*
X100400000Y-89175000I0J-75000D01*
G01*
X100400000Y-90500000D01*
G75*
G02*
X100325000Y-90575000I-75000J0D01*
G01*
X100175000Y-90575000D01*
G75*
G02*
X100100000Y-90500000I0J75000D01*
G01*
G37*
%TD.AperFunction*%
%TD*%
D26*
%TO.P,Y1,1*%
%TO.N,Net-(C12-Pad2)*%
X92150000Y-91900000D03*
%TO.P,Y1,2*%
%TO.N,GND*%
X92150000Y-94100000D03*
%TO.P,Y1,3*%
%TO.N,Net-(C13-Pad1)*%
X93850000Y-94100000D03*
%TO.P,Y1,4*%
%TO.N,GND*%
X93850000Y-91900000D03*
%TD*%
D20*
%TO.P,J4,1*%
%TO.N,GND*%
X147000000Y-61000000D03*
D21*
%TO.P,J4,2*%
%TO.N,+3V3*%
X144460000Y-61000000D03*
%TO.P,J4,3*%
%TO.N,Net-(J4-Pad3)*%
X141920000Y-61000000D03*
%TO.P,J4,4*%
%TO.N,LCD_RS*%
X139380000Y-61000000D03*
%TO.P,J4,5*%
%TO.N,GND*%
X136840000Y-61000000D03*
%TO.P,J4,6*%
%TO.N,LCD_EN*%
X134300000Y-61000000D03*
%TO.P,J4,7*%
%TO.N,GND*%
X131760000Y-61000000D03*
%TO.P,J4,8*%
X129220000Y-61000000D03*
%TO.P,J4,9*%
X126680000Y-61000000D03*
%TO.P,J4,10*%
X124140000Y-61000000D03*
%TO.P,J4,11*%
%TO.N,LCD_D4*%
X121600000Y-61000000D03*
%TO.P,J4,12*%
%TO.N,LCD_D5*%
X119060000Y-61000000D03*
%TO.P,J4,13*%
%TO.N,LCD_D6*%
X116520000Y-61000000D03*
%TO.P,J4,14*%
%TO.N,LCD_D7*%
X113980000Y-61000000D03*
%TO.P,J4,15*%
%TO.N,+3V3*%
X111440000Y-61000000D03*
%TO.P,J4,16*%
%TO.N,GND*%
X108900000Y-61000000D03*
%TD*%
D27*
%TO.N,+12V*%
X159500000Y-60000000D03*
X159500000Y-60750000D03*
X159500000Y-61500000D03*
X158750000Y-60000000D03*
X158750000Y-60750000D03*
X158750000Y-61500000D03*
X158000000Y-60000000D03*
X158000000Y-60750000D03*
X158000000Y-61500000D03*
X179500000Y-59750000D03*
X180250000Y-59750000D03*
X181000000Y-59750000D03*
X181750000Y-59750000D03*
X181750000Y-60500000D03*
X181750000Y-61250000D03*
X181750000Y-62000000D03*
X181000000Y-62000000D03*
X181000000Y-61250000D03*
X181000000Y-60500000D03*
X180250000Y-60500000D03*
X179500000Y-60500000D03*
X179500000Y-61250000D03*
X180250000Y-61250000D03*
X180250000Y-62000000D03*
X179500000Y-62000000D03*
X181750000Y-70750000D03*
X181750000Y-71500000D03*
X181750000Y-72250000D03*
X181750000Y-73000000D03*
X181000000Y-73000000D03*
X180250000Y-73000000D03*
X179500000Y-73000000D03*
X179500000Y-72250000D03*
X179500000Y-71500000D03*
X179500000Y-70750000D03*
X180250000Y-70750000D03*
X181000000Y-70750000D03*
X181000000Y-71500000D03*
X181000000Y-72250000D03*
X180250000Y-72250000D03*
X180250000Y-71500000D03*
X179500000Y-84750000D03*
X180250000Y-84750000D03*
X181000000Y-84750000D03*
X181750000Y-84750000D03*
X181750000Y-85500000D03*
X181750000Y-86250000D03*
X181750000Y-87000000D03*
X181000000Y-87000000D03*
X181000000Y-86250000D03*
X181000000Y-85500000D03*
X180250000Y-85500000D03*
X180250000Y-86250000D03*
X180250000Y-87000000D03*
X179500000Y-87000000D03*
X179500000Y-86250000D03*
X179500000Y-85500000D03*
X181750000Y-95750000D03*
X181750000Y-96500000D03*
X181750000Y-97250000D03*
X181750000Y-98000000D03*
X181000000Y-98000000D03*
X180250000Y-98000000D03*
X179500000Y-98000000D03*
X179500000Y-97250000D03*
X179500000Y-96500000D03*
X179500000Y-95750000D03*
X180250000Y-95750000D03*
X181000000Y-95750000D03*
X181000000Y-96500000D03*
X181000000Y-97250000D03*
X180250000Y-97250000D03*
X180250000Y-96500000D03*
X154500000Y-79000000D03*
X154500000Y-85000000D03*
X154500000Y-91000000D03*
X154500000Y-97000000D03*
%TO.N,GND*%
X167250000Y-79000000D03*
X105500000Y-100500000D03*
X95250000Y-95000000D03*
X97500000Y-89000000D03*
X108500000Y-90750000D03*
X109250000Y-94250000D03*
X112750000Y-95250000D03*
X100250000Y-86250000D03*
X94750000Y-90000000D03*
X91250000Y-96000000D03*
X100750000Y-91000000D03*
X165500000Y-63250000D03*
X165500000Y-62250000D03*
X166500000Y-62250000D03*
X166500000Y-63250000D03*
X166500000Y-64250000D03*
X166500000Y-65250000D03*
X166500000Y-66250000D03*
X165500000Y-71500000D03*
X166500000Y-71500000D03*
X166500000Y-70500000D03*
X166500000Y-69500000D03*
X159500000Y-65250000D03*
X159500000Y-66000000D03*
X158750000Y-65250000D03*
X158750000Y-66000000D03*
X158000000Y-65250000D03*
X158000000Y-66000000D03*
X159500000Y-64500000D03*
X158750000Y-64500000D03*
X158000000Y-64500000D03*
X159500000Y-75750000D03*
X159500000Y-74750000D03*
X165500000Y-70500000D03*
X158750000Y-75750000D03*
X158750000Y-74750000D03*
X158000000Y-74750000D03*
X158000000Y-75750000D03*
X181750000Y-56250000D03*
X181750000Y-57000000D03*
X181750000Y-57750000D03*
X181750000Y-58500000D03*
X181000000Y-56250000D03*
X181000000Y-57000000D03*
X181000000Y-57750000D03*
X181000000Y-58500000D03*
X180250000Y-56250000D03*
X180250000Y-57000000D03*
X180250000Y-57750000D03*
X180250000Y-58500000D03*
X179500000Y-58500000D03*
X179500000Y-57750000D03*
X179500000Y-57000000D03*
X179500000Y-56250000D03*
X181750000Y-67250000D03*
X181750000Y-68000000D03*
X181750000Y-68750000D03*
X181750000Y-69500000D03*
X181000000Y-69500000D03*
X180250000Y-69500000D03*
X179500000Y-69500000D03*
X179500000Y-68750000D03*
X179500000Y-68000000D03*
X179500000Y-67250000D03*
X180250000Y-67250000D03*
X181000000Y-67250000D03*
X181000000Y-68000000D03*
X181000000Y-68750000D03*
X180250000Y-68750000D03*
X180250000Y-68000000D03*
X181750000Y-81250000D03*
X181750000Y-82000000D03*
X181750000Y-82750000D03*
X181750000Y-83500000D03*
X181000000Y-83500000D03*
X180250000Y-83500000D03*
X179500000Y-83500000D03*
X179500000Y-82750000D03*
X179500000Y-82000000D03*
X179500000Y-81250000D03*
X180250000Y-81250000D03*
X181000000Y-81250000D03*
X181000000Y-82000000D03*
X181000000Y-82750000D03*
X180250000Y-82750000D03*
X180250000Y-82000000D03*
X181750000Y-92250000D03*
X181750000Y-93000000D03*
X181750000Y-93750000D03*
X181750000Y-94500000D03*
X181000000Y-94500000D03*
X181000000Y-93750000D03*
X181000000Y-93000000D03*
X181000000Y-92250000D03*
X180250000Y-92250000D03*
X179500000Y-92250000D03*
X179500000Y-93000000D03*
X180250000Y-93000000D03*
X180250000Y-93750000D03*
X179500000Y-93750000D03*
X179500000Y-94500000D03*
X180250000Y-94500000D03*
X149000000Y-93250000D03*
X149000000Y-87250000D03*
X149000000Y-81250000D03*
X149000000Y-99250000D03*
X141000000Y-99250000D03*
X141000000Y-93250000D03*
X141000000Y-87250000D03*
X141000000Y-81250000D03*
X93750000Y-51750000D03*
%TO.N,+3V3*%
X107500000Y-89250000D03*
X106500000Y-100500000D03*
X104500000Y-127250000D03*
X107000000Y-127250000D03*
X95250000Y-96000000D03*
X98500000Y-89000000D03*
X102250000Y-88000000D03*
X109250000Y-93250000D03*
X159500000Y-72500000D03*
X159500000Y-73500000D03*
X158750000Y-73500000D03*
X158750000Y-72500000D03*
X158000000Y-72500000D03*
X158000000Y-73500000D03*
%TO.N,nRST*%
X100250000Y-94250000D03*
%TO.N,LCD_RS*%
X112000000Y-103250000D03*
X136250000Y-101500000D03*
%TO.N,LCD_EN*%
X112750000Y-102500000D03*
X134250000Y-100750000D03*
%TO.N,I2C_SCL*%
X104250000Y-101250000D03*
%TO.N,I2C_SDA*%
X105500000Y-101500000D03*
%TO.N,HB_A1*%
X104750000Y-84125000D03*
X138500000Y-85000000D03*
%TO.N,HB_A2*%
X103750000Y-83500000D03*
X138500000Y-79000000D03*
%TO.N,HB_B1*%
X104000000Y-92750000D03*
X138500000Y-97000000D03*
%TO.N,HB_B2*%
X103250000Y-92000000D03*
X138500000Y-91000000D03*
%TD*%
D28*
%TO.N,+12V*%
X153400000Y-79000000D02*
X154500000Y-79000000D01*
X153400000Y-85000000D02*
X154500000Y-85000000D01*
X153400000Y-91000000D02*
X154500000Y-91000000D01*
X153400000Y-97000000D02*
X154500000Y-97000000D01*
D29*
%TO.N,GND*%
X101500000Y-87015000D02*
X100500000Y-87015000D01*
X100062500Y-86062500D02*
X100250000Y-86250000D01*
X99000000Y-86062500D02*
X100062500Y-86062500D01*
X97515000Y-89015000D02*
X97500000Y-89000000D01*
X97515000Y-90000000D02*
X97515000Y-89015000D01*
X100750000Y-89837500D02*
X100750000Y-91000000D01*
X108485000Y-90735000D02*
X108500000Y-90750000D01*
X108485000Y-90000000D02*
X108485000Y-90735000D01*
X109687500Y-94687500D02*
X109250000Y-94250000D01*
X110500000Y-94687500D02*
X109687500Y-94687500D01*
X107162500Y-91750000D02*
X108250000Y-91750000D01*
X108500000Y-91500000D02*
X108500000Y-90750000D01*
X108250000Y-91750000D02*
X108500000Y-91500000D01*
X93787500Y-91837500D02*
X93850000Y-91900000D01*
X93787500Y-90000000D02*
X93787500Y-91837500D01*
X93787500Y-90000000D02*
X94750000Y-90000000D01*
X92212500Y-96000000D02*
X91250000Y-96000000D01*
X92212500Y-94162500D02*
X92150000Y-94100000D01*
X92212500Y-96000000D02*
X92212500Y-94162500D01*
X95265000Y-95015000D02*
X95250000Y-95000000D01*
X96000000Y-95015000D02*
X95265000Y-95015000D01*
X96000000Y-95015000D02*
X96735000Y-95015000D01*
X97000000Y-94750000D02*
X98837500Y-94750000D01*
X96735000Y-95015000D02*
X97000000Y-94750000D01*
X105250000Y-99485000D02*
X105250000Y-98162500D01*
X105515000Y-99750000D02*
X105250000Y-99485000D01*
X105515000Y-100485000D02*
X105500000Y-100500000D01*
X105515000Y-99750000D02*
X105515000Y-100485000D01*
X100500000Y-86500000D02*
X100250000Y-86250000D01*
X100500000Y-87015000D02*
X100500000Y-86500000D01*
X112750000Y-96015000D02*
X112750000Y-95250000D01*
X166485000Y-79000000D02*
X167250000Y-79000000D01*
D28*
X147750000Y-93270000D02*
X148980000Y-93270000D01*
X148980000Y-93270000D02*
X149000000Y-93250000D01*
X147750000Y-87270000D02*
X148980000Y-87270000D01*
X148980000Y-87270000D02*
X149000000Y-87250000D01*
X147750000Y-81270000D02*
X148980000Y-81270000D01*
X148980000Y-81270000D02*
X149000000Y-81250000D01*
X147750000Y-99270000D02*
X148980000Y-99270000D01*
X148980000Y-99270000D02*
X149000000Y-99250000D01*
X142250000Y-99270000D02*
X141020000Y-99270000D01*
X141020000Y-99270000D02*
X141000000Y-99250000D01*
X142250000Y-93270000D02*
X141020000Y-93270000D01*
X141020000Y-93270000D02*
X141000000Y-93250000D01*
X142250000Y-87270000D02*
X141020000Y-87270000D01*
X141020000Y-87270000D02*
X141000000Y-87250000D01*
X142250000Y-81270000D02*
X141020000Y-81270000D01*
X141020000Y-81270000D02*
X141000000Y-81250000D01*
D29*
X93700000Y-50450000D02*
X93700000Y-51700000D01*
X93700000Y-51700000D02*
X93750000Y-51750000D01*
D30*
%TO.N,+5V*%
X164062500Y-64302498D02*
X164062500Y-68000000D01*
X162760002Y-63000000D02*
X164062500Y-64302498D01*
X161150000Y-63000000D02*
X162760002Y-63000000D01*
X161150000Y-70700000D02*
X162800000Y-70700000D01*
X164062500Y-69437500D02*
X164062500Y-68000000D01*
X162800000Y-70700000D02*
X164062500Y-69437500D01*
D29*
X96300000Y-50950000D02*
X102850000Y-57500000D01*
X96300000Y-50450000D02*
X96300000Y-50950000D01*
X102850000Y-57500000D02*
X152500000Y-57500000D01*
X154850000Y-59850000D02*
X154850000Y-63000000D01*
X152500000Y-57500000D02*
X154850000Y-59850000D01*
%TO.N,+3V3*%
X100452500Y-87937500D02*
X100500000Y-87985000D01*
X99000000Y-87937500D02*
X100452500Y-87937500D01*
X100500000Y-87985000D02*
X101500000Y-87985000D01*
X102235000Y-87985000D02*
X102250000Y-88000000D01*
X101500000Y-87985000D02*
X102235000Y-87985000D01*
X99000000Y-88500000D02*
X98500000Y-89000000D01*
X99000000Y-87937500D02*
X99000000Y-88500000D01*
X98485000Y-89015000D02*
X98500000Y-89000000D01*
X98485000Y-90000000D02*
X98485000Y-89015000D01*
X98485000Y-90897500D02*
X98837500Y-91250000D01*
X98485000Y-90000000D02*
X98485000Y-90897500D01*
X100500000Y-87985000D02*
X100500000Y-88500000D01*
X100250000Y-88750000D02*
X100250000Y-89837500D01*
X100500000Y-88500000D02*
X100250000Y-88750000D01*
X107515000Y-90897500D02*
X107162500Y-91250000D01*
X107515000Y-90000000D02*
X107515000Y-90897500D01*
X109687500Y-92812500D02*
X109250000Y-93250000D01*
X110500000Y-92812500D02*
X109687500Y-92812500D01*
X95265000Y-95985000D02*
X95250000Y-96000000D01*
X96000000Y-95985000D02*
X95265000Y-95985000D01*
X96000000Y-95985000D02*
X96515000Y-95985000D01*
X97250000Y-95250000D02*
X98837500Y-95250000D01*
X96515000Y-95985000D02*
X97250000Y-95250000D01*
X104500000Y-128015000D02*
X104500000Y-127250000D01*
X107000000Y-128015000D02*
X107000000Y-127250000D01*
X106485000Y-98897500D02*
X106485000Y-99750000D01*
X105750000Y-98162500D02*
X106485000Y-98897500D01*
X106485000Y-100485000D02*
X106500000Y-100500000D01*
X106485000Y-99750000D02*
X106485000Y-100485000D01*
X107515000Y-89265000D02*
X107500000Y-89250000D01*
X107515000Y-90000000D02*
X107515000Y-89265000D01*
X164000000Y-73062500D02*
X164062500Y-73000000D01*
X164000000Y-77212500D02*
X164000000Y-73062500D01*
%TO.N,Net-(C12-Pad2)*%
X92212500Y-91837500D02*
X92150000Y-91900000D01*
X92212500Y-90000000D02*
X92212500Y-91837500D01*
X92150000Y-91900000D02*
X92150000Y-92400000D01*
X92150000Y-92400000D02*
X92750000Y-93000000D01*
X92750000Y-93000000D02*
X96000000Y-93000000D01*
X96250000Y-93250000D02*
X98837500Y-93250000D01*
X96000000Y-93000000D02*
X96250000Y-93250000D01*
%TO.N,Net-(C13-Pad1)*%
X93787500Y-94162500D02*
X93850000Y-94100000D01*
X93787500Y-96000000D02*
X93787500Y-94162500D01*
X93850000Y-94100000D02*
X95900000Y-94100000D01*
X96250000Y-93750000D02*
X98837500Y-93750000D01*
X95900000Y-94100000D02*
X96250000Y-93750000D01*
%TO.N,Net-(D1-Pad1)*%
X164212500Y-79000000D02*
X164000000Y-78787500D01*
X165515000Y-79000000D02*
X164212500Y-79000000D01*
%TO.N,Net-(D2-Pad1)*%
X112750000Y-96985000D02*
X111052500Y-96985000D01*
X111052500Y-96985000D02*
X111037500Y-97000000D01*
%TO.N,Net-(D2-Pad2)*%
X107965702Y-94750000D02*
X107162500Y-94750000D01*
X109462500Y-96246798D02*
X107965702Y-94750000D01*
X109462500Y-97000000D02*
X109462500Y-96246798D01*
D30*
%TO.N,Earth*%
X91425000Y-47800000D02*
X93875000Y-47800000D01*
X93875000Y-47800000D02*
X96125000Y-47800000D01*
X96125000Y-47800000D02*
X98575000Y-47800000D01*
D28*
X92680000Y-50030000D02*
X92030000Y-50030000D01*
X91425000Y-49425000D02*
X91425000Y-47800000D01*
X92030000Y-50030000D02*
X91425000Y-49425000D01*
X97320000Y-50030000D02*
X97970000Y-50030000D01*
X98575000Y-49425000D02*
X98575000Y-47800000D01*
X97970000Y-50030000D02*
X98575000Y-49425000D01*
D31*
%TO.N,USB_D-*%
X95650000Y-51150000D02*
X95650000Y-50450000D01*
X109528611Y-65028611D02*
X95650000Y-51150000D01*
X109528611Y-92083387D02*
X109528611Y-65028611D01*
X108361998Y-93250000D02*
X109528611Y-92083387D01*
X107162500Y-93250000D02*
X108361998Y-93250000D01*
%TO.N,USB_D+*%
X107162500Y-92750000D02*
X108296300Y-92750000D01*
X108296300Y-92750000D02*
X109128601Y-91917699D01*
X109128601Y-91917699D02*
X109128601Y-65194299D01*
X109128601Y-65194299D02*
X96184302Y-52250000D01*
X96184302Y-52250000D02*
X95500000Y-52250000D01*
X95000000Y-51750000D02*
X95000000Y-50450000D01*
X95500000Y-52250000D02*
X95000000Y-51750000D01*
D29*
%TO.N,JTAG_MS*%
X106099990Y-91990692D02*
X106099990Y-90790712D01*
X108615021Y-73075021D02*
X106540000Y-71000000D01*
X106750000Y-85022820D02*
X108615021Y-83157799D01*
X106750000Y-90140702D02*
X106750000Y-85022820D01*
X106359298Y-92250000D02*
X106099990Y-91990692D01*
X107162500Y-92250000D02*
X106359298Y-92250000D01*
X108615021Y-83157799D02*
X108615021Y-73075021D01*
X106099990Y-90790712D02*
X106750000Y-90140702D01*
%TO.N,JTAG_CLK*%
X108165011Y-75165011D02*
X106540000Y-73540000D01*
X105750000Y-85386410D02*
X108165011Y-82971399D01*
X108165011Y-82971399D02*
X108165011Y-75165011D01*
X105750000Y-89837500D02*
X105750000Y-85386410D01*
%TO.N,JTAG_DO*%
X104799990Y-88950010D02*
X104799991Y-85063599D01*
X104750000Y-89837500D02*
X104750000Y-89000000D01*
X104750000Y-89000000D02*
X104799990Y-88950010D01*
X104799991Y-85063599D02*
X106250000Y-83613590D01*
X106250000Y-83613590D02*
X106250000Y-82750000D01*
X105364999Y-77255001D02*
X106540000Y-76080000D01*
X105364999Y-81864999D02*
X105364999Y-77255001D01*
X106250000Y-82750000D02*
X105364999Y-81864999D01*
%TO.N,JTAG_DI*%
X107715001Y-79795001D02*
X106540000Y-78620000D01*
X105250000Y-85250000D02*
X107715001Y-82784999D01*
X105250000Y-89837500D02*
X105250000Y-85250000D01*
X107715001Y-82784999D02*
X107715001Y-79795001D01*
%TO.N,nRST*%
X98837500Y-94250000D02*
X100250000Y-94250000D01*
%TO.N,Net-(J4-Pad3)*%
X141920000Y-69000000D02*
X142460000Y-69540000D01*
X141920000Y-61000000D02*
X141920000Y-69000000D01*
%TO.N,LCD_RS*%
X104688588Y-103250000D02*
X112000000Y-103250000D01*
X102750000Y-98162500D02*
X102750000Y-101311412D01*
X102750000Y-101311412D02*
X104688588Y-103250000D01*
X136250000Y-64130000D02*
X139380000Y-61000000D01*
X136250000Y-101500000D02*
X136250000Y-64130000D01*
%TO.N,LCD_EN*%
X104574998Y-102500000D02*
X112750000Y-102500000D01*
X103250000Y-98162500D02*
X103250000Y-101175002D01*
X103250000Y-101175002D02*
X104574998Y-102500000D01*
X134250000Y-61050000D02*
X134300000Y-61000000D01*
X134250000Y-100750000D02*
X134250000Y-61050000D01*
%TO.N,LCD_D4*%
X121600000Y-98809230D02*
X121600000Y-61000000D01*
X112309203Y-108100027D02*
X121600000Y-98809230D01*
X103440802Y-108100028D02*
X112309203Y-108100027D01*
X100750000Y-105409227D02*
X103440802Y-108100028D01*
X100750000Y-98162500D02*
X100750000Y-105409227D01*
%TO.N,LCD_D5*%
X112122802Y-107650018D02*
X119060000Y-100712820D01*
X101250000Y-105272820D02*
X103627201Y-107650019D01*
X119060000Y-100712820D02*
X119060000Y-61000000D01*
X103627201Y-107650019D02*
X112122802Y-107650018D01*
X101250000Y-98162500D02*
X101250000Y-105272820D01*
%TO.N,LCD_D6*%
X116520000Y-102616410D02*
X116520000Y-61000000D01*
X111936401Y-107200009D02*
X116520000Y-102616410D01*
X103813600Y-107200010D02*
X111936401Y-107200009D01*
X101750000Y-105136410D02*
X103813600Y-107200010D01*
X101750000Y-98162500D02*
X101750000Y-105136410D01*
%TO.N,LCD_D7*%
X102250000Y-98162500D02*
X102250000Y-105000000D01*
X102250000Y-105000000D02*
X104000000Y-106750000D01*
X104000000Y-106750000D02*
X111750000Y-106750000D01*
X113980000Y-104520000D02*
X113980000Y-61000000D01*
X111750000Y-106750000D02*
X113980000Y-104520000D01*
%TO.N,I2C_SCL*%
X104500000Y-131960000D02*
X104540000Y-132000000D01*
X104500000Y-128985000D02*
X104500000Y-131960000D01*
X104250000Y-101250000D02*
X104250000Y-98162500D01*
%TO.N,I2C_SDA*%
X107000000Y-131920000D02*
X107080000Y-132000000D01*
X107000000Y-128985000D02*
X107000000Y-131920000D01*
X104750000Y-100750000D02*
X104750000Y-98162500D01*
X105500000Y-101500000D02*
X104750000Y-100750000D01*
%TO.N,BOOT*%
X102250000Y-89837500D02*
X102250000Y-89000000D01*
X102250000Y-89000000D02*
X103000000Y-88250000D01*
X103000000Y-88250000D02*
X103000000Y-85250000D01*
X103000000Y-85250000D02*
X101000000Y-83250000D01*
X93290000Y-83250000D02*
X91540000Y-85000000D01*
X101000000Y-83250000D02*
X93290000Y-83250000D01*
%TO.N,TEMP0*%
X91125008Y-96800010D02*
X85750000Y-91425002D01*
X96336400Y-96800010D02*
X91125008Y-96800010D01*
X98837500Y-95750000D02*
X97386410Y-95750000D01*
X97386410Y-95750000D02*
X96336400Y-96800010D01*
X85750000Y-79290000D02*
X79000000Y-72540000D01*
X85750000Y-91425002D02*
X85750000Y-79290000D01*
%TO.N,TEMP1*%
X90938607Y-97250019D02*
X85299990Y-91611402D01*
X96522801Y-97250019D02*
X90938607Y-97250019D01*
X98837500Y-96250000D02*
X97522820Y-96250000D01*
X97522820Y-96250000D02*
X96522801Y-97250019D01*
X85299990Y-89839990D02*
X79000000Y-83540000D01*
X85299990Y-91611402D02*
X85299990Y-89839990D01*
%TO.N,TEMP2*%
X97659230Y-96750000D02*
X96709201Y-97700029D01*
X98837500Y-96750000D02*
X97659230Y-96750000D01*
X96709201Y-97700029D02*
X90752206Y-97700028D01*
X87592178Y-94540000D02*
X79000000Y-94540000D01*
X90752206Y-97700028D02*
X87592178Y-94540000D01*
%TO.N,TEMP3*%
X100250000Y-98162500D02*
X100250000Y-103000000D01*
X97710000Y-105540000D02*
X79000000Y-105540000D01*
X100250000Y-103000000D02*
X97710000Y-105540000D01*
%TO.N,Net-(R1-Pad2)*%
X185750000Y-71750000D02*
X185750000Y-69500000D01*
X183800000Y-72280000D02*
X185220000Y-72280000D01*
X185220000Y-72280000D02*
X185750000Y-71750000D01*
X185110000Y-68860000D02*
X183800000Y-68860000D01*
X185750000Y-69500000D02*
X185110000Y-68860000D01*
D28*
X150330000Y-84730000D02*
X150600000Y-85000000D01*
X147750000Y-84730000D02*
X150330000Y-84730000D01*
X150600000Y-85000000D02*
X150600000Y-86600000D01*
X150600000Y-86600000D02*
X152000000Y-88000000D01*
X152000000Y-88000000D02*
X168000000Y-88000000D01*
X168000000Y-88000000D02*
X179000000Y-77000000D01*
X179000000Y-77000000D02*
X182000000Y-77000000D01*
X183800000Y-75200000D02*
X183800000Y-72280000D01*
X182000000Y-77000000D02*
X183800000Y-75200000D01*
D29*
%TO.N,Net-(R2-Pad2)*%
X183800000Y-61280000D02*
X185220000Y-61280000D01*
X185220000Y-61280000D02*
X185750000Y-60750000D01*
X185750000Y-60750000D02*
X185750000Y-58500000D01*
X185110000Y-57860000D02*
X183800000Y-57860000D01*
X185750000Y-58500000D02*
X185110000Y-57860000D01*
D28*
X150330000Y-78730000D02*
X150600000Y-79000000D01*
X147750000Y-78730000D02*
X150330000Y-78730000D01*
X150600000Y-79000000D02*
X150600000Y-80600000D01*
X150600000Y-80600000D02*
X152000000Y-82000000D01*
X152000000Y-82000000D02*
X170000000Y-82000000D01*
X170000000Y-82000000D02*
X173000000Y-79000000D01*
X173000000Y-79000000D02*
X173000000Y-68000000D01*
X173000000Y-68000000D02*
X176000000Y-65000000D01*
X176000000Y-65000000D02*
X183000000Y-65000000D01*
X183800000Y-64200000D02*
X183800000Y-61280000D01*
X183000000Y-65000000D02*
X183800000Y-64200000D01*
D29*
%TO.N,HB_A1*%
X104250000Y-89837500D02*
X104250000Y-84625000D01*
X104250000Y-84625000D02*
X104750000Y-84125000D01*
X138500000Y-85000000D02*
X139515000Y-85000000D01*
%TO.N,Net-(R4-Pad1)*%
X141980000Y-85000000D02*
X142250000Y-84730000D01*
X140485000Y-85000000D02*
X141980000Y-85000000D01*
%TO.N,HB_A2*%
X103750000Y-89837500D02*
X103750000Y-83500000D01*
X138500000Y-79000000D02*
X139515000Y-79000000D01*
%TO.N,Net-(R5-Pad2)*%
X141980000Y-79000000D02*
X142250000Y-78730000D01*
X140485000Y-79000000D02*
X141980000Y-79000000D01*
%TO.N,Net-(R6-Pad2)*%
X186000000Y-96750000D02*
X186000000Y-94500000D01*
X184050000Y-97280000D02*
X185470000Y-97280000D01*
X185470000Y-97280000D02*
X186000000Y-96750000D01*
X185360000Y-93860000D02*
X184050000Y-93860000D01*
X186000000Y-94500000D02*
X185360000Y-93860000D01*
D28*
X150330000Y-96730000D02*
X150600000Y-97000000D01*
X147750000Y-96730000D02*
X150330000Y-96730000D01*
X150600000Y-97000000D02*
X150600000Y-98600000D01*
X150600000Y-98600000D02*
X152000000Y-100000000D01*
X152000000Y-100000000D02*
X183000000Y-100000000D01*
X183700000Y-99300000D02*
X183700000Y-97280000D01*
X183000000Y-100000000D02*
X183700000Y-99300000D01*
D29*
%TO.N,Net-(R7-Pad2)*%
X186000000Y-85750000D02*
X186000000Y-83500000D01*
X184050000Y-86280000D02*
X185470000Y-86280000D01*
X185470000Y-86280000D02*
X186000000Y-85750000D01*
X185360000Y-82860000D02*
X184050000Y-82860000D01*
X186000000Y-83500000D02*
X185360000Y-82860000D01*
D28*
X150330000Y-90730000D02*
X150600000Y-91000000D01*
X147750000Y-90730000D02*
X150330000Y-90730000D01*
X150600000Y-91000000D02*
X150600000Y-92600000D01*
X150600000Y-92600000D02*
X152000000Y-94000000D01*
X152000000Y-94000000D02*
X172000000Y-94000000D01*
X172000000Y-94000000D02*
X176000000Y-90000000D01*
X176000000Y-90000000D02*
X182000000Y-90000000D01*
X183800000Y-88200000D02*
X183800000Y-86280000D01*
X182000000Y-90000000D02*
X183800000Y-88200000D01*
D29*
%TO.N,HB_B1*%
X104000000Y-91824998D02*
X104000000Y-92750000D01*
X103250000Y-89837500D02*
X103250000Y-91074998D01*
X103250000Y-91074998D02*
X104000000Y-91824998D01*
X138500000Y-97000000D02*
X139515000Y-97000000D01*
%TO.N,Net-(R8-Pad1)*%
X141980000Y-97000000D02*
X142250000Y-96730000D01*
X140485000Y-97000000D02*
X141980000Y-97000000D01*
%TO.N,HB_B2*%
X102750000Y-89837500D02*
X102750000Y-91500000D01*
X102750000Y-91500000D02*
X103250000Y-92000000D01*
X138500000Y-91000000D02*
X139515000Y-91000000D01*
%TO.N,Net-(R9-Pad2)*%
X141980000Y-91000000D02*
X142250000Y-90730000D01*
X140485000Y-91000000D02*
X141980000Y-91000000D01*
%TD*%
D32*
%TO.N,+3V3*%
G36*
X160846147Y-72227572D02*
G01*
X161073862Y-72250000D01*
X162723872Y-72250000D01*
X162800000Y-72257498D01*
X162876128Y-72250000D01*
X162876138Y-72250000D01*
X163103853Y-72227572D01*
X163359573Y-72150000D01*
X164535226Y-72150000D01*
X164568008Y-72156521D01*
X164583277Y-72166723D01*
X164593479Y-72181992D01*
X164600000Y-72214774D01*
X164600000Y-73535226D01*
X164593479Y-73568008D01*
X164583277Y-73583277D01*
X164568008Y-73593479D01*
X164535226Y-73600000D01*
X157714774Y-73600000D01*
X157681992Y-73593479D01*
X157666723Y-73583277D01*
X157656521Y-73568008D01*
X157650000Y-73535226D01*
X157650000Y-72214774D01*
X157656521Y-72181992D01*
X157666723Y-72166723D01*
X157681992Y-72156521D01*
X157714774Y-72150000D01*
X160590427Y-72150000D01*
X160846147Y-72227572D01*
G37*
X160846147Y-72227572D02*
X161073862Y-72250000D01*
X162723872Y-72250000D01*
X162800000Y-72257498D01*
X162876128Y-72250000D01*
X162876138Y-72250000D01*
X163103853Y-72227572D01*
X163359573Y-72150000D01*
X164535226Y-72150000D01*
X164568008Y-72156521D01*
X164583277Y-72166723D01*
X164593479Y-72181992D01*
X164600000Y-72214774D01*
X164600000Y-73535226D01*
X164593479Y-73568008D01*
X164583277Y-73583277D01*
X164568008Y-73593479D01*
X164535226Y-73600000D01*
X157714774Y-73600000D01*
X157681992Y-73593479D01*
X157666723Y-73583277D01*
X157656521Y-73568008D01*
X157650000Y-73535226D01*
X157650000Y-72214774D01*
X157656521Y-72181992D01*
X157666723Y-72166723D01*
X157681992Y-72156521D01*
X157714774Y-72150000D01*
X160590427Y-72150000D01*
X160846147Y-72227572D01*
%TO.N,+12V*%
G36*
X164568008Y-59906521D02*
G01*
X164583277Y-59916723D01*
X164593479Y-59931992D01*
X164600000Y-59964774D01*
X164600000Y-61535226D01*
X164593479Y-61568008D01*
X164583277Y-61583277D01*
X164568008Y-61593479D01*
X164535226Y-61600000D01*
X163428885Y-61600000D01*
X163356031Y-61561059D01*
X163063855Y-61472428D01*
X162836140Y-61450000D01*
X162836130Y-61450000D01*
X162760002Y-61442502D01*
X162683874Y-61450000D01*
X161073862Y-61450000D01*
X160846147Y-61472428D01*
X160553971Y-61561059D01*
X160481117Y-61600000D01*
X157714774Y-61600000D01*
X157681992Y-61593479D01*
X157666723Y-61583277D01*
X157656521Y-61568008D01*
X157650000Y-61535226D01*
X157650000Y-59964774D01*
X157656521Y-59931992D01*
X157666723Y-59916723D01*
X157681992Y-59906521D01*
X157714774Y-59900000D01*
X164535226Y-59900000D01*
X164568008Y-59906521D01*
G37*
X164568008Y-59906521D02*
X164583277Y-59916723D01*
X164593479Y-59931992D01*
X164600000Y-59964774D01*
X164600000Y-61535226D01*
X164593479Y-61568008D01*
X164583277Y-61583277D01*
X164568008Y-61593479D01*
X164535226Y-61600000D01*
X163428885Y-61600000D01*
X163356031Y-61561059D01*
X163063855Y-61472428D01*
X162836140Y-61450000D01*
X162836130Y-61450000D01*
X162760002Y-61442502D01*
X162683874Y-61450000D01*
X161073862Y-61450000D01*
X160846147Y-61472428D01*
X160553971Y-61561059D01*
X160481117Y-61600000D01*
X157714774Y-61600000D01*
X157681992Y-61593479D01*
X157666723Y-61583277D01*
X157656521Y-61568008D01*
X157650000Y-61535226D01*
X157650000Y-59964774D01*
X157656521Y-59931992D01*
X157666723Y-59916723D01*
X157681992Y-59906521D01*
X157714774Y-59900000D01*
X164535226Y-59900000D01*
X164568008Y-59906521D01*
%TO.N,GND*%
G36*
X166568008Y-59906521D02*
G01*
X166583277Y-59916723D01*
X166593479Y-59931992D01*
X166600000Y-59964774D01*
X166600000Y-73785226D01*
X166593479Y-73818008D01*
X166583277Y-73833277D01*
X166568008Y-73843479D01*
X166535226Y-73850000D01*
X165464774Y-73850000D01*
X165431992Y-73843479D01*
X165416723Y-73833277D01*
X165406521Y-73818008D01*
X165400000Y-73785226D01*
X165400000Y-70223312D01*
X165501441Y-70033529D01*
X165590072Y-69741353D01*
X165612500Y-69513638D01*
X165612500Y-69513637D01*
X165619999Y-69437500D01*
X165612500Y-69361362D01*
X165612500Y-64378625D01*
X165619998Y-64302497D01*
X165612500Y-64226369D01*
X165612500Y-64226360D01*
X165590072Y-63998645D01*
X165501441Y-63706469D01*
X165400000Y-63516686D01*
X165400000Y-59964774D01*
X165406521Y-59931992D01*
X165416723Y-59916723D01*
X165431992Y-59906521D01*
X165464774Y-59900000D01*
X166535226Y-59900000D01*
X166568008Y-59906521D01*
G37*
X166568008Y-59906521D02*
X166583277Y-59916723D01*
X166593479Y-59931992D01*
X166600000Y-59964774D01*
X166600000Y-73785226D01*
X166593479Y-73818008D01*
X166583277Y-73833277D01*
X166568008Y-73843479D01*
X166535226Y-73850000D01*
X165464774Y-73850000D01*
X165431992Y-73843479D01*
X165416723Y-73833277D01*
X165406521Y-73818008D01*
X165400000Y-73785226D01*
X165400000Y-70223312D01*
X165501441Y-70033529D01*
X165590072Y-69741353D01*
X165612500Y-69513638D01*
X165612500Y-69513637D01*
X165619999Y-69437500D01*
X165612500Y-69361362D01*
X165612500Y-64378625D01*
X165619998Y-64302497D01*
X165612500Y-64226369D01*
X165612500Y-64226360D01*
X165590072Y-63998645D01*
X165501441Y-63706469D01*
X165400000Y-63516686D01*
X165400000Y-59964774D01*
X165406521Y-59931992D01*
X165416723Y-59916723D01*
X165431992Y-59906521D01*
X165464774Y-59900000D01*
X166535226Y-59900000D01*
X166568008Y-59906521D01*
G36*
X160553971Y-64438941D02*
G01*
X160846147Y-64527572D01*
X161073862Y-64550000D01*
X162100000Y-64550000D01*
X162100000Y-66035226D01*
X162093479Y-66068008D01*
X162083277Y-66083277D01*
X162068008Y-66093479D01*
X162035226Y-66100000D01*
X157714774Y-66100000D01*
X157681992Y-66093479D01*
X157666723Y-66083277D01*
X157656521Y-66068008D01*
X157650000Y-66035226D01*
X157650000Y-64464774D01*
X157656521Y-64431992D01*
X157666723Y-64416723D01*
X157681992Y-64406521D01*
X157714774Y-64400000D01*
X160481117Y-64400000D01*
X160553971Y-64438941D01*
G37*
X160553971Y-64438941D02*
X160846147Y-64527572D01*
X161073862Y-64550000D01*
X162100000Y-64550000D01*
X162100000Y-66035226D01*
X162093479Y-66068008D01*
X162083277Y-66083277D01*
X162068008Y-66093479D01*
X162035226Y-66100000D01*
X157714774Y-66100000D01*
X157681992Y-66093479D01*
X157666723Y-66083277D01*
X157656521Y-66068008D01*
X157650000Y-66035226D01*
X157650000Y-64464774D01*
X157656521Y-64431992D01*
X157666723Y-64416723D01*
X157681992Y-64406521D01*
X157714774Y-64400000D01*
X160481117Y-64400000D01*
X160553971Y-64438941D01*
G36*
X162068008Y-74656521D02*
G01*
X162083277Y-74666723D01*
X162093479Y-74681992D01*
X162100000Y-74714774D01*
X162100000Y-76035226D01*
X162093479Y-76068008D01*
X162083277Y-76083277D01*
X162068008Y-76093479D01*
X162035226Y-76100000D01*
X157714774Y-76100000D01*
X157681992Y-76093479D01*
X157666723Y-76083277D01*
X157656521Y-76068008D01*
X157650000Y-76035226D01*
X157650000Y-74714774D01*
X157656521Y-74681992D01*
X157666723Y-74666723D01*
X157681992Y-74656521D01*
X157714774Y-74650000D01*
X162035226Y-74650000D01*
X162068008Y-74656521D01*
G37*
X162068008Y-74656521D02*
X162083277Y-74666723D01*
X162093479Y-74681992D01*
X162100000Y-74714774D01*
X162100000Y-76035226D01*
X162093479Y-76068008D01*
X162083277Y-76083277D01*
X162068008Y-76093479D01*
X162035226Y-76100000D01*
X157714774Y-76100000D01*
X157681992Y-76093479D01*
X157666723Y-76083277D01*
X157656521Y-76068008D01*
X157650000Y-76035226D01*
X157650000Y-74714774D01*
X157656521Y-74681992D01*
X157666723Y-74666723D01*
X157681992Y-74656521D01*
X157714774Y-74650000D01*
X162035226Y-74650000D01*
X162068008Y-74656521D01*
%TO.N,Net-(J11-Pad2)*%
G36*
X201590252Y-55663176D02*
G01*
X201674354Y-55698013D01*
X201746572Y-55753428D01*
X201801987Y-55825646D01*
X201836824Y-55909748D01*
X201850000Y-56009834D01*
X201850000Y-63490166D01*
X201836824Y-63590252D01*
X201801987Y-63674354D01*
X201746572Y-63746572D01*
X201674354Y-63801987D01*
X201590252Y-63836824D01*
X201490166Y-63850000D01*
X187009834Y-63850000D01*
X186909748Y-63836824D01*
X186825646Y-63801987D01*
X186753428Y-63746572D01*
X186698013Y-63674354D01*
X186663176Y-63590252D01*
X186650000Y-63490166D01*
X186650000Y-56009834D01*
X186663176Y-55909748D01*
X186698013Y-55825646D01*
X186753428Y-55753428D01*
X186825646Y-55698013D01*
X186909748Y-55663176D01*
X187009834Y-55650000D01*
X201490166Y-55650000D01*
X201590252Y-55663176D01*
G37*
X201590252Y-55663176D02*
X201674354Y-55698013D01*
X201746572Y-55753428D01*
X201801987Y-55825646D01*
X201836824Y-55909748D01*
X201850000Y-56009834D01*
X201850000Y-63490166D01*
X201836824Y-63590252D01*
X201801987Y-63674354D01*
X201746572Y-63746572D01*
X201674354Y-63801987D01*
X201590252Y-63836824D01*
X201490166Y-63850000D01*
X187009834Y-63850000D01*
X186909748Y-63836824D01*
X186825646Y-63801987D01*
X186753428Y-63746572D01*
X186698013Y-63674354D01*
X186663176Y-63590252D01*
X186650000Y-63490166D01*
X186650000Y-56009834D01*
X186663176Y-55909748D01*
X186698013Y-55825646D01*
X186753428Y-55753428D01*
X186825646Y-55698013D01*
X186909748Y-55663176D01*
X187009834Y-55650000D01*
X201490166Y-55650000D01*
X201590252Y-55663176D01*
%TO.N,Net-(J11-Pad1)*%
G36*
X201590252Y-65163176D02*
G01*
X201674354Y-65198013D01*
X201746572Y-65253428D01*
X201801987Y-65325646D01*
X201836824Y-65409748D01*
X201850000Y-65509834D01*
X201850000Y-72990166D01*
X201836824Y-73090252D01*
X201801987Y-73174354D01*
X201746572Y-73246572D01*
X201674354Y-73301987D01*
X201590252Y-73336824D01*
X201490166Y-73350000D01*
X187009834Y-73350000D01*
X186909748Y-73336824D01*
X186825646Y-73301987D01*
X186753428Y-73246572D01*
X186698013Y-73174354D01*
X186663176Y-73090252D01*
X186650000Y-72990166D01*
X186650000Y-65509834D01*
X186663176Y-65409748D01*
X186698013Y-65325646D01*
X186753428Y-65253428D01*
X186825646Y-65198013D01*
X186909748Y-65163176D01*
X187009834Y-65150000D01*
X201490166Y-65150000D01*
X201590252Y-65163176D01*
G37*
X201590252Y-65163176D02*
X201674354Y-65198013D01*
X201746572Y-65253428D01*
X201801987Y-65325646D01*
X201836824Y-65409748D01*
X201850000Y-65509834D01*
X201850000Y-72990166D01*
X201836824Y-73090252D01*
X201801987Y-73174354D01*
X201746572Y-73246572D01*
X201674354Y-73301987D01*
X201590252Y-73336824D01*
X201490166Y-73350000D01*
X187009834Y-73350000D01*
X186909748Y-73336824D01*
X186825646Y-73301987D01*
X186753428Y-73246572D01*
X186698013Y-73174354D01*
X186663176Y-73090252D01*
X186650000Y-72990166D01*
X186650000Y-65509834D01*
X186663176Y-65409748D01*
X186698013Y-65325646D01*
X186753428Y-65253428D01*
X186825646Y-65198013D01*
X186909748Y-65163176D01*
X187009834Y-65150000D01*
X201490166Y-65150000D01*
X201590252Y-65163176D01*
%TO.N,Net-(J12-Pad2)*%
G36*
X201590252Y-80663176D02*
G01*
X201674354Y-80698013D01*
X201746572Y-80753428D01*
X201801987Y-80825646D01*
X201836824Y-80909748D01*
X201850000Y-81009834D01*
X201850000Y-88490166D01*
X201836824Y-88590252D01*
X201801987Y-88674354D01*
X201746572Y-88746572D01*
X201674354Y-88801987D01*
X201590252Y-88836824D01*
X201490166Y-88850000D01*
X187009834Y-88850000D01*
X186909748Y-88836824D01*
X186825646Y-88801987D01*
X186753428Y-88746572D01*
X186698013Y-88674354D01*
X186663176Y-88590252D01*
X186650000Y-88490166D01*
X186650000Y-85932540D01*
X186665233Y-85882323D01*
X186675000Y-85783159D01*
X186675000Y-85783153D01*
X186678265Y-85750001D01*
X186675000Y-85716849D01*
X186675000Y-83533152D01*
X186678265Y-83500000D01*
X186675000Y-83466848D01*
X186675000Y-83466841D01*
X186665233Y-83367677D01*
X186650000Y-83317460D01*
X186650000Y-81009834D01*
X186663176Y-80909748D01*
X186698013Y-80825646D01*
X186753428Y-80753428D01*
X186825646Y-80698013D01*
X186909748Y-80663176D01*
X187009834Y-80650000D01*
X201490166Y-80650000D01*
X201590252Y-80663176D01*
G37*
X201590252Y-80663176D02*
X201674354Y-80698013D01*
X201746572Y-80753428D01*
X201801987Y-80825646D01*
X201836824Y-80909748D01*
X201850000Y-81009834D01*
X201850000Y-88490166D01*
X201836824Y-88590252D01*
X201801987Y-88674354D01*
X201746572Y-88746572D01*
X201674354Y-88801987D01*
X201590252Y-88836824D01*
X201490166Y-88850000D01*
X187009834Y-88850000D01*
X186909748Y-88836824D01*
X186825646Y-88801987D01*
X186753428Y-88746572D01*
X186698013Y-88674354D01*
X186663176Y-88590252D01*
X186650000Y-88490166D01*
X186650000Y-85932540D01*
X186665233Y-85882323D01*
X186675000Y-85783159D01*
X186675000Y-85783153D01*
X186678265Y-85750001D01*
X186675000Y-85716849D01*
X186675000Y-83533152D01*
X186678265Y-83500000D01*
X186675000Y-83466848D01*
X186675000Y-83466841D01*
X186665233Y-83367677D01*
X186650000Y-83317460D01*
X186650000Y-81009834D01*
X186663176Y-80909748D01*
X186698013Y-80825646D01*
X186753428Y-80753428D01*
X186825646Y-80698013D01*
X186909748Y-80663176D01*
X187009834Y-80650000D01*
X201490166Y-80650000D01*
X201590252Y-80663176D01*
%TO.N,Net-(J12-Pad1)*%
G36*
X201590252Y-90163176D02*
G01*
X201674354Y-90198013D01*
X201746572Y-90253428D01*
X201801987Y-90325646D01*
X201836824Y-90409748D01*
X201850000Y-90509834D01*
X201850000Y-97990166D01*
X201836824Y-98090252D01*
X201801987Y-98174354D01*
X201746572Y-98246572D01*
X201674354Y-98301987D01*
X201590252Y-98336824D01*
X201490166Y-98350000D01*
X187009834Y-98350000D01*
X186909748Y-98336824D01*
X186825646Y-98301987D01*
X186753428Y-98246572D01*
X186698013Y-98174354D01*
X186663176Y-98090252D01*
X186650000Y-97990166D01*
X186650000Y-96932540D01*
X186665233Y-96882323D01*
X186675000Y-96783159D01*
X186675000Y-96783153D01*
X186678265Y-96750001D01*
X186675000Y-96716849D01*
X186675000Y-94533152D01*
X186678265Y-94500000D01*
X186675000Y-94466848D01*
X186675000Y-94466841D01*
X186665233Y-94367677D01*
X186650000Y-94317460D01*
X186650000Y-90509834D01*
X186663176Y-90409748D01*
X186698013Y-90325646D01*
X186753428Y-90253428D01*
X186825646Y-90198013D01*
X186909748Y-90163176D01*
X187009834Y-90150000D01*
X201490166Y-90150000D01*
X201590252Y-90163176D01*
G37*
X201590252Y-90163176D02*
X201674354Y-90198013D01*
X201746572Y-90253428D01*
X201801987Y-90325646D01*
X201836824Y-90409748D01*
X201850000Y-90509834D01*
X201850000Y-97990166D01*
X201836824Y-98090252D01*
X201801987Y-98174354D01*
X201746572Y-98246572D01*
X201674354Y-98301987D01*
X201590252Y-98336824D01*
X201490166Y-98350000D01*
X187009834Y-98350000D01*
X186909748Y-98336824D01*
X186825646Y-98301987D01*
X186753428Y-98246572D01*
X186698013Y-98174354D01*
X186663176Y-98090252D01*
X186650000Y-97990166D01*
X186650000Y-96932540D01*
X186665233Y-96882323D01*
X186675000Y-96783159D01*
X186675000Y-96783153D01*
X186678265Y-96750001D01*
X186675000Y-96716849D01*
X186675000Y-94533152D01*
X186678265Y-94500000D01*
X186675000Y-94466848D01*
X186675000Y-94466841D01*
X186665233Y-94367677D01*
X186650000Y-94317460D01*
X186650000Y-90509834D01*
X186663176Y-90409748D01*
X186698013Y-90325646D01*
X186753428Y-90253428D01*
X186825646Y-90198013D01*
X186909748Y-90163176D01*
X187009834Y-90150000D01*
X201490166Y-90150000D01*
X201590252Y-90163176D01*
%TO.N,GND*%
G36*
X184818008Y-55906521D02*
G01*
X184833277Y-55916723D01*
X184843479Y-55931992D01*
X184850000Y-55964774D01*
X184850000Y-57035226D01*
X184843479Y-57068008D01*
X184833277Y-57083277D01*
X184818008Y-57093479D01*
X184785226Y-57100000D01*
X182700000Y-57100000D01*
X182670737Y-57102882D01*
X182594200Y-57118106D01*
X182566061Y-57126642D01*
X182540126Y-57140504D01*
X182475242Y-57183859D01*
X182452512Y-57202514D01*
X182433859Y-57225242D01*
X182390504Y-57290126D01*
X182376643Y-57316059D01*
X182368106Y-57344200D01*
X182365681Y-57356391D01*
X182355065Y-57391388D01*
X182348307Y-57460000D01*
X182348307Y-58260000D01*
X182350000Y-58277189D01*
X182350000Y-58785226D01*
X182343479Y-58818008D01*
X182333277Y-58833277D01*
X182318008Y-58843479D01*
X182285226Y-58850000D01*
X179214774Y-58850000D01*
X179181992Y-58843479D01*
X179166723Y-58833277D01*
X179156521Y-58818008D01*
X179150000Y-58785226D01*
X179150000Y-55964774D01*
X179156521Y-55931992D01*
X179166723Y-55916723D01*
X179181992Y-55906521D01*
X179214774Y-55900000D01*
X184785226Y-55900000D01*
X184818008Y-55906521D01*
G37*
X184818008Y-55906521D02*
X184833277Y-55916723D01*
X184843479Y-55931992D01*
X184850000Y-55964774D01*
X184850000Y-57035226D01*
X184843479Y-57068008D01*
X184833277Y-57083277D01*
X184818008Y-57093479D01*
X184785226Y-57100000D01*
X182700000Y-57100000D01*
X182670737Y-57102882D01*
X182594200Y-57118106D01*
X182566061Y-57126642D01*
X182540126Y-57140504D01*
X182475242Y-57183859D01*
X182452512Y-57202514D01*
X182433859Y-57225242D01*
X182390504Y-57290126D01*
X182376643Y-57316059D01*
X182368106Y-57344200D01*
X182365681Y-57356391D01*
X182355065Y-57391388D01*
X182348307Y-57460000D01*
X182348307Y-58260000D01*
X182350000Y-58277189D01*
X182350000Y-58785226D01*
X182343479Y-58818008D01*
X182333277Y-58833277D01*
X182318008Y-58843479D01*
X182285226Y-58850000D01*
X179214774Y-58850000D01*
X179181992Y-58843479D01*
X179166723Y-58833277D01*
X179156521Y-58818008D01*
X179150000Y-58785226D01*
X179150000Y-55964774D01*
X179156521Y-55931992D01*
X179166723Y-55916723D01*
X179181992Y-55906521D01*
X179214774Y-55900000D01*
X184785226Y-55900000D01*
X184818008Y-55906521D01*
%TO.N,+12V*%
G36*
X184818008Y-59406521D02*
G01*
X184833277Y-59416723D01*
X184843479Y-59431992D01*
X184850000Y-59464774D01*
X184850000Y-60528307D01*
X182700000Y-60528307D01*
X182631388Y-60535065D01*
X182565413Y-60555078D01*
X182504610Y-60587578D01*
X182451315Y-60631315D01*
X182407578Y-60684610D01*
X182375078Y-60745413D01*
X182355065Y-60811388D01*
X182348307Y-60880000D01*
X182348307Y-61680000D01*
X182350000Y-61697189D01*
X182350000Y-62285226D01*
X182343479Y-62318008D01*
X182333277Y-62333277D01*
X182318008Y-62343479D01*
X182285226Y-62350000D01*
X179214774Y-62350000D01*
X179181992Y-62343479D01*
X179166723Y-62333277D01*
X179156521Y-62318008D01*
X179150000Y-62285226D01*
X179150000Y-59464774D01*
X179156521Y-59431992D01*
X179166723Y-59416723D01*
X179181992Y-59406521D01*
X179214774Y-59400000D01*
X184785226Y-59400000D01*
X184818008Y-59406521D01*
G37*
X184818008Y-59406521D02*
X184833277Y-59416723D01*
X184843479Y-59431992D01*
X184850000Y-59464774D01*
X184850000Y-60528307D01*
X182700000Y-60528307D01*
X182631388Y-60535065D01*
X182565413Y-60555078D01*
X182504610Y-60587578D01*
X182451315Y-60631315D01*
X182407578Y-60684610D01*
X182375078Y-60745413D01*
X182355065Y-60811388D01*
X182348307Y-60880000D01*
X182348307Y-61680000D01*
X182350000Y-61697189D01*
X182350000Y-62285226D01*
X182343479Y-62318008D01*
X182333277Y-62333277D01*
X182318008Y-62343479D01*
X182285226Y-62350000D01*
X179214774Y-62350000D01*
X179181992Y-62343479D01*
X179166723Y-62333277D01*
X179156521Y-62318008D01*
X179150000Y-62285226D01*
X179150000Y-59464774D01*
X179156521Y-59431992D01*
X179166723Y-59416723D01*
X179181992Y-59406521D01*
X179214774Y-59400000D01*
X184785226Y-59400000D01*
X184818008Y-59406521D01*
%TO.N,GND*%
G36*
X184818008Y-66906521D02*
G01*
X184833277Y-66916723D01*
X184843479Y-66931992D01*
X184850000Y-66964774D01*
X184850000Y-68035226D01*
X184843479Y-68068008D01*
X184833277Y-68083277D01*
X184818008Y-68093479D01*
X184785226Y-68100000D01*
X182700000Y-68100000D01*
X182670737Y-68102882D01*
X182594200Y-68118106D01*
X182566061Y-68126642D01*
X182540126Y-68140504D01*
X182475242Y-68183859D01*
X182452512Y-68202514D01*
X182433859Y-68225242D01*
X182390504Y-68290126D01*
X182376643Y-68316059D01*
X182368106Y-68344200D01*
X182365681Y-68356391D01*
X182355065Y-68391388D01*
X182348307Y-68460000D01*
X182348307Y-69260000D01*
X182350000Y-69277189D01*
X182350000Y-69785226D01*
X182343479Y-69818008D01*
X182333277Y-69833277D01*
X182318008Y-69843479D01*
X182285226Y-69850000D01*
X179214774Y-69850000D01*
X179181992Y-69843479D01*
X179166723Y-69833277D01*
X179156521Y-69818008D01*
X179150000Y-69785226D01*
X179150000Y-66964774D01*
X179156521Y-66931992D01*
X179166723Y-66916723D01*
X179181992Y-66906521D01*
X179214774Y-66900000D01*
X184785226Y-66900000D01*
X184818008Y-66906521D01*
G37*
X184818008Y-66906521D02*
X184833277Y-66916723D01*
X184843479Y-66931992D01*
X184850000Y-66964774D01*
X184850000Y-68035226D01*
X184843479Y-68068008D01*
X184833277Y-68083277D01*
X184818008Y-68093479D01*
X184785226Y-68100000D01*
X182700000Y-68100000D01*
X182670737Y-68102882D01*
X182594200Y-68118106D01*
X182566061Y-68126642D01*
X182540126Y-68140504D01*
X182475242Y-68183859D01*
X182452512Y-68202514D01*
X182433859Y-68225242D01*
X182390504Y-68290126D01*
X182376643Y-68316059D01*
X182368106Y-68344200D01*
X182365681Y-68356391D01*
X182355065Y-68391388D01*
X182348307Y-68460000D01*
X182348307Y-69260000D01*
X182350000Y-69277189D01*
X182350000Y-69785226D01*
X182343479Y-69818008D01*
X182333277Y-69833277D01*
X182318008Y-69843479D01*
X182285226Y-69850000D01*
X179214774Y-69850000D01*
X179181992Y-69843479D01*
X179166723Y-69833277D01*
X179156521Y-69818008D01*
X179150000Y-69785226D01*
X179150000Y-66964774D01*
X179156521Y-66931992D01*
X179166723Y-66916723D01*
X179181992Y-66906521D01*
X179214774Y-66900000D01*
X184785226Y-66900000D01*
X184818008Y-66906521D01*
%TO.N,+12V*%
G36*
X184818008Y-70406521D02*
G01*
X184833277Y-70416723D01*
X184843479Y-70431992D01*
X184850000Y-70464774D01*
X184850000Y-71528307D01*
X182700000Y-71528307D01*
X182631388Y-71535065D01*
X182565413Y-71555078D01*
X182504610Y-71587578D01*
X182451315Y-71631315D01*
X182407578Y-71684610D01*
X182375078Y-71745413D01*
X182355065Y-71811388D01*
X182348307Y-71880000D01*
X182348307Y-72680000D01*
X182350000Y-72697189D01*
X182350000Y-73285226D01*
X182343479Y-73318008D01*
X182333277Y-73333277D01*
X182318008Y-73343479D01*
X182285226Y-73350000D01*
X179214774Y-73350000D01*
X179181992Y-73343479D01*
X179166723Y-73333277D01*
X179156521Y-73318008D01*
X179150000Y-73285226D01*
X179150000Y-70464774D01*
X179156521Y-70431992D01*
X179166723Y-70416723D01*
X179181992Y-70406521D01*
X179214774Y-70400000D01*
X184785226Y-70400000D01*
X184818008Y-70406521D01*
G37*
X184818008Y-70406521D02*
X184833277Y-70416723D01*
X184843479Y-70431992D01*
X184850000Y-70464774D01*
X184850000Y-71528307D01*
X182700000Y-71528307D01*
X182631388Y-71535065D01*
X182565413Y-71555078D01*
X182504610Y-71587578D01*
X182451315Y-71631315D01*
X182407578Y-71684610D01*
X182375078Y-71745413D01*
X182355065Y-71811388D01*
X182348307Y-71880000D01*
X182348307Y-72680000D01*
X182350000Y-72697189D01*
X182350000Y-73285226D01*
X182343479Y-73318008D01*
X182333277Y-73333277D01*
X182318008Y-73343479D01*
X182285226Y-73350000D01*
X179214774Y-73350000D01*
X179181992Y-73343479D01*
X179166723Y-73333277D01*
X179156521Y-73318008D01*
X179150000Y-73285226D01*
X179150000Y-70464774D01*
X179156521Y-70431992D01*
X179166723Y-70416723D01*
X179181992Y-70406521D01*
X179214774Y-70400000D01*
X184785226Y-70400000D01*
X184818008Y-70406521D01*
%TO.N,GND*%
G36*
X184818008Y-80906521D02*
G01*
X184833277Y-80916723D01*
X184843479Y-80931992D01*
X184850000Y-80964774D01*
X184850000Y-82035226D01*
X184843479Y-82068008D01*
X184833277Y-82083277D01*
X184818008Y-82093479D01*
X184785226Y-82100000D01*
X182700000Y-82100000D01*
X182670737Y-82102882D01*
X182594200Y-82118106D01*
X182566061Y-82126642D01*
X182540126Y-82140504D01*
X182475242Y-82183859D01*
X182452512Y-82202514D01*
X182433859Y-82225242D01*
X182390504Y-82290126D01*
X182376643Y-82316059D01*
X182368106Y-82344200D01*
X182365681Y-82356391D01*
X182355065Y-82391388D01*
X182348307Y-82460000D01*
X182348307Y-83260000D01*
X182350000Y-83277189D01*
X182350000Y-83785226D01*
X182343479Y-83818008D01*
X182333277Y-83833277D01*
X182318008Y-83843479D01*
X182285226Y-83850000D01*
X179214774Y-83850000D01*
X179181992Y-83843479D01*
X179166723Y-83833277D01*
X179156521Y-83818008D01*
X179150000Y-83785226D01*
X179150000Y-80964774D01*
X179156521Y-80931992D01*
X179166723Y-80916723D01*
X179181992Y-80906521D01*
X179214774Y-80900000D01*
X184785226Y-80900000D01*
X184818008Y-80906521D01*
G37*
X184818008Y-80906521D02*
X184833277Y-80916723D01*
X184843479Y-80931992D01*
X184850000Y-80964774D01*
X184850000Y-82035226D01*
X184843479Y-82068008D01*
X184833277Y-82083277D01*
X184818008Y-82093479D01*
X184785226Y-82100000D01*
X182700000Y-82100000D01*
X182670737Y-82102882D01*
X182594200Y-82118106D01*
X182566061Y-82126642D01*
X182540126Y-82140504D01*
X182475242Y-82183859D01*
X182452512Y-82202514D01*
X182433859Y-82225242D01*
X182390504Y-82290126D01*
X182376643Y-82316059D01*
X182368106Y-82344200D01*
X182365681Y-82356391D01*
X182355065Y-82391388D01*
X182348307Y-82460000D01*
X182348307Y-83260000D01*
X182350000Y-83277189D01*
X182350000Y-83785226D01*
X182343479Y-83818008D01*
X182333277Y-83833277D01*
X182318008Y-83843479D01*
X182285226Y-83850000D01*
X179214774Y-83850000D01*
X179181992Y-83843479D01*
X179166723Y-83833277D01*
X179156521Y-83818008D01*
X179150000Y-83785226D01*
X179150000Y-80964774D01*
X179156521Y-80931992D01*
X179166723Y-80916723D01*
X179181992Y-80906521D01*
X179214774Y-80900000D01*
X184785226Y-80900000D01*
X184818008Y-80906521D01*
%TO.N,+12V*%
G36*
X184818008Y-84406521D02*
G01*
X184833277Y-84416723D01*
X184843479Y-84431992D01*
X184850000Y-84464774D01*
X184850000Y-85528307D01*
X182700000Y-85528307D01*
X182631388Y-85535065D01*
X182565413Y-85555078D01*
X182504610Y-85587578D01*
X182451315Y-85631315D01*
X182407578Y-85684610D01*
X182375078Y-85745413D01*
X182355065Y-85811388D01*
X182348307Y-85880000D01*
X182348307Y-86680000D01*
X182350000Y-86697189D01*
X182350000Y-87285226D01*
X182343479Y-87318008D01*
X182333277Y-87333277D01*
X182318008Y-87343479D01*
X182285226Y-87350000D01*
X179214774Y-87350000D01*
X179181992Y-87343479D01*
X179166723Y-87333277D01*
X179156521Y-87318008D01*
X179150000Y-87285226D01*
X179150000Y-84464774D01*
X179156521Y-84431992D01*
X179166723Y-84416723D01*
X179181992Y-84406521D01*
X179214774Y-84400000D01*
X184785226Y-84400000D01*
X184818008Y-84406521D01*
G37*
X184818008Y-84406521D02*
X184833277Y-84416723D01*
X184843479Y-84431992D01*
X184850000Y-84464774D01*
X184850000Y-85528307D01*
X182700000Y-85528307D01*
X182631388Y-85535065D01*
X182565413Y-85555078D01*
X182504610Y-85587578D01*
X182451315Y-85631315D01*
X182407578Y-85684610D01*
X182375078Y-85745413D01*
X182355065Y-85811388D01*
X182348307Y-85880000D01*
X182348307Y-86680000D01*
X182350000Y-86697189D01*
X182350000Y-87285226D01*
X182343479Y-87318008D01*
X182333277Y-87333277D01*
X182318008Y-87343479D01*
X182285226Y-87350000D01*
X179214774Y-87350000D01*
X179181992Y-87343479D01*
X179166723Y-87333277D01*
X179156521Y-87318008D01*
X179150000Y-87285226D01*
X179150000Y-84464774D01*
X179156521Y-84431992D01*
X179166723Y-84416723D01*
X179181992Y-84406521D01*
X179214774Y-84400000D01*
X184785226Y-84400000D01*
X184818008Y-84406521D01*
%TO.N,GND*%
G36*
X184818008Y-91906521D02*
G01*
X184833277Y-91916723D01*
X184843479Y-91931992D01*
X184850000Y-91964774D01*
X184850000Y-93035226D01*
X184843479Y-93068008D01*
X184833277Y-93083277D01*
X184818008Y-93093479D01*
X184785226Y-93100000D01*
X182700000Y-93100000D01*
X182670737Y-93102882D01*
X182643463Y-93108307D01*
X182600000Y-93108307D01*
X182531388Y-93115065D01*
X182465413Y-93135078D01*
X182404610Y-93167578D01*
X182351315Y-93211315D01*
X182307578Y-93264610D01*
X182275078Y-93325413D01*
X182255065Y-93391388D01*
X182248307Y-93460000D01*
X182248307Y-94260000D01*
X182255065Y-94328612D01*
X182275078Y-94394587D01*
X182307578Y-94455390D01*
X182350000Y-94507083D01*
X182350000Y-94785226D01*
X182343479Y-94818008D01*
X182333277Y-94833277D01*
X182318008Y-94843479D01*
X182285226Y-94850000D01*
X179214774Y-94850000D01*
X179181992Y-94843479D01*
X179166723Y-94833277D01*
X179156521Y-94818008D01*
X179150000Y-94785226D01*
X179150000Y-91964774D01*
X179156521Y-91931992D01*
X179166723Y-91916723D01*
X179181992Y-91906521D01*
X179214774Y-91900000D01*
X184785226Y-91900000D01*
X184818008Y-91906521D01*
G37*
X184818008Y-91906521D02*
X184833277Y-91916723D01*
X184843479Y-91931992D01*
X184850000Y-91964774D01*
X184850000Y-93035226D01*
X184843479Y-93068008D01*
X184833277Y-93083277D01*
X184818008Y-93093479D01*
X184785226Y-93100000D01*
X182700000Y-93100000D01*
X182670737Y-93102882D01*
X182643463Y-93108307D01*
X182600000Y-93108307D01*
X182531388Y-93115065D01*
X182465413Y-93135078D01*
X182404610Y-93167578D01*
X182351315Y-93211315D01*
X182307578Y-93264610D01*
X182275078Y-93325413D01*
X182255065Y-93391388D01*
X182248307Y-93460000D01*
X182248307Y-94260000D01*
X182255065Y-94328612D01*
X182275078Y-94394587D01*
X182307578Y-94455390D01*
X182350000Y-94507083D01*
X182350000Y-94785226D01*
X182343479Y-94818008D01*
X182333277Y-94833277D01*
X182318008Y-94843479D01*
X182285226Y-94850000D01*
X179214774Y-94850000D01*
X179181992Y-94843479D01*
X179166723Y-94833277D01*
X179156521Y-94818008D01*
X179150000Y-94785226D01*
X179150000Y-91964774D01*
X179156521Y-91931992D01*
X179166723Y-91916723D01*
X179181992Y-91906521D01*
X179214774Y-91900000D01*
X184785226Y-91900000D01*
X184818008Y-91906521D01*
%TO.N,+12V*%
G36*
X184818008Y-95406521D02*
G01*
X184833277Y-95416723D01*
X184843479Y-95431992D01*
X184850000Y-95464774D01*
X184850000Y-96533232D01*
X184800000Y-96528307D01*
X182600000Y-96528307D01*
X182531388Y-96535065D01*
X182465413Y-96555078D01*
X182404610Y-96587578D01*
X182351315Y-96631315D01*
X182307578Y-96684610D01*
X182275078Y-96745413D01*
X182255065Y-96811388D01*
X182248307Y-96880000D01*
X182248307Y-97680000D01*
X182255065Y-97748612D01*
X182275078Y-97814587D01*
X182307578Y-97875390D01*
X182350000Y-97927083D01*
X182350000Y-98285226D01*
X182343479Y-98318008D01*
X182333277Y-98333277D01*
X182318008Y-98343479D01*
X182285226Y-98350000D01*
X179214774Y-98350000D01*
X179181992Y-98343479D01*
X179166723Y-98333277D01*
X179156521Y-98318008D01*
X179150000Y-98285226D01*
X179150000Y-95464774D01*
X179156521Y-95431992D01*
X179166723Y-95416723D01*
X179181992Y-95406521D01*
X179214774Y-95400000D01*
X184785226Y-95400000D01*
X184818008Y-95406521D01*
G37*
X184818008Y-95406521D02*
X184833277Y-95416723D01*
X184843479Y-95431992D01*
X184850000Y-95464774D01*
X184850000Y-96533232D01*
X184800000Y-96528307D01*
X182600000Y-96528307D01*
X182531388Y-96535065D01*
X182465413Y-96555078D01*
X182404610Y-96587578D01*
X182351315Y-96631315D01*
X182307578Y-96684610D01*
X182275078Y-96745413D01*
X182255065Y-96811388D01*
X182248307Y-96880000D01*
X182248307Y-97680000D01*
X182255065Y-97748612D01*
X182275078Y-97814587D01*
X182307578Y-97875390D01*
X182350000Y-97927083D01*
X182350000Y-98285226D01*
X182343479Y-98318008D01*
X182333277Y-98333277D01*
X182318008Y-98343479D01*
X182285226Y-98350000D01*
X179214774Y-98350000D01*
X179181992Y-98343479D01*
X179166723Y-98333277D01*
X179156521Y-98318008D01*
X179150000Y-98285226D01*
X179150000Y-95464774D01*
X179156521Y-95431992D01*
X179166723Y-95416723D01*
X179181992Y-95406521D01*
X179214774Y-95400000D01*
X184785226Y-95400000D01*
X184818008Y-95406521D01*
%TD*%
M02*
