%TF.GenerationSoftware,KiCad,Pcbnew,(5.1.5-131-g305ed0b65)-1*%
%TF.CreationDate,2021-01-25T18:11:24+08:00*%
%TF.ProjectId,OpenTEC,4f70656e-5445-4432-9e6b-696361645f70,rev?*%
%TF.SameCoordinates,Original*%
%TF.FileFunction,Copper,L4,Bot*%
%TF.FilePolarity,Positive*%
%FSLAX46Y46*%
G04 Gerber Fmt 4.6, Leading zero omitted, Abs format (unit mm)*
G04 Created by KiCad (PCBNEW (5.1.5-131-g305ed0b65)-1) date 2021-01-25 18:11:24*
%MOMM*%
%LPD*%
G01*
G04 APERTURE LIST*
%TA.AperFunction,ComponentPad*%
%ADD10C,6.400000*%
%TD*%
%TA.AperFunction,ComponentPad*%
%ADD11C,0.800000*%
%TD*%
%TA.AperFunction,ComponentPad*%
%ADD12O,1.050000X1.900000*%
%TD*%
%TA.AperFunction,ComponentPad*%
%ADD13C,3.000000*%
%TD*%
%TA.AperFunction,ComponentPad*%
%ADD14R,3.000000X3.000000*%
%TD*%
%TA.AperFunction,ComponentPad*%
%ADD15R,1.700000X1.700000*%
%TD*%
%TA.AperFunction,ComponentPad*%
%ADD16O,1.700000X1.700000*%
%TD*%
%TA.AperFunction,ComponentPad*%
%ADD17O,1.700000X2.000000*%
%TD*%
%TA.AperFunction,ComponentPad*%
%ADD18C,1.440000*%
%TD*%
%TA.AperFunction,ViaPad*%
%ADD19C,0.600000*%
%TD*%
%TA.AperFunction,Conductor*%
%ADD20C,2.000000*%
%TD*%
%TA.AperFunction,Conductor*%
%ADD21C,0.250000*%
%TD*%
G04 APERTURE END LIST*
D10*
%TO.P,H1,1*%
%TO.N,Earth*%
X79000000Y-51000000D03*
D11*
X81400000Y-51000000D03*
X80697056Y-52697056D03*
X79000000Y-53400000D03*
X77302944Y-52697056D03*
X76600000Y-51000000D03*
X77302944Y-49302944D03*
X79000000Y-48600000D03*
X80697056Y-49302944D03*
%TD*%
%TO.P,H2,1*%
%TO.N,Earth*%
X200697056Y-49302944D03*
X199000000Y-48600000D03*
X197302944Y-49302944D03*
X196600000Y-51000000D03*
X197302944Y-52697056D03*
X199000000Y-53400000D03*
X200697056Y-52697056D03*
X201400000Y-51000000D03*
D10*
X199000000Y-51000000D03*
%TD*%
%TO.P,H3,1*%
%TO.N,Earth*%
X199000000Y-131000000D03*
D11*
X201400000Y-131000000D03*
X200697056Y-132697056D03*
X199000000Y-133400000D03*
X197302944Y-132697056D03*
X196600000Y-131000000D03*
X197302944Y-129302944D03*
X199000000Y-128600000D03*
X200697056Y-129302944D03*
%TD*%
%TO.P,H4,1*%
%TO.N,Earth*%
X80697056Y-129302944D03*
X79000000Y-128600000D03*
X77302944Y-129302944D03*
X76600000Y-131000000D03*
X77302944Y-132697056D03*
X79000000Y-133400000D03*
X80697056Y-132697056D03*
X81400000Y-131000000D03*
D10*
X79000000Y-131000000D03*
%TD*%
D12*
%TO.P,J1,6*%
%TO.N,Earth*%
X98575000Y-47800000D03*
X91425000Y-47800000D03*
%TD*%
D13*
%TO.P,J2,2*%
%TO.N,+12V*%
X171920000Y-50000000D03*
%TO.P,J2,3*%
%TO.N,GND*%
X166840000Y-50000000D03*
D14*
%TO.P,J2,1*%
%TO.N,+12V*%
X177000000Y-50000000D03*
D13*
%TO.P,J2,4*%
%TO.N,GND*%
X161760000Y-50000000D03*
%TD*%
D15*
%TO.P,J3,1*%
%TO.N,+3V3*%
X104000000Y-71000000D03*
D16*
%TO.P,J3,2*%
%TO.N,JTAG_MS*%
X106540000Y-71000000D03*
%TO.P,J3,3*%
%TO.N,GND*%
X104000000Y-73540000D03*
%TO.P,J3,4*%
%TO.N,JTAG_CLK*%
X106540000Y-73540000D03*
%TO.P,J3,5*%
%TO.N,GND*%
X104000000Y-76080000D03*
%TO.P,J3,6*%
%TO.N,JTAG_DO*%
X106540000Y-76080000D03*
%TO.P,J3,7*%
%TO.N,Net-(J3-Pad7)*%
X104000000Y-78620000D03*
%TO.P,J3,8*%
%TO.N,JTAG_DI*%
X106540000Y-78620000D03*
%TO.P,J3,9*%
%TO.N,GND*%
X104000000Y-81160000D03*
%TO.P,J3,10*%
%TO.N,nRST*%
X106540000Y-81160000D03*
%TD*%
D15*
%TO.P,J5,1*%
%TO.N,+3V3*%
X102000000Y-132000000D03*
D16*
%TO.P,J5,2*%
%TO.N,I2C_SCL*%
X104540000Y-132000000D03*
%TO.P,J5,3*%
%TO.N,I2C_SDA*%
X107080000Y-132000000D03*
%TO.P,J5,4*%
%TO.N,GND*%
X109620000Y-132000000D03*
%TD*%
D15*
%TO.P,J6,1*%
%TO.N,+3V3*%
X89000000Y-85000000D03*
D16*
%TO.P,J6,2*%
%TO.N,BOOT*%
X91540000Y-85000000D03*
%TO.P,J6,3*%
%TO.N,GND*%
X94080000Y-85000000D03*
%TD*%
D15*
%TO.P,J7,1*%
%TO.N,+3V3*%
X79000000Y-70000000D03*
D16*
%TO.P,J7,2*%
%TO.N,TEMP0*%
X79000000Y-72540000D03*
%TO.P,J7,3*%
%TO.N,GND*%
X79000000Y-75080000D03*
%TD*%
%TO.P,J8,3*%
%TO.N,GND*%
X79000000Y-86080000D03*
%TO.P,J8,2*%
%TO.N,TEMP1*%
X79000000Y-83540000D03*
D15*
%TO.P,J8,1*%
%TO.N,+3V3*%
X79000000Y-81000000D03*
%TD*%
%TO.P,J9,1*%
%TO.N,+3V3*%
X79000000Y-92000000D03*
D16*
%TO.P,J9,2*%
%TO.N,TEMP2*%
X79000000Y-94540000D03*
%TO.P,J9,3*%
%TO.N,GND*%
X79000000Y-97080000D03*
%TD*%
%TO.P,J10,3*%
%TO.N,GND*%
X79000000Y-108080000D03*
%TO.P,J10,2*%
%TO.N,TEMP3*%
X79000000Y-105540000D03*
D15*
%TO.P,J10,1*%
%TO.N,+3V3*%
X79000000Y-103000000D03*
%TD*%
D13*
%TO.P,J11,2*%
%TO.N,Net-(J11-Pad2)*%
X200000000Y-61920000D03*
D14*
%TO.P,J11,1*%
%TO.N,Net-(J11-Pad1)*%
X200000000Y-67000000D03*
%TD*%
%TO.P,J12,1*%
%TO.N,Net-(J12-Pad1)*%
X200000000Y-92000000D03*
D13*
%TO.P,J12,2*%
%TO.N,Net-(J12-Pad2)*%
X200000000Y-86920000D03*
%TD*%
D17*
%TO.P,J13,2*%
%TO.N,GND*%
X125500000Y-50000000D03*
%TO.P,J13,1*%
%TO.N,+12V*%
%TA.AperFunction,ComponentPad*%
G36*
G01*
X122150000Y-50750000D02*
X122150000Y-49250000D01*
G75*
G02*
X122400000Y-49000000I250000J0D01*
G01*
X123600000Y-49000000D01*
G75*
G02*
X123850000Y-49250000I0J-250000D01*
G01*
X123850000Y-50750000D01*
G75*
G02*
X123600000Y-51000000I-250000J0D01*
G01*
X122400000Y-51000000D01*
G75*
G02*
X122150000Y-50750000I0J250000D01*
G01*
G37*
%TD.AperFunction*%
%TD*%
%TO.P,J14,1*%
%TO.N,+12V*%
%TA.AperFunction,ComponentPad*%
G36*
G01*
X135150000Y-50750000D02*
X135150000Y-49250000D01*
G75*
G02*
X135400000Y-49000000I250000J0D01*
G01*
X136600000Y-49000000D01*
G75*
G02*
X136850000Y-49250000I0J-250000D01*
G01*
X136850000Y-50750000D01*
G75*
G02*
X136600000Y-51000000I-250000J0D01*
G01*
X135400000Y-51000000D01*
G75*
G02*
X135150000Y-50750000I0J250000D01*
G01*
G37*
%TD.AperFunction*%
%TO.P,J14,2*%
%TO.N,GND*%
X138500000Y-50000000D03*
%TD*%
%TO.P,J15,1*%
%TO.N,+12V*%
%TA.AperFunction,ComponentPad*%
G36*
G01*
X143150000Y-107750000D02*
X143150000Y-106250000D01*
G75*
G02*
X143400000Y-106000000I250000J0D01*
G01*
X144600000Y-106000000D01*
G75*
G02*
X144850000Y-106250000I0J-250000D01*
G01*
X144850000Y-107750000D01*
G75*
G02*
X144600000Y-108000000I-250000J0D01*
G01*
X143400000Y-108000000D01*
G75*
G02*
X143150000Y-107750000I0J250000D01*
G01*
G37*
%TD.AperFunction*%
%TO.P,J15,2*%
%TO.N,GND*%
X146500000Y-107000000D03*
%TD*%
%TO.P,J16,2*%
%TO.N,GND*%
X158500000Y-107000000D03*
%TO.P,J16,1*%
%TO.N,+12V*%
%TA.AperFunction,ComponentPad*%
G36*
G01*
X155150000Y-107750000D02*
X155150000Y-106250000D01*
G75*
G02*
X155400000Y-106000000I250000J0D01*
G01*
X156600000Y-106000000D01*
G75*
G02*
X156850000Y-106250000I0J-250000D01*
G01*
X156850000Y-107750000D01*
G75*
G02*
X156600000Y-108000000I-250000J0D01*
G01*
X155400000Y-108000000D01*
G75*
G02*
X155150000Y-107750000I0J250000D01*
G01*
G37*
%TD.AperFunction*%
%TD*%
%TO.P,J17,1*%
%TO.N,+12V*%
%TA.AperFunction,ComponentPad*%
G36*
G01*
X167150000Y-107750000D02*
X167150000Y-106250000D01*
G75*
G02*
X167400000Y-106000000I250000J0D01*
G01*
X168600000Y-106000000D01*
G75*
G02*
X168850000Y-106250000I0J-250000D01*
G01*
X168850000Y-107750000D01*
G75*
G02*
X168600000Y-108000000I-250000J0D01*
G01*
X167400000Y-108000000D01*
G75*
G02*
X167150000Y-107750000I0J250000D01*
G01*
G37*
%TD.AperFunction*%
%TO.P,J17,2*%
%TO.N,GND*%
X170500000Y-107000000D03*
%TD*%
%TO.P,J18,2*%
%TO.N,GND*%
X182500000Y-107000000D03*
%TO.P,J18,1*%
%TO.N,+12V*%
%TA.AperFunction,ComponentPad*%
G36*
G01*
X179150000Y-107750000D02*
X179150000Y-106250000D01*
G75*
G02*
X179400000Y-106000000I250000J0D01*
G01*
X180600000Y-106000000D01*
G75*
G02*
X180850000Y-106250000I0J-250000D01*
G01*
X180850000Y-107750000D01*
G75*
G02*
X180600000Y-108000000I-250000J0D01*
G01*
X179400000Y-108000000D01*
G75*
G02*
X179150000Y-107750000I0J250000D01*
G01*
G37*
%TD.AperFunction*%
%TD*%
%TO.P,J19,1*%
%TO.N,+12V*%
%TA.AperFunction,ComponentPad*%
G36*
G01*
X191150000Y-107750000D02*
X191150000Y-106250000D01*
G75*
G02*
X191400000Y-106000000I250000J0D01*
G01*
X192600000Y-106000000D01*
G75*
G02*
X192850000Y-106250000I0J-250000D01*
G01*
X192850000Y-107750000D01*
G75*
G02*
X192600000Y-108000000I-250000J0D01*
G01*
X191400000Y-108000000D01*
G75*
G02*
X191150000Y-107750000I0J250000D01*
G01*
G37*
%TD.AperFunction*%
%TO.P,J19,2*%
%TO.N,GND*%
X194500000Y-107000000D03*
%TD*%
%TO.P,J20,2*%
%TO.N,GND*%
X146500000Y-118000000D03*
%TO.P,J20,1*%
%TO.N,+12V*%
%TA.AperFunction,ComponentPad*%
G36*
G01*
X143150000Y-118750000D02*
X143150000Y-117250000D01*
G75*
G02*
X143400000Y-117000000I250000J0D01*
G01*
X144600000Y-117000000D01*
G75*
G02*
X144850000Y-117250000I0J-250000D01*
G01*
X144850000Y-118750000D01*
G75*
G02*
X144600000Y-119000000I-250000J0D01*
G01*
X143400000Y-119000000D01*
G75*
G02*
X143150000Y-118750000I0J250000D01*
G01*
G37*
%TD.AperFunction*%
%TD*%
%TO.P,J21,1*%
%TO.N,+12V*%
%TA.AperFunction,ComponentPad*%
G36*
G01*
X155150000Y-118750000D02*
X155150000Y-117250000D01*
G75*
G02*
X155400000Y-117000000I250000J0D01*
G01*
X156600000Y-117000000D01*
G75*
G02*
X156850000Y-117250000I0J-250000D01*
G01*
X156850000Y-118750000D01*
G75*
G02*
X156600000Y-119000000I-250000J0D01*
G01*
X155400000Y-119000000D01*
G75*
G02*
X155150000Y-118750000I0J250000D01*
G01*
G37*
%TD.AperFunction*%
%TO.P,J21,2*%
%TO.N,GND*%
X158500000Y-118000000D03*
%TD*%
%TO.P,J22,2*%
%TO.N,GND*%
X170500000Y-118000000D03*
%TO.P,J22,1*%
%TO.N,+12V*%
%TA.AperFunction,ComponentPad*%
G36*
G01*
X167150000Y-118750000D02*
X167150000Y-117250000D01*
G75*
G02*
X167400000Y-117000000I250000J0D01*
G01*
X168600000Y-117000000D01*
G75*
G02*
X168850000Y-117250000I0J-250000D01*
G01*
X168850000Y-118750000D01*
G75*
G02*
X168600000Y-119000000I-250000J0D01*
G01*
X167400000Y-119000000D01*
G75*
G02*
X167150000Y-118750000I0J250000D01*
G01*
G37*
%TD.AperFunction*%
%TD*%
%TO.P,J23,1*%
%TO.N,+12V*%
%TA.AperFunction,ComponentPad*%
G36*
G01*
X179150000Y-118750000D02*
X179150000Y-117250000D01*
G75*
G02*
X179400000Y-117000000I250000J0D01*
G01*
X180600000Y-117000000D01*
G75*
G02*
X180850000Y-117250000I0J-250000D01*
G01*
X180850000Y-118750000D01*
G75*
G02*
X180600000Y-119000000I-250000J0D01*
G01*
X179400000Y-119000000D01*
G75*
G02*
X179150000Y-118750000I0J250000D01*
G01*
G37*
%TD.AperFunction*%
%TO.P,J23,2*%
%TO.N,GND*%
X182500000Y-118000000D03*
%TD*%
%TO.P,J24,2*%
%TO.N,GND*%
X194500000Y-118000000D03*
%TO.P,J24,1*%
%TO.N,+12V*%
%TA.AperFunction,ComponentPad*%
G36*
G01*
X191150000Y-118750000D02*
X191150000Y-117250000D01*
G75*
G02*
X191400000Y-117000000I250000J0D01*
G01*
X192600000Y-117000000D01*
G75*
G02*
X192850000Y-117250000I0J-250000D01*
G01*
X192850000Y-118750000D01*
G75*
G02*
X192600000Y-119000000I-250000J0D01*
G01*
X191400000Y-119000000D01*
G75*
G02*
X191150000Y-118750000I0J250000D01*
G01*
G37*
%TD.AperFunction*%
%TD*%
%TO.P,J25,1*%
%TO.N,+12V*%
%TA.AperFunction,ComponentPad*%
G36*
G01*
X143150000Y-129750000D02*
X143150000Y-128250000D01*
G75*
G02*
X143400000Y-128000000I250000J0D01*
G01*
X144600000Y-128000000D01*
G75*
G02*
X144850000Y-128250000I0J-250000D01*
G01*
X144850000Y-129750000D01*
G75*
G02*
X144600000Y-130000000I-250000J0D01*
G01*
X143400000Y-130000000D01*
G75*
G02*
X143150000Y-129750000I0J250000D01*
G01*
G37*
%TD.AperFunction*%
%TO.P,J25,2*%
%TO.N,GND*%
X146500000Y-129000000D03*
%TD*%
%TO.P,J26,2*%
%TO.N,GND*%
X158500000Y-129000000D03*
%TO.P,J26,1*%
%TO.N,+12V*%
%TA.AperFunction,ComponentPad*%
G36*
G01*
X155150000Y-129750000D02*
X155150000Y-128250000D01*
G75*
G02*
X155400000Y-128000000I250000J0D01*
G01*
X156600000Y-128000000D01*
G75*
G02*
X156850000Y-128250000I0J-250000D01*
G01*
X156850000Y-129750000D01*
G75*
G02*
X156600000Y-130000000I-250000J0D01*
G01*
X155400000Y-130000000D01*
G75*
G02*
X155150000Y-129750000I0J250000D01*
G01*
G37*
%TD.AperFunction*%
%TD*%
%TO.P,J27,1*%
%TO.N,+12V*%
%TA.AperFunction,ComponentPad*%
G36*
G01*
X167150000Y-129750000D02*
X167150000Y-128250000D01*
G75*
G02*
X167400000Y-128000000I250000J0D01*
G01*
X168600000Y-128000000D01*
G75*
G02*
X168850000Y-128250000I0J-250000D01*
G01*
X168850000Y-129750000D01*
G75*
G02*
X168600000Y-130000000I-250000J0D01*
G01*
X167400000Y-130000000D01*
G75*
G02*
X167150000Y-129750000I0J250000D01*
G01*
G37*
%TD.AperFunction*%
%TO.P,J27,2*%
%TO.N,GND*%
X170500000Y-129000000D03*
%TD*%
%TO.P,J28,2*%
%TO.N,GND*%
X182500000Y-129000000D03*
%TO.P,J28,1*%
%TO.N,+12V*%
%TA.AperFunction,ComponentPad*%
G36*
G01*
X179150000Y-129750000D02*
X179150000Y-128250000D01*
G75*
G02*
X179400000Y-128000000I250000J0D01*
G01*
X180600000Y-128000000D01*
G75*
G02*
X180850000Y-128250000I0J-250000D01*
G01*
X180850000Y-129750000D01*
G75*
G02*
X180600000Y-130000000I-250000J0D01*
G01*
X179400000Y-130000000D01*
G75*
G02*
X179150000Y-129750000I0J250000D01*
G01*
G37*
%TD.AperFunction*%
%TD*%
D18*
%TO.P,RV1,3*%
%TO.N,GND*%
X145000000Y-72080000D03*
%TO.P,RV1,2*%
%TO.N,Net-(J4-Pad3)*%
X142460000Y-69540000D03*
%TO.P,RV1,1*%
%TO.N,+3V3*%
X145000000Y-67000000D03*
%TD*%
D15*
%TO.P,J4,1*%
%TO.N,GND*%
X147000000Y-61000000D03*
D16*
%TO.P,J4,2*%
%TO.N,+3V3*%
X144460000Y-61000000D03*
%TO.P,J4,3*%
%TO.N,Net-(J4-Pad3)*%
X141920000Y-61000000D03*
%TO.P,J4,4*%
%TO.N,LCD_RS*%
X139380000Y-61000000D03*
%TO.P,J4,5*%
%TO.N,GND*%
X136840000Y-61000000D03*
%TO.P,J4,6*%
%TO.N,LCD_EN*%
X134300000Y-61000000D03*
%TO.P,J4,7*%
%TO.N,GND*%
X131760000Y-61000000D03*
%TO.P,J4,8*%
X129220000Y-61000000D03*
%TO.P,J4,9*%
X126680000Y-61000000D03*
%TO.P,J4,10*%
X124140000Y-61000000D03*
%TO.P,J4,11*%
%TO.N,LCD_D4*%
X121600000Y-61000000D03*
%TO.P,J4,12*%
%TO.N,LCD_D5*%
X119060000Y-61000000D03*
%TO.P,J4,13*%
%TO.N,LCD_D6*%
X116520000Y-61000000D03*
%TO.P,J4,14*%
%TO.N,LCD_D7*%
X113980000Y-61000000D03*
%TO.P,J4,15*%
%TO.N,+3V3*%
X111440000Y-61000000D03*
%TO.P,J4,16*%
%TO.N,GND*%
X108900000Y-61000000D03*
%TD*%
D19*
%TO.N,+12V*%
X159500000Y-60000000D03*
X159500000Y-60750000D03*
X159500000Y-61500000D03*
X158750000Y-60000000D03*
X158750000Y-60750000D03*
X158750000Y-61500000D03*
X158000000Y-60000000D03*
X158000000Y-60750000D03*
X158000000Y-61500000D03*
X179500000Y-59750000D03*
X180250000Y-59750000D03*
X181000000Y-59750000D03*
X181750000Y-59750000D03*
X181750000Y-60500000D03*
X181750000Y-61250000D03*
X181750000Y-62000000D03*
X181000000Y-62000000D03*
X181000000Y-61250000D03*
X181000000Y-60500000D03*
X180250000Y-60500000D03*
X179500000Y-60500000D03*
X179500000Y-61250000D03*
X180250000Y-61250000D03*
X180250000Y-62000000D03*
X179500000Y-62000000D03*
X181750000Y-70750000D03*
X181750000Y-71500000D03*
X181750000Y-72250000D03*
X181750000Y-73000000D03*
X181000000Y-73000000D03*
X180250000Y-73000000D03*
X179500000Y-73000000D03*
X179500000Y-72250000D03*
X179500000Y-71500000D03*
X179500000Y-70750000D03*
X180250000Y-70750000D03*
X181000000Y-70750000D03*
X181000000Y-71500000D03*
X181000000Y-72250000D03*
X180250000Y-72250000D03*
X180250000Y-71500000D03*
X179500000Y-84750000D03*
X180250000Y-84750000D03*
X181000000Y-84750000D03*
X181750000Y-84750000D03*
X181750000Y-85500000D03*
X181750000Y-86250000D03*
X181750000Y-87000000D03*
X181000000Y-87000000D03*
X181000000Y-86250000D03*
X181000000Y-85500000D03*
X180250000Y-85500000D03*
X180250000Y-86250000D03*
X180250000Y-87000000D03*
X179500000Y-87000000D03*
X179500000Y-86250000D03*
X179500000Y-85500000D03*
X181750000Y-95750000D03*
X181750000Y-96500000D03*
X181750000Y-97250000D03*
X181750000Y-98000000D03*
X181000000Y-98000000D03*
X180250000Y-98000000D03*
X179500000Y-98000000D03*
X179500000Y-97250000D03*
X179500000Y-96500000D03*
X179500000Y-95750000D03*
X180250000Y-95750000D03*
X181000000Y-95750000D03*
X181000000Y-96500000D03*
X181000000Y-97250000D03*
X180250000Y-97250000D03*
X180250000Y-96500000D03*
X154500000Y-79000000D03*
X154500000Y-85000000D03*
X154500000Y-91000000D03*
X154500000Y-97000000D03*
%TO.N,GND*%
X167250000Y-79000000D03*
X105500000Y-100500000D03*
X95250000Y-95000000D03*
X97500000Y-89000000D03*
X108500000Y-90750000D03*
X109250000Y-94250000D03*
X112750000Y-95250000D03*
X100250000Y-86250000D03*
X94750000Y-90000000D03*
X91250000Y-96000000D03*
X100750000Y-91000000D03*
X165500000Y-63250000D03*
X165500000Y-62250000D03*
X166500000Y-62250000D03*
X166500000Y-63250000D03*
X166500000Y-64250000D03*
X166500000Y-65250000D03*
X166500000Y-66250000D03*
X165500000Y-71500000D03*
X166500000Y-71500000D03*
X166500000Y-70500000D03*
X166500000Y-69500000D03*
X159500000Y-65250000D03*
X159500000Y-66000000D03*
X158750000Y-65250000D03*
X158750000Y-66000000D03*
X158000000Y-65250000D03*
X158000000Y-66000000D03*
X159500000Y-64500000D03*
X158750000Y-64500000D03*
X158000000Y-64500000D03*
X159500000Y-75750000D03*
X159500000Y-74750000D03*
X165500000Y-70500000D03*
X158750000Y-75750000D03*
X158750000Y-74750000D03*
X158000000Y-74750000D03*
X158000000Y-75750000D03*
X181750000Y-56250000D03*
X181750000Y-57000000D03*
X181750000Y-57750000D03*
X181750000Y-58500000D03*
X181000000Y-56250000D03*
X181000000Y-57000000D03*
X181000000Y-57750000D03*
X181000000Y-58500000D03*
X180250000Y-56250000D03*
X180250000Y-57000000D03*
X180250000Y-57750000D03*
X180250000Y-58500000D03*
X179500000Y-58500000D03*
X179500000Y-57750000D03*
X179500000Y-57000000D03*
X179500000Y-56250000D03*
X181750000Y-67250000D03*
X181750000Y-68000000D03*
X181750000Y-68750000D03*
X181750000Y-69500000D03*
X181000000Y-69500000D03*
X180250000Y-69500000D03*
X179500000Y-69500000D03*
X179500000Y-68750000D03*
X179500000Y-68000000D03*
X179500000Y-67250000D03*
X180250000Y-67250000D03*
X181000000Y-67250000D03*
X181000000Y-68000000D03*
X181000000Y-68750000D03*
X180250000Y-68750000D03*
X180250000Y-68000000D03*
X181750000Y-81250000D03*
X181750000Y-82000000D03*
X181750000Y-82750000D03*
X181750000Y-83500000D03*
X181000000Y-83500000D03*
X180250000Y-83500000D03*
X179500000Y-83500000D03*
X179500000Y-82750000D03*
X179500000Y-82000000D03*
X179500000Y-81250000D03*
X180250000Y-81250000D03*
X181000000Y-81250000D03*
X181000000Y-82000000D03*
X181000000Y-82750000D03*
X180250000Y-82750000D03*
X180250000Y-82000000D03*
X181750000Y-92250000D03*
X181750000Y-93000000D03*
X181750000Y-93750000D03*
X181750000Y-94500000D03*
X181000000Y-94500000D03*
X181000000Y-93750000D03*
X181000000Y-93000000D03*
X181000000Y-92250000D03*
X180250000Y-92250000D03*
X179500000Y-92250000D03*
X179500000Y-93000000D03*
X180250000Y-93000000D03*
X180250000Y-93750000D03*
X179500000Y-93750000D03*
X179500000Y-94500000D03*
X180250000Y-94500000D03*
X149000000Y-93250000D03*
X149000000Y-87250000D03*
X149000000Y-81250000D03*
X149000000Y-99250000D03*
X141000000Y-99250000D03*
X141000000Y-93250000D03*
X141000000Y-87250000D03*
X141000000Y-81250000D03*
X93750000Y-51750000D03*
%TO.N,+3V3*%
X107500000Y-89250000D03*
X106500000Y-100500000D03*
X104500000Y-127250000D03*
X107000000Y-127250000D03*
X95250000Y-96000000D03*
X98500000Y-89000000D03*
X102250000Y-88000000D03*
X109250000Y-93250000D03*
X159500000Y-72500000D03*
X159500000Y-73500000D03*
X158750000Y-73500000D03*
X158750000Y-72500000D03*
X158000000Y-72500000D03*
X158000000Y-73500000D03*
%TO.N,nRST*%
X100250000Y-94250000D03*
%TO.N,LCD_RS*%
X112000000Y-103250000D03*
X136250000Y-101500000D03*
%TO.N,LCD_EN*%
X112750000Y-102500000D03*
X134250000Y-100750000D03*
%TO.N,I2C_SCL*%
X104250000Y-101250000D03*
%TO.N,I2C_SDA*%
X105500000Y-101500000D03*
%TO.N,HB_A1*%
X104750000Y-84125000D03*
X138500000Y-85000000D03*
%TO.N,HB_A2*%
X103750000Y-83500000D03*
X138500000Y-79000000D03*
%TO.N,HB_B1*%
X104000000Y-92750000D03*
X138500000Y-97000000D03*
%TO.N,HB_B2*%
X103250000Y-92000000D03*
X138500000Y-91000000D03*
%TD*%
D20*
%TO.N,+12V*%
X171920000Y-50000000D02*
X166420000Y-55500000D01*
X136000000Y-51000000D02*
X136000000Y-50000000D01*
X140500000Y-55500000D02*
X136000000Y-51000000D01*
X166420000Y-55500000D02*
X140500000Y-55500000D01*
X127500000Y-55500000D02*
X140500000Y-55500000D01*
X123000000Y-51000000D02*
X127500000Y-55500000D01*
X123000000Y-50000000D02*
X123000000Y-51000000D01*
X177000000Y-50000000D02*
X171920000Y-50000000D01*
%TO.N,Earth*%
X79000000Y-51000000D02*
X82774990Y-47225010D01*
X90850010Y-47225010D02*
X91425000Y-47800000D01*
X82774990Y-47225010D02*
X90850010Y-47225010D01*
X199000000Y-51000000D02*
X195225010Y-47225010D01*
X99149990Y-47225010D02*
X98575000Y-47800000D01*
X195225010Y-47225010D02*
X99149990Y-47225010D01*
X79000000Y-51000000D02*
X75225010Y-54774990D01*
X75225010Y-127225010D02*
X79000000Y-131000000D01*
X75225010Y-54774990D02*
X75225010Y-127225010D01*
X195225010Y-134774990D02*
X199000000Y-131000000D01*
X79000000Y-131000000D02*
X82774990Y-134774990D01*
X82774990Y-134774990D02*
X195225010Y-134774990D01*
X199000000Y-131000000D02*
X202774990Y-127225010D01*
X202774990Y-54774990D02*
X199000000Y-51000000D01*
X202774990Y-127225010D02*
X202774990Y-54774990D01*
D21*
%TO.N,nRST*%
X100250000Y-94250000D02*
X101375001Y-93124999D01*
X101375001Y-93124999D02*
X101375001Y-84374999D01*
X101375001Y-84374999D02*
X103000000Y-82750000D01*
X104950000Y-82750000D02*
X106540000Y-81160000D01*
X103000000Y-82750000D02*
X104950000Y-82750000D01*
%TO.N,LCD_RS*%
X112000000Y-103250000D02*
X134500000Y-103250000D01*
X134500000Y-103250000D02*
X136250000Y-101500000D01*
%TO.N,LCD_EN*%
X112750000Y-102500000D02*
X132500000Y-102500000D01*
X132500000Y-102500000D02*
X134250000Y-100750000D01*
%TO.N,I2C_SCL*%
X105389999Y-102389999D02*
X104250000Y-101250000D01*
X104540000Y-132000000D02*
X105389999Y-131150001D01*
X105389999Y-131150001D02*
X105389999Y-102389999D01*
%TO.N,I2C_SDA*%
X107080000Y-132000000D02*
X106250000Y-131170000D01*
X106250000Y-131170000D02*
X106250000Y-102250000D01*
X106250000Y-102250000D02*
X105500000Y-101500000D01*
%TO.N,HB_A1*%
X104750000Y-84125000D02*
X137625000Y-84125000D01*
X137625000Y-84125000D02*
X138500000Y-85000000D01*
%TO.N,HB_A2*%
X103750000Y-83500000D02*
X134000000Y-83500000D01*
X134000000Y-83500000D02*
X138500000Y-79000000D01*
%TO.N,HB_B1*%
X104000000Y-92750000D02*
X104000000Y-95500000D01*
X104000000Y-95500000D02*
X105500000Y-97000000D01*
X105500000Y-97000000D02*
X138500000Y-97000000D01*
%TO.N,HB_B2*%
X103250000Y-92000000D02*
X137500000Y-92000000D01*
X137500000Y-92000000D02*
X138500000Y-91000000D01*
%TD*%
M02*
