M48
; DRILL file {KiCad (5.1.5-131-g305ed0b65)-1} date 01/25/21 18:11:30
; FORMAT={-:-/ absolute / inch / decimal}
; #@! TF.CreationDate,2021-01-25T18:11:30+08:00
; #@! TF.GenerationSoftware,Kicad,Pcbnew,(5.1.5-131-g305ed0b65)-1
FMAT,2
INCH
T1C0.0118
T2C0.0177
T3C0.0197
T4C0.0315
T5C0.0394
T6C0.0598
T7C0.1260
%
G90
G05
T1
X3.5925Y-3.7795
X3.6909Y-2.0374
X3.7303Y-3.5433
X3.75Y-3.7402
X3.75Y-3.7795
X3.8386Y-3.5039
X3.878Y-3.5039
X3.9469Y-3.3957
X3.9469Y-3.7106
X3.9665Y-3.5827
X4.0256Y-3.4646
X4.065Y-3.622
X4.0846Y-3.2874
X4.0945Y-3.6516
X4.1043Y-3.9862
X4.1142Y-5.0098
X4.124Y-3.312
X4.1535Y-3.9567
X4.1535Y-3.9961
X4.1929Y-3.9567
X4.2126Y-5.0098
X4.2323Y-3.5138
X4.2717Y-3.5728
X4.3012Y-3.6713
X4.3012Y-3.7106
X4.4094Y-4.065
X4.439Y-3.75
X4.439Y-4.0354
X5.2854Y-3.9665
X5.3642Y-3.9961
X5.4528Y-3.1102
X5.4528Y-3.3465
X5.4528Y-3.5827
X5.4528Y-3.8189
X5.5512Y-3.1988
X5.5512Y-3.435
X5.5512Y-3.6713
X5.5512Y-3.9075
X5.8661Y-3.1988
X5.8661Y-3.435
X5.8661Y-3.6713
X5.8661Y-3.9075
X6.0827Y-3.1102
X6.0827Y-3.3465
X6.0827Y-3.5827
X6.0827Y-3.8189
X6.2205Y-2.3622
X6.2205Y-2.3917
X6.2205Y-2.4213
X6.2205Y-2.5394
X6.2205Y-2.5689
X6.2205Y-2.5984
X6.2205Y-2.8543
X6.2205Y-2.8937
X6.2205Y-2.9429
X6.2205Y-2.9823
X6.25Y-2.3622
X6.25Y-2.3917
X6.25Y-2.4213
X6.25Y-2.5394
X6.25Y-2.5689
X6.25Y-2.5984
X6.25Y-2.8543
X6.25Y-2.8937
X6.25Y-2.9429
X6.25Y-2.9823
X6.2795Y-2.3622
X6.2795Y-2.3917
X6.2795Y-2.4213
X6.2795Y-2.5394
X6.2795Y-2.5689
X6.2795Y-2.5984
X6.2795Y-2.8543
X6.2795Y-2.8937
X6.2795Y-2.9429
X6.2795Y-2.9823
X6.5157Y-2.4508
X6.5157Y-2.4902
X6.5157Y-2.7756
X6.5157Y-2.815
X6.5551Y-2.4508
X6.5551Y-2.4902
X6.5551Y-2.5295
X6.5551Y-2.5689
X6.5551Y-2.6083
X6.5551Y-2.7362
X6.5551Y-2.7756
X6.5551Y-2.815
X6.5846Y-3.1102
X7.0669Y-2.2146
X7.0669Y-2.2441
X7.0669Y-2.2736
X7.0669Y-2.3031
X7.0669Y-2.3524
X7.0669Y-2.3819
X7.0669Y-2.4114
X7.0669Y-2.4409
X7.0669Y-2.6476
X7.0669Y-2.6772
X7.0669Y-2.7067
X7.0669Y-2.7362
X7.0669Y-2.7854
X7.0669Y-2.815
X7.0669Y-2.8445
X7.0669Y-2.874
X7.0669Y-3.1988
X7.0669Y-3.2283
X7.0669Y-3.2579
X7.0669Y-3.2874
X7.0669Y-3.3366
X7.0669Y-3.3661
X7.0669Y-3.3957
X7.0669Y-3.4252
X7.0669Y-3.6319
X7.0669Y-3.6614
X7.0669Y-3.6909
X7.0669Y-3.7205
X7.0669Y-3.7697
X7.0669Y-3.7992
X7.0669Y-3.8287
X7.0669Y-3.8583
X7.0965Y-2.2146
X7.0965Y-2.2441
X7.0965Y-2.2736
X7.0965Y-2.3031
X7.0965Y-2.3524
X7.0965Y-2.3819
X7.0965Y-2.4114
X7.0965Y-2.4409
X7.0965Y-2.6476
X7.0965Y-2.6772
X7.0965Y-2.7067
X7.0965Y-2.7362
X7.0965Y-2.7854
X7.0965Y-2.815
X7.0965Y-2.8445
X7.0965Y-2.874
X7.0965Y-3.1988
X7.0965Y-3.2283
X7.0965Y-3.2579
X7.0965Y-3.2874
X7.0965Y-3.3366
X7.0965Y-3.3661
X7.0965Y-3.3957
X7.0965Y-3.4252
X7.0965Y-3.6319
X7.0965Y-3.6614
X7.0965Y-3.6909
X7.0965Y-3.7205
X7.0965Y-3.7697
X7.0965Y-3.7992
X7.0965Y-3.8287
X7.0965Y-3.8583
X7.126Y-2.2146
X7.126Y-2.2441
X7.126Y-2.2736
X7.126Y-2.3031
X7.126Y-2.3524
X7.126Y-2.3819
X7.126Y-2.4114
X7.126Y-2.4409
X7.126Y-2.6476
X7.126Y-2.6772
X7.126Y-2.7067
X7.126Y-2.7362
X7.126Y-2.7854
X7.126Y-2.815
X7.126Y-2.8445
X7.126Y-2.874
X7.126Y-3.1988
X7.126Y-3.2283
X7.126Y-3.2579
X7.126Y-3.2874
X7.126Y-3.3366
X7.126Y-3.3661
X7.126Y-3.3957
X7.126Y-3.4252
X7.126Y-3.6319
X7.126Y-3.6614
X7.126Y-3.6909
X7.126Y-3.7205
X7.126Y-3.7697
X7.126Y-3.7992
X7.126Y-3.8287
X7.126Y-3.8583
X7.1555Y-2.2146
X7.1555Y-2.2441
X7.1555Y-2.2736
X7.1555Y-2.3031
X7.1555Y-2.3524
X7.1555Y-2.3819
X7.1555Y-2.4114
X7.1555Y-2.4409
X7.1555Y-2.6476
X7.1555Y-2.6772
X7.1555Y-2.7067
X7.1555Y-2.7362
X7.1555Y-2.7854
X7.1555Y-2.815
X7.1555Y-2.8445
X7.1555Y-2.874
X7.1555Y-3.1988
X7.1555Y-3.2283
X7.1555Y-3.2579
X7.1555Y-3.2874
X7.1555Y-3.3366
X7.1555Y-3.3661
X7.1555Y-3.3957
X7.1555Y-3.4252
X7.1555Y-3.6319
X7.1555Y-3.6614
X7.1555Y-3.6909
X7.1555Y-3.7205
X7.1555Y-3.7697
X7.1555Y-3.7992
X7.1555Y-3.8287
X7.1555Y-3.8583
T3
X7.7402Y-2.0079
X7.7678Y-1.9411
X7.7678Y-2.0747
X7.8346Y-1.9134
X7.8346Y-2.1024
X7.9015Y-1.9411
X7.9015Y-2.0747
X7.9291Y-2.0079
X3.0157Y-2.0079
X3.0434Y-1.9411
X3.0434Y-2.0747
X3.1102Y-1.9134
X3.1102Y-2.1024
X3.177Y-1.9411
X3.177Y-2.0747
X3.2047Y-2.0079
X3.0157Y-5.1575
X3.0434Y-5.0907
X3.0434Y-5.2243
X3.1102Y-5.063
X3.1102Y-5.252
X3.177Y-5.0907
X3.177Y-5.2243
X3.2047Y-5.1575
X7.7402Y-5.1575
X7.7678Y-5.0907
X7.7678Y-5.2243
X7.8346Y-5.063
X7.8346Y-5.252
X7.9015Y-5.0907
X7.9015Y-5.2243
X7.9291Y-5.1575
T4
X5.6087Y-2.7378
X5.7087Y-2.6378
X5.7087Y-2.8378
T5
X7.0866Y-5.0787
X7.185Y-5.0787
X5.6693Y-4.2126
X5.7677Y-4.2126
X3.1102Y-2.7559
X3.1102Y-2.8559
X3.1102Y-2.9559
X6.1417Y-4.6457
X6.2402Y-4.6457
X6.1417Y-5.0787
X6.2402Y-5.0787
X7.5591Y-4.2126
X7.6575Y-4.2126
X3.5039Y-3.3465
X3.6039Y-3.3465
X3.7039Y-3.3465
X5.6693Y-5.0787
X5.7677Y-5.0787
X6.1417Y-4.2126
X6.2402Y-4.2126
X4.0157Y-5.1969
X4.1157Y-5.1969
X4.2157Y-5.1969
X4.3157Y-5.1969
X5.6693Y-4.6457
X5.7677Y-4.6457
X6.6142Y-4.2126
X6.7126Y-4.2126
X4.8425Y-1.9685
X4.9409Y-1.9685
X5.3543Y-1.9685
X5.4528Y-1.9685
X7.0866Y-4.2126
X7.185Y-4.2126
X7.5591Y-4.6457
X7.6575Y-4.6457
X4.0945Y-2.7953
X4.0945Y-2.8953
X4.0945Y-2.9953
X4.0945Y-3.0953
X4.0945Y-3.1953
X4.1945Y-2.7953
X4.1945Y-2.8953
X4.1945Y-2.9953
X4.1945Y-3.0953
X4.1945Y-3.1953
X7.0866Y-4.6457
X7.185Y-4.6457
X3.1102Y-3.622
X3.1102Y-3.722
X3.1102Y-3.822
X3.1102Y-4.0551
X3.1102Y-4.1551
X3.1102Y-4.2551
X4.2874Y-2.4016
X4.3874Y-2.4016
X4.4874Y-2.4016
X4.5874Y-2.4016
X4.6874Y-2.4016
X4.7874Y-2.4016
X4.8874Y-2.4016
X4.9874Y-2.4016
X5.0874Y-2.4016
X5.1874Y-2.4016
X5.2874Y-2.4016
X5.3874Y-2.4016
X5.4874Y-2.4016
X5.5874Y-2.4016
X5.6874Y-2.4016
X5.7874Y-2.4016
X6.6142Y-5.0787
X6.7126Y-5.0787
X6.6142Y-4.6457
X6.7126Y-4.6457
X3.1102Y-3.189
X3.1102Y-3.289
X3.1102Y-3.389
T6
X7.874Y-2.4378
X7.874Y-2.6378
X7.874Y-3.422
X7.874Y-3.622
X6.3685Y-1.9685
X6.5685Y-1.9685
X6.7685Y-1.9685
X6.9685Y-1.9685
T7
X3.1102Y-5.1575
X7.8346Y-5.1575
X7.8346Y-2.0079
X3.1102Y-2.0079
T2
G00X3.5994Y-1.8976
M15
G01X3.5994Y-1.8661
M16
G05
G00X3.8809Y-1.8661
M15
G01X3.8809Y-1.8976
M16
G05
T0
M30
