%TF.GenerationSoftware,KiCad,Pcbnew,(5.1.5-131-g305ed0b65)-1*%
%TF.CreationDate,2021-01-25T18:11:24+08:00*%
%TF.ProjectId,OpenTEC,4f70656e-5445-4432-9e6b-696361645f70,rev?*%
%TF.SameCoordinates,Original*%
%TF.FileFunction,Soldermask,Top*%
%TF.FilePolarity,Negative*%
%FSLAX46Y46*%
G04 Gerber Fmt 4.6, Leading zero omitted, Abs format (unit mm)*
G04 Created by KiCad (PCBNEW (5.1.5-131-g305ed0b65)-1) date 2021-01-25 18:11:24*
%MOMM*%
%LPD*%
G01*
G04 APERTURE LIST*
%ADD10R,2.100000X3.900000*%
%ADD11R,2.100000X1.600000*%
%ADD12C,6.500000*%
%ADD13C,0.900000*%
%ADD14R,1.850000X2.000000*%
%ADD15R,0.500000X1.500000*%
%ADD16O,1.150000X2.000000*%
%ADD17R,1.250000X1.550000*%
%ADD18C,3.100000*%
%ADD19R,3.100000X3.100000*%
%ADD20R,1.800000X1.800000*%
%ADD21O,1.800000X1.800000*%
%ADD22O,1.800000X2.100000*%
%ADD23C,1.540000*%
%ADD24R,2.300000X0.900000*%
%ADD25R,6.500000X5.900000*%
%ADD26R,1.300000X1.500000*%
G04 APERTURE END LIST*
D10*
%TO.C,U1*%
X154850000Y-63000000D03*
D11*
X161150000Y-63000000D03*
X161150000Y-60700000D03*
X161150000Y-65300000D03*
%TD*%
%TO.C,U2*%
X161150000Y-75300000D03*
X161150000Y-70700000D03*
X161150000Y-73000000D03*
D10*
X154850000Y-73000000D03*
%TD*%
%TO.C,D2*%
G36*
G01*
X111525000Y-96718750D02*
X111525000Y-97281250D01*
G75*
G02*
X111281250Y-97525000I-243750J0D01*
G01*
X110793750Y-97525000D01*
G75*
G02*
X110550000Y-97281250I0J243750D01*
G01*
X110550000Y-96718750D01*
G75*
G02*
X110793750Y-96475000I243750J0D01*
G01*
X111281250Y-96475000D01*
G75*
G02*
X111525000Y-96718750I0J-243750D01*
G01*
G37*
G36*
G01*
X109950000Y-96718750D02*
X109950000Y-97281250D01*
G75*
G02*
X109706250Y-97525000I-243750J0D01*
G01*
X109218750Y-97525000D01*
G75*
G02*
X108975000Y-97281250I0J243750D01*
G01*
X108975000Y-96718750D01*
G75*
G02*
X109218750Y-96475000I243750J0D01*
G01*
X109706250Y-96475000D01*
G75*
G02*
X109950000Y-96718750I0J-243750D01*
G01*
G37*
%TD*%
%TO.C,R10*%
G36*
G01*
X112947500Y-96360000D02*
X112552500Y-96360000D01*
G75*
G02*
X112380000Y-96187500I0J172500D01*
G01*
X112380000Y-95842500D01*
G75*
G02*
X112552500Y-95670000I172500J0D01*
G01*
X112947500Y-95670000D01*
G75*
G02*
X113120000Y-95842500I0J-172500D01*
G01*
X113120000Y-96187500D01*
G75*
G02*
X112947500Y-96360000I-172500J0D01*
G01*
G37*
G36*
G01*
X112947500Y-97330000D02*
X112552500Y-97330000D01*
G75*
G02*
X112380000Y-97157500I0J172500D01*
G01*
X112380000Y-96812500D01*
G75*
G02*
X112552500Y-96640000I172500J0D01*
G01*
X112947500Y-96640000D01*
G75*
G02*
X113120000Y-96812500I0J-172500D01*
G01*
X113120000Y-97157500D01*
G75*
G02*
X112947500Y-97330000I-172500J0D01*
G01*
G37*
%TD*%
%TO.C,C1*%
G36*
G01*
X163525000Y-61231250D02*
X163525000Y-60268750D01*
G75*
G02*
X163793750Y-60000000I268750J0D01*
G01*
X164331250Y-60000000D01*
G75*
G02*
X164600000Y-60268750I0J-268750D01*
G01*
X164600000Y-61231250D01*
G75*
G02*
X164331250Y-61500000I-268750J0D01*
G01*
X163793750Y-61500000D01*
G75*
G02*
X163525000Y-61231250I0J268750D01*
G01*
G37*
G36*
G01*
X165400000Y-61231250D02*
X165400000Y-60268750D01*
G75*
G02*
X165668750Y-60000000I268750J0D01*
G01*
X166206250Y-60000000D01*
G75*
G02*
X166475000Y-60268750I0J-268750D01*
G01*
X166475000Y-61231250D01*
G75*
G02*
X166206250Y-61500000I-268750J0D01*
G01*
X165668750Y-61500000D01*
G75*
G02*
X165400000Y-61231250I0J268750D01*
G01*
G37*
%TD*%
%TO.C,C2*%
G36*
G01*
X163525000Y-68481250D02*
X163525000Y-67518750D01*
G75*
G02*
X163793750Y-67250000I268750J0D01*
G01*
X164331250Y-67250000D01*
G75*
G02*
X164600000Y-67518750I0J-268750D01*
G01*
X164600000Y-68481250D01*
G75*
G02*
X164331250Y-68750000I-268750J0D01*
G01*
X163793750Y-68750000D01*
G75*
G02*
X163525000Y-68481250I0J268750D01*
G01*
G37*
G36*
G01*
X165400000Y-68481250D02*
X165400000Y-67518750D01*
G75*
G02*
X165668750Y-67250000I268750J0D01*
G01*
X166206250Y-67250000D01*
G75*
G02*
X166475000Y-67518750I0J-268750D01*
G01*
X166475000Y-68481250D01*
G75*
G02*
X166206250Y-68750000I-268750J0D01*
G01*
X165668750Y-68750000D01*
G75*
G02*
X165400000Y-68481250I0J268750D01*
G01*
G37*
%TD*%
%TO.C,C3*%
G36*
G01*
X165400000Y-73481250D02*
X165400000Y-72518750D01*
G75*
G02*
X165668750Y-72250000I268750J0D01*
G01*
X166206250Y-72250000D01*
G75*
G02*
X166475000Y-72518750I0J-268750D01*
G01*
X166475000Y-73481250D01*
G75*
G02*
X166206250Y-73750000I-268750J0D01*
G01*
X165668750Y-73750000D01*
G75*
G02*
X165400000Y-73481250I0J268750D01*
G01*
G37*
G36*
G01*
X163525000Y-73481250D02*
X163525000Y-72518750D01*
G75*
G02*
X163793750Y-72250000I268750J0D01*
G01*
X164331250Y-72250000D01*
G75*
G02*
X164600000Y-72518750I0J-268750D01*
G01*
X164600000Y-73481250D01*
G75*
G02*
X164331250Y-73750000I-268750J0D01*
G01*
X163793750Y-73750000D01*
G75*
G02*
X163525000Y-73481250I0J268750D01*
G01*
G37*
%TD*%
%TO.C,C4*%
G36*
G01*
X110018750Y-92275000D02*
X110981250Y-92275000D01*
G75*
G02*
X111250000Y-92543750I0J-268750D01*
G01*
X111250000Y-93081250D01*
G75*
G02*
X110981250Y-93350000I-268750J0D01*
G01*
X110018750Y-93350000D01*
G75*
G02*
X109750000Y-93081250I0J268750D01*
G01*
X109750000Y-92543750D01*
G75*
G02*
X110018750Y-92275000I268750J0D01*
G01*
G37*
G36*
G01*
X110018750Y-94150000D02*
X110981250Y-94150000D01*
G75*
G02*
X111250000Y-94418750I0J-268750D01*
G01*
X111250000Y-94956250D01*
G75*
G02*
X110981250Y-95225000I-268750J0D01*
G01*
X110018750Y-95225000D01*
G75*
G02*
X109750000Y-94956250I0J268750D01*
G01*
X109750000Y-94418750D01*
G75*
G02*
X110018750Y-94150000I268750J0D01*
G01*
G37*
%TD*%
%TO.C,C5*%
G36*
G01*
X97860000Y-89802500D02*
X97860000Y-90197500D01*
G75*
G02*
X97687500Y-90370000I-172500J0D01*
G01*
X97342500Y-90370000D01*
G75*
G02*
X97170000Y-90197500I0J172500D01*
G01*
X97170000Y-89802500D01*
G75*
G02*
X97342500Y-89630000I172500J0D01*
G01*
X97687500Y-89630000D01*
G75*
G02*
X97860000Y-89802500I0J-172500D01*
G01*
G37*
G36*
G01*
X98830000Y-89802500D02*
X98830000Y-90197500D01*
G75*
G02*
X98657500Y-90370000I-172500J0D01*
G01*
X98312500Y-90370000D01*
G75*
G02*
X98140000Y-90197500I0J172500D01*
G01*
X98140000Y-89802500D01*
G75*
G02*
X98312500Y-89630000I172500J0D01*
G01*
X98657500Y-89630000D01*
G75*
G02*
X98830000Y-89802500I0J-172500D01*
G01*
G37*
%TD*%
%TO.C,C6*%
G36*
G01*
X96197500Y-96330000D02*
X95802500Y-96330000D01*
G75*
G02*
X95630000Y-96157500I0J172500D01*
G01*
X95630000Y-95812500D01*
G75*
G02*
X95802500Y-95640000I172500J0D01*
G01*
X96197500Y-95640000D01*
G75*
G02*
X96370000Y-95812500I0J-172500D01*
G01*
X96370000Y-96157500D01*
G75*
G02*
X96197500Y-96330000I-172500J0D01*
G01*
G37*
G36*
G01*
X96197500Y-95360000D02*
X95802500Y-95360000D01*
G75*
G02*
X95630000Y-95187500I0J172500D01*
G01*
X95630000Y-94842500D01*
G75*
G02*
X95802500Y-94670000I172500J0D01*
G01*
X96197500Y-94670000D01*
G75*
G02*
X96370000Y-94842500I0J-172500D01*
G01*
X96370000Y-95187500D01*
G75*
G02*
X96197500Y-95360000I-172500J0D01*
G01*
G37*
%TD*%
%TO.C,C7*%
G36*
G01*
X105860000Y-99552500D02*
X105860000Y-99947500D01*
G75*
G02*
X105687500Y-100120000I-172500J0D01*
G01*
X105342500Y-100120000D01*
G75*
G02*
X105170000Y-99947500I0J172500D01*
G01*
X105170000Y-99552500D01*
G75*
G02*
X105342500Y-99380000I172500J0D01*
G01*
X105687500Y-99380000D01*
G75*
G02*
X105860000Y-99552500I0J-172500D01*
G01*
G37*
G36*
G01*
X106830000Y-99552500D02*
X106830000Y-99947500D01*
G75*
G02*
X106657500Y-100120000I-172500J0D01*
G01*
X106312500Y-100120000D01*
G75*
G02*
X106140000Y-99947500I0J172500D01*
G01*
X106140000Y-99552500D01*
G75*
G02*
X106312500Y-99380000I172500J0D01*
G01*
X106657500Y-99380000D01*
G75*
G02*
X106830000Y-99552500I0J-172500D01*
G01*
G37*
%TD*%
%TO.C,C8*%
G36*
G01*
X107170000Y-90197500D02*
X107170000Y-89802500D01*
G75*
G02*
X107342500Y-89630000I172500J0D01*
G01*
X107687500Y-89630000D01*
G75*
G02*
X107860000Y-89802500I0J-172500D01*
G01*
X107860000Y-90197500D01*
G75*
G02*
X107687500Y-90370000I-172500J0D01*
G01*
X107342500Y-90370000D01*
G75*
G02*
X107170000Y-90197500I0J172500D01*
G01*
G37*
G36*
G01*
X108140000Y-90197500D02*
X108140000Y-89802500D01*
G75*
G02*
X108312500Y-89630000I172500J0D01*
G01*
X108657500Y-89630000D01*
G75*
G02*
X108830000Y-89802500I0J-172500D01*
G01*
X108830000Y-90197500D01*
G75*
G02*
X108657500Y-90370000I-172500J0D01*
G01*
X108312500Y-90370000D01*
G75*
G02*
X108140000Y-90197500I0J172500D01*
G01*
G37*
%TD*%
%TO.C,C9*%
G36*
G01*
X99481250Y-86600000D02*
X98518750Y-86600000D01*
G75*
G02*
X98250000Y-86331250I0J268750D01*
G01*
X98250000Y-85793750D01*
G75*
G02*
X98518750Y-85525000I268750J0D01*
G01*
X99481250Y-85525000D01*
G75*
G02*
X99750000Y-85793750I0J-268750D01*
G01*
X99750000Y-86331250D01*
G75*
G02*
X99481250Y-86600000I-268750J0D01*
G01*
G37*
G36*
G01*
X99481250Y-88475000D02*
X98518750Y-88475000D01*
G75*
G02*
X98250000Y-88206250I0J268750D01*
G01*
X98250000Y-87668750D01*
G75*
G02*
X98518750Y-87400000I268750J0D01*
G01*
X99481250Y-87400000D01*
G75*
G02*
X99750000Y-87668750I0J-268750D01*
G01*
X99750000Y-88206250D01*
G75*
G02*
X99481250Y-88475000I-268750J0D01*
G01*
G37*
%TD*%
%TO.C,C10*%
G36*
G01*
X100697500Y-87360000D02*
X100302500Y-87360000D01*
G75*
G02*
X100130000Y-87187500I0J172500D01*
G01*
X100130000Y-86842500D01*
G75*
G02*
X100302500Y-86670000I172500J0D01*
G01*
X100697500Y-86670000D01*
G75*
G02*
X100870000Y-86842500I0J-172500D01*
G01*
X100870000Y-87187500D01*
G75*
G02*
X100697500Y-87360000I-172500J0D01*
G01*
G37*
G36*
G01*
X100697500Y-88330000D02*
X100302500Y-88330000D01*
G75*
G02*
X100130000Y-88157500I0J172500D01*
G01*
X100130000Y-87812500D01*
G75*
G02*
X100302500Y-87640000I172500J0D01*
G01*
X100697500Y-87640000D01*
G75*
G02*
X100870000Y-87812500I0J-172500D01*
G01*
X100870000Y-88157500D01*
G75*
G02*
X100697500Y-88330000I-172500J0D01*
G01*
G37*
%TD*%
%TO.C,C11*%
G36*
G01*
X101697500Y-88330000D02*
X101302500Y-88330000D01*
G75*
G02*
X101130000Y-88157500I0J172500D01*
G01*
X101130000Y-87812500D01*
G75*
G02*
X101302500Y-87640000I172500J0D01*
G01*
X101697500Y-87640000D01*
G75*
G02*
X101870000Y-87812500I0J-172500D01*
G01*
X101870000Y-88157500D01*
G75*
G02*
X101697500Y-88330000I-172500J0D01*
G01*
G37*
G36*
G01*
X101697500Y-87360000D02*
X101302500Y-87360000D01*
G75*
G02*
X101130000Y-87187500I0J172500D01*
G01*
X101130000Y-86842500D01*
G75*
G02*
X101302500Y-86670000I172500J0D01*
G01*
X101697500Y-86670000D01*
G75*
G02*
X101870000Y-86842500I0J-172500D01*
G01*
X101870000Y-87187500D01*
G75*
G02*
X101697500Y-87360000I-172500J0D01*
G01*
G37*
%TD*%
%TO.C,C12*%
G36*
G01*
X92700000Y-89718750D02*
X92700000Y-90281250D01*
G75*
G02*
X92456250Y-90525000I-243750J0D01*
G01*
X91968750Y-90525000D01*
G75*
G02*
X91725000Y-90281250I0J243750D01*
G01*
X91725000Y-89718750D01*
G75*
G02*
X91968750Y-89475000I243750J0D01*
G01*
X92456250Y-89475000D01*
G75*
G02*
X92700000Y-89718750I0J-243750D01*
G01*
G37*
G36*
G01*
X94275000Y-89718750D02*
X94275000Y-90281250D01*
G75*
G02*
X94031250Y-90525000I-243750J0D01*
G01*
X93543750Y-90525000D01*
G75*
G02*
X93300000Y-90281250I0J243750D01*
G01*
X93300000Y-89718750D01*
G75*
G02*
X93543750Y-89475000I243750J0D01*
G01*
X94031250Y-89475000D01*
G75*
G02*
X94275000Y-89718750I0J-243750D01*
G01*
G37*
%TD*%
%TO.C,C13*%
G36*
G01*
X94275000Y-95718750D02*
X94275000Y-96281250D01*
G75*
G02*
X94031250Y-96525000I-243750J0D01*
G01*
X93543750Y-96525000D01*
G75*
G02*
X93300000Y-96281250I0J243750D01*
G01*
X93300000Y-95718750D01*
G75*
G02*
X93543750Y-95475000I243750J0D01*
G01*
X94031250Y-95475000D01*
G75*
G02*
X94275000Y-95718750I0J-243750D01*
G01*
G37*
G36*
G01*
X92700000Y-95718750D02*
X92700000Y-96281250D01*
G75*
G02*
X92456250Y-96525000I-243750J0D01*
G01*
X91968750Y-96525000D01*
G75*
G02*
X91725000Y-96281250I0J243750D01*
G01*
X91725000Y-95718750D01*
G75*
G02*
X91968750Y-95475000I243750J0D01*
G01*
X92456250Y-95475000D01*
G75*
G02*
X92700000Y-95718750I0J-243750D01*
G01*
G37*
%TD*%
%TO.C,D1*%
G36*
G01*
X164281250Y-77700000D02*
X163718750Y-77700000D01*
G75*
G02*
X163475000Y-77456250I0J243750D01*
G01*
X163475000Y-76968750D01*
G75*
G02*
X163718750Y-76725000I243750J0D01*
G01*
X164281250Y-76725000D01*
G75*
G02*
X164525000Y-76968750I0J-243750D01*
G01*
X164525000Y-77456250D01*
G75*
G02*
X164281250Y-77700000I-243750J0D01*
G01*
G37*
G36*
G01*
X164281250Y-79275000D02*
X163718750Y-79275000D01*
G75*
G02*
X163475000Y-79031250I0J243750D01*
G01*
X163475000Y-78543750D01*
G75*
G02*
X163718750Y-78300000I243750J0D01*
G01*
X164281250Y-78300000D01*
G75*
G02*
X164525000Y-78543750I0J-243750D01*
G01*
X164525000Y-79031250D01*
G75*
G02*
X164281250Y-79275000I-243750J0D01*
G01*
G37*
%TD*%
D12*
%TO.C,H1*%
X79000000Y-51000000D03*
D13*
X81400000Y-51000000D03*
X80697056Y-52697056D03*
X79000000Y-53400000D03*
X77302944Y-52697056D03*
X76600000Y-51000000D03*
X77302944Y-49302944D03*
X79000000Y-48600000D03*
X80697056Y-49302944D03*
%TD*%
%TO.C,H2*%
X200697056Y-49302944D03*
X199000000Y-48600000D03*
X197302944Y-49302944D03*
X196600000Y-51000000D03*
X197302944Y-52697056D03*
X199000000Y-53400000D03*
X200697056Y-52697056D03*
X201400000Y-51000000D03*
D12*
X199000000Y-51000000D03*
%TD*%
%TO.C,H3*%
X199000000Y-131000000D03*
D13*
X201400000Y-131000000D03*
X200697056Y-132697056D03*
X199000000Y-133400000D03*
X197302944Y-132697056D03*
X196600000Y-131000000D03*
X197302944Y-129302944D03*
X199000000Y-128600000D03*
X200697056Y-129302944D03*
%TD*%
%TO.C,H4*%
X80697056Y-129302944D03*
X79000000Y-128600000D03*
X77302944Y-129302944D03*
X76600000Y-131000000D03*
X77302944Y-132697056D03*
X79000000Y-133400000D03*
X80697056Y-132697056D03*
X81400000Y-131000000D03*
D12*
X79000000Y-131000000D03*
%TD*%
D14*
%TO.C,J1*%
X93875000Y-47800000D03*
D15*
X95650000Y-50450000D03*
X96300000Y-50450000D03*
X93700000Y-50450000D03*
X94350000Y-50450000D03*
X95000000Y-50450000D03*
D14*
X96125000Y-47800000D03*
D16*
X98575000Y-47800000D03*
X91425000Y-47800000D03*
D17*
X92680000Y-50030000D03*
X97320000Y-50030000D03*
%TD*%
D18*
%TO.C,J2*%
X171920000Y-50000000D03*
X166840000Y-50000000D03*
D19*
X177000000Y-50000000D03*
D18*
X161760000Y-50000000D03*
%TD*%
D20*
%TO.C,J3*%
X104000000Y-71000000D03*
D21*
X106540000Y-71000000D03*
X104000000Y-73540000D03*
X106540000Y-73540000D03*
X104000000Y-76080000D03*
X106540000Y-76080000D03*
X104000000Y-78620000D03*
X106540000Y-78620000D03*
X104000000Y-81160000D03*
X106540000Y-81160000D03*
%TD*%
D20*
%TO.C,J5*%
X102000000Y-132000000D03*
D21*
X104540000Y-132000000D03*
X107080000Y-132000000D03*
X109620000Y-132000000D03*
%TD*%
D20*
%TO.C,J6*%
X89000000Y-85000000D03*
D21*
X91540000Y-85000000D03*
X94080000Y-85000000D03*
%TD*%
D20*
%TO.C,J7*%
X79000000Y-70000000D03*
D21*
X79000000Y-72540000D03*
X79000000Y-75080000D03*
%TD*%
%TO.C,J8*%
X79000000Y-86080000D03*
X79000000Y-83540000D03*
D20*
X79000000Y-81000000D03*
%TD*%
%TO.C,J9*%
X79000000Y-92000000D03*
D21*
X79000000Y-94540000D03*
X79000000Y-97080000D03*
%TD*%
%TO.C,J10*%
X79000000Y-108080000D03*
X79000000Y-105540000D03*
D20*
X79000000Y-103000000D03*
%TD*%
D18*
%TO.C,J11*%
X200000000Y-61920000D03*
D19*
X200000000Y-67000000D03*
%TD*%
%TO.C,J12*%
X200000000Y-92000000D03*
D18*
X200000000Y-86920000D03*
%TD*%
D22*
%TO.C,J13*%
X125500000Y-50000000D03*
G36*
G01*
X122100000Y-50785294D02*
X122100000Y-49214706D01*
G75*
G02*
X122364706Y-48950000I264706J0D01*
G01*
X123635294Y-48950000D01*
G75*
G02*
X123900000Y-49214706I0J-264706D01*
G01*
X123900000Y-50785294D01*
G75*
G02*
X123635294Y-51050000I-264706J0D01*
G01*
X122364706Y-51050000D01*
G75*
G02*
X122100000Y-50785294I0J264706D01*
G01*
G37*
%TD*%
%TO.C,J14*%
G36*
G01*
X135100000Y-50785294D02*
X135100000Y-49214706D01*
G75*
G02*
X135364706Y-48950000I264706J0D01*
G01*
X136635294Y-48950000D01*
G75*
G02*
X136900000Y-49214706I0J-264706D01*
G01*
X136900000Y-50785294D01*
G75*
G02*
X136635294Y-51050000I-264706J0D01*
G01*
X135364706Y-51050000D01*
G75*
G02*
X135100000Y-50785294I0J264706D01*
G01*
G37*
X138500000Y-50000000D03*
%TD*%
%TO.C,J15*%
G36*
G01*
X143100000Y-107785294D02*
X143100000Y-106214706D01*
G75*
G02*
X143364706Y-105950000I264706J0D01*
G01*
X144635294Y-105950000D01*
G75*
G02*
X144900000Y-106214706I0J-264706D01*
G01*
X144900000Y-107785294D01*
G75*
G02*
X144635294Y-108050000I-264706J0D01*
G01*
X143364706Y-108050000D01*
G75*
G02*
X143100000Y-107785294I0J264706D01*
G01*
G37*
X146500000Y-107000000D03*
%TD*%
%TO.C,J16*%
X158500000Y-107000000D03*
G36*
G01*
X155100000Y-107785294D02*
X155100000Y-106214706D01*
G75*
G02*
X155364706Y-105950000I264706J0D01*
G01*
X156635294Y-105950000D01*
G75*
G02*
X156900000Y-106214706I0J-264706D01*
G01*
X156900000Y-107785294D01*
G75*
G02*
X156635294Y-108050000I-264706J0D01*
G01*
X155364706Y-108050000D01*
G75*
G02*
X155100000Y-107785294I0J264706D01*
G01*
G37*
%TD*%
%TO.C,J17*%
G36*
G01*
X167100000Y-107785294D02*
X167100000Y-106214706D01*
G75*
G02*
X167364706Y-105950000I264706J0D01*
G01*
X168635294Y-105950000D01*
G75*
G02*
X168900000Y-106214706I0J-264706D01*
G01*
X168900000Y-107785294D01*
G75*
G02*
X168635294Y-108050000I-264706J0D01*
G01*
X167364706Y-108050000D01*
G75*
G02*
X167100000Y-107785294I0J264706D01*
G01*
G37*
X170500000Y-107000000D03*
%TD*%
%TO.C,J18*%
X182500000Y-107000000D03*
G36*
G01*
X179100000Y-107785294D02*
X179100000Y-106214706D01*
G75*
G02*
X179364706Y-105950000I264706J0D01*
G01*
X180635294Y-105950000D01*
G75*
G02*
X180900000Y-106214706I0J-264706D01*
G01*
X180900000Y-107785294D01*
G75*
G02*
X180635294Y-108050000I-264706J0D01*
G01*
X179364706Y-108050000D01*
G75*
G02*
X179100000Y-107785294I0J264706D01*
G01*
G37*
%TD*%
%TO.C,J19*%
G36*
G01*
X191100000Y-107785294D02*
X191100000Y-106214706D01*
G75*
G02*
X191364706Y-105950000I264706J0D01*
G01*
X192635294Y-105950000D01*
G75*
G02*
X192900000Y-106214706I0J-264706D01*
G01*
X192900000Y-107785294D01*
G75*
G02*
X192635294Y-108050000I-264706J0D01*
G01*
X191364706Y-108050000D01*
G75*
G02*
X191100000Y-107785294I0J264706D01*
G01*
G37*
X194500000Y-107000000D03*
%TD*%
%TO.C,J20*%
X146500000Y-118000000D03*
G36*
G01*
X143100000Y-118785294D02*
X143100000Y-117214706D01*
G75*
G02*
X143364706Y-116950000I264706J0D01*
G01*
X144635294Y-116950000D01*
G75*
G02*
X144900000Y-117214706I0J-264706D01*
G01*
X144900000Y-118785294D01*
G75*
G02*
X144635294Y-119050000I-264706J0D01*
G01*
X143364706Y-119050000D01*
G75*
G02*
X143100000Y-118785294I0J264706D01*
G01*
G37*
%TD*%
%TO.C,J21*%
G36*
G01*
X155100000Y-118785294D02*
X155100000Y-117214706D01*
G75*
G02*
X155364706Y-116950000I264706J0D01*
G01*
X156635294Y-116950000D01*
G75*
G02*
X156900000Y-117214706I0J-264706D01*
G01*
X156900000Y-118785294D01*
G75*
G02*
X156635294Y-119050000I-264706J0D01*
G01*
X155364706Y-119050000D01*
G75*
G02*
X155100000Y-118785294I0J264706D01*
G01*
G37*
X158500000Y-118000000D03*
%TD*%
%TO.C,J22*%
X170500000Y-118000000D03*
G36*
G01*
X167100000Y-118785294D02*
X167100000Y-117214706D01*
G75*
G02*
X167364706Y-116950000I264706J0D01*
G01*
X168635294Y-116950000D01*
G75*
G02*
X168900000Y-117214706I0J-264706D01*
G01*
X168900000Y-118785294D01*
G75*
G02*
X168635294Y-119050000I-264706J0D01*
G01*
X167364706Y-119050000D01*
G75*
G02*
X167100000Y-118785294I0J264706D01*
G01*
G37*
%TD*%
%TO.C,J23*%
G36*
G01*
X179100000Y-118785294D02*
X179100000Y-117214706D01*
G75*
G02*
X179364706Y-116950000I264706J0D01*
G01*
X180635294Y-116950000D01*
G75*
G02*
X180900000Y-117214706I0J-264706D01*
G01*
X180900000Y-118785294D01*
G75*
G02*
X180635294Y-119050000I-264706J0D01*
G01*
X179364706Y-119050000D01*
G75*
G02*
X179100000Y-118785294I0J264706D01*
G01*
G37*
X182500000Y-118000000D03*
%TD*%
%TO.C,J24*%
X194500000Y-118000000D03*
G36*
G01*
X191100000Y-118785294D02*
X191100000Y-117214706D01*
G75*
G02*
X191364706Y-116950000I264706J0D01*
G01*
X192635294Y-116950000D01*
G75*
G02*
X192900000Y-117214706I0J-264706D01*
G01*
X192900000Y-118785294D01*
G75*
G02*
X192635294Y-119050000I-264706J0D01*
G01*
X191364706Y-119050000D01*
G75*
G02*
X191100000Y-118785294I0J264706D01*
G01*
G37*
%TD*%
%TO.C,J25*%
G36*
G01*
X143100000Y-129785294D02*
X143100000Y-128214706D01*
G75*
G02*
X143364706Y-127950000I264706J0D01*
G01*
X144635294Y-127950000D01*
G75*
G02*
X144900000Y-128214706I0J-264706D01*
G01*
X144900000Y-129785294D01*
G75*
G02*
X144635294Y-130050000I-264706J0D01*
G01*
X143364706Y-130050000D01*
G75*
G02*
X143100000Y-129785294I0J264706D01*
G01*
G37*
X146500000Y-129000000D03*
%TD*%
%TO.C,J26*%
X158500000Y-129000000D03*
G36*
G01*
X155100000Y-129785294D02*
X155100000Y-128214706D01*
G75*
G02*
X155364706Y-127950000I264706J0D01*
G01*
X156635294Y-127950000D01*
G75*
G02*
X156900000Y-128214706I0J-264706D01*
G01*
X156900000Y-129785294D01*
G75*
G02*
X156635294Y-130050000I-264706J0D01*
G01*
X155364706Y-130050000D01*
G75*
G02*
X155100000Y-129785294I0J264706D01*
G01*
G37*
%TD*%
%TO.C,J27*%
G36*
G01*
X167100000Y-129785294D02*
X167100000Y-128214706D01*
G75*
G02*
X167364706Y-127950000I264706J0D01*
G01*
X168635294Y-127950000D01*
G75*
G02*
X168900000Y-128214706I0J-264706D01*
G01*
X168900000Y-129785294D01*
G75*
G02*
X168635294Y-130050000I-264706J0D01*
G01*
X167364706Y-130050000D01*
G75*
G02*
X167100000Y-129785294I0J264706D01*
G01*
G37*
X170500000Y-129000000D03*
%TD*%
%TO.C,J28*%
X182500000Y-129000000D03*
G36*
G01*
X179100000Y-129785294D02*
X179100000Y-128214706D01*
G75*
G02*
X179364706Y-127950000I264706J0D01*
G01*
X180635294Y-127950000D01*
G75*
G02*
X180900000Y-128214706I0J-264706D01*
G01*
X180900000Y-129785294D01*
G75*
G02*
X180635294Y-130050000I-264706J0D01*
G01*
X179364706Y-130050000D01*
G75*
G02*
X179100000Y-129785294I0J264706D01*
G01*
G37*
%TD*%
%TO.C,R1*%
G36*
G01*
X154075000Y-84345000D02*
X154075000Y-85655000D01*
G75*
G02*
X153805000Y-85925000I-270000J0D01*
G01*
X152995000Y-85925000D01*
G75*
G02*
X152725000Y-85655000I0J270000D01*
G01*
X152725000Y-84345000D01*
G75*
G02*
X152995000Y-84075000I270000J0D01*
G01*
X153805000Y-84075000D01*
G75*
G02*
X154075000Y-84345000I0J-270000D01*
G01*
G37*
G36*
G01*
X151275000Y-84345000D02*
X151275000Y-85655000D01*
G75*
G02*
X151005000Y-85925000I-270000J0D01*
G01*
X150195000Y-85925000D01*
G75*
G02*
X149925000Y-85655000I0J270000D01*
G01*
X149925000Y-84345000D01*
G75*
G02*
X150195000Y-84075000I270000J0D01*
G01*
X151005000Y-84075000D01*
G75*
G02*
X151275000Y-84345000I0J-270000D01*
G01*
G37*
%TD*%
%TO.C,R2*%
G36*
G01*
X151275000Y-78345000D02*
X151275000Y-79655000D01*
G75*
G02*
X151005000Y-79925000I-270000J0D01*
G01*
X150195000Y-79925000D01*
G75*
G02*
X149925000Y-79655000I0J270000D01*
G01*
X149925000Y-78345000D01*
G75*
G02*
X150195000Y-78075000I270000J0D01*
G01*
X151005000Y-78075000D01*
G75*
G02*
X151275000Y-78345000I0J-270000D01*
G01*
G37*
G36*
G01*
X154075000Y-78345000D02*
X154075000Y-79655000D01*
G75*
G02*
X153805000Y-79925000I-270000J0D01*
G01*
X152995000Y-79925000D01*
G75*
G02*
X152725000Y-79655000I0J270000D01*
G01*
X152725000Y-78345000D01*
G75*
G02*
X152995000Y-78075000I270000J0D01*
G01*
X153805000Y-78075000D01*
G75*
G02*
X154075000Y-78345000I0J-270000D01*
G01*
G37*
%TD*%
%TO.C,R3*%
G36*
G01*
X165170000Y-79197500D02*
X165170000Y-78802500D01*
G75*
G02*
X165342500Y-78630000I172500J0D01*
G01*
X165687500Y-78630000D01*
G75*
G02*
X165860000Y-78802500I0J-172500D01*
G01*
X165860000Y-79197500D01*
G75*
G02*
X165687500Y-79370000I-172500J0D01*
G01*
X165342500Y-79370000D01*
G75*
G02*
X165170000Y-79197500I0J172500D01*
G01*
G37*
G36*
G01*
X166140000Y-79197500D02*
X166140000Y-78802500D01*
G75*
G02*
X166312500Y-78630000I172500J0D01*
G01*
X166657500Y-78630000D01*
G75*
G02*
X166830000Y-78802500I0J-172500D01*
G01*
X166830000Y-79197500D01*
G75*
G02*
X166657500Y-79370000I-172500J0D01*
G01*
X166312500Y-79370000D01*
G75*
G02*
X166140000Y-79197500I0J172500D01*
G01*
G37*
%TD*%
%TO.C,R4*%
G36*
G01*
X139860000Y-84802500D02*
X139860000Y-85197500D01*
G75*
G02*
X139687500Y-85370000I-172500J0D01*
G01*
X139342500Y-85370000D01*
G75*
G02*
X139170000Y-85197500I0J172500D01*
G01*
X139170000Y-84802500D01*
G75*
G02*
X139342500Y-84630000I172500J0D01*
G01*
X139687500Y-84630000D01*
G75*
G02*
X139860000Y-84802500I0J-172500D01*
G01*
G37*
G36*
G01*
X140830000Y-84802500D02*
X140830000Y-85197500D01*
G75*
G02*
X140657500Y-85370000I-172500J0D01*
G01*
X140312500Y-85370000D01*
G75*
G02*
X140140000Y-85197500I0J172500D01*
G01*
X140140000Y-84802500D01*
G75*
G02*
X140312500Y-84630000I172500J0D01*
G01*
X140657500Y-84630000D01*
G75*
G02*
X140830000Y-84802500I0J-172500D01*
G01*
G37*
%TD*%
%TO.C,R5*%
G36*
G01*
X139170000Y-79197500D02*
X139170000Y-78802500D01*
G75*
G02*
X139342500Y-78630000I172500J0D01*
G01*
X139687500Y-78630000D01*
G75*
G02*
X139860000Y-78802500I0J-172500D01*
G01*
X139860000Y-79197500D01*
G75*
G02*
X139687500Y-79370000I-172500J0D01*
G01*
X139342500Y-79370000D01*
G75*
G02*
X139170000Y-79197500I0J172500D01*
G01*
G37*
G36*
G01*
X140140000Y-79197500D02*
X140140000Y-78802500D01*
G75*
G02*
X140312500Y-78630000I172500J0D01*
G01*
X140657500Y-78630000D01*
G75*
G02*
X140830000Y-78802500I0J-172500D01*
G01*
X140830000Y-79197500D01*
G75*
G02*
X140657500Y-79370000I-172500J0D01*
G01*
X140312500Y-79370000D01*
G75*
G02*
X140140000Y-79197500I0J172500D01*
G01*
G37*
%TD*%
%TO.C,R6*%
G36*
G01*
X151275000Y-96345000D02*
X151275000Y-97655000D01*
G75*
G02*
X151005000Y-97925000I-270000J0D01*
G01*
X150195000Y-97925000D01*
G75*
G02*
X149925000Y-97655000I0J270000D01*
G01*
X149925000Y-96345000D01*
G75*
G02*
X150195000Y-96075000I270000J0D01*
G01*
X151005000Y-96075000D01*
G75*
G02*
X151275000Y-96345000I0J-270000D01*
G01*
G37*
G36*
G01*
X154075000Y-96345000D02*
X154075000Y-97655000D01*
G75*
G02*
X153805000Y-97925000I-270000J0D01*
G01*
X152995000Y-97925000D01*
G75*
G02*
X152725000Y-97655000I0J270000D01*
G01*
X152725000Y-96345000D01*
G75*
G02*
X152995000Y-96075000I270000J0D01*
G01*
X153805000Y-96075000D01*
G75*
G02*
X154075000Y-96345000I0J-270000D01*
G01*
G37*
%TD*%
%TO.C,R7*%
G36*
G01*
X154075000Y-90345000D02*
X154075000Y-91655000D01*
G75*
G02*
X153805000Y-91925000I-270000J0D01*
G01*
X152995000Y-91925000D01*
G75*
G02*
X152725000Y-91655000I0J270000D01*
G01*
X152725000Y-90345000D01*
G75*
G02*
X152995000Y-90075000I270000J0D01*
G01*
X153805000Y-90075000D01*
G75*
G02*
X154075000Y-90345000I0J-270000D01*
G01*
G37*
G36*
G01*
X151275000Y-90345000D02*
X151275000Y-91655000D01*
G75*
G02*
X151005000Y-91925000I-270000J0D01*
G01*
X150195000Y-91925000D01*
G75*
G02*
X149925000Y-91655000I0J270000D01*
G01*
X149925000Y-90345000D01*
G75*
G02*
X150195000Y-90075000I270000J0D01*
G01*
X151005000Y-90075000D01*
G75*
G02*
X151275000Y-90345000I0J-270000D01*
G01*
G37*
%TD*%
%TO.C,R8*%
G36*
G01*
X139860000Y-96802500D02*
X139860000Y-97197500D01*
G75*
G02*
X139687500Y-97370000I-172500J0D01*
G01*
X139342500Y-97370000D01*
G75*
G02*
X139170000Y-97197500I0J172500D01*
G01*
X139170000Y-96802500D01*
G75*
G02*
X139342500Y-96630000I172500J0D01*
G01*
X139687500Y-96630000D01*
G75*
G02*
X139860000Y-96802500I0J-172500D01*
G01*
G37*
G36*
G01*
X140830000Y-96802500D02*
X140830000Y-97197500D01*
G75*
G02*
X140657500Y-97370000I-172500J0D01*
G01*
X140312500Y-97370000D01*
G75*
G02*
X140140000Y-97197500I0J172500D01*
G01*
X140140000Y-96802500D01*
G75*
G02*
X140312500Y-96630000I172500J0D01*
G01*
X140657500Y-96630000D01*
G75*
G02*
X140830000Y-96802500I0J-172500D01*
G01*
G37*
%TD*%
%TO.C,R9*%
G36*
G01*
X139170000Y-91197500D02*
X139170000Y-90802500D01*
G75*
G02*
X139342500Y-90630000I172500J0D01*
G01*
X139687500Y-90630000D01*
G75*
G02*
X139860000Y-90802500I0J-172500D01*
G01*
X139860000Y-91197500D01*
G75*
G02*
X139687500Y-91370000I-172500J0D01*
G01*
X139342500Y-91370000D01*
G75*
G02*
X139170000Y-91197500I0J172500D01*
G01*
G37*
G36*
G01*
X140140000Y-91197500D02*
X140140000Y-90802500D01*
G75*
G02*
X140312500Y-90630000I172500J0D01*
G01*
X140657500Y-90630000D01*
G75*
G02*
X140830000Y-90802500I0J-172500D01*
G01*
X140830000Y-91197500D01*
G75*
G02*
X140657500Y-91370000I-172500J0D01*
G01*
X140312500Y-91370000D01*
G75*
G02*
X140140000Y-91197500I0J172500D01*
G01*
G37*
%TD*%
%TO.C,R11*%
G36*
G01*
X104302500Y-128640000D02*
X104697500Y-128640000D01*
G75*
G02*
X104870000Y-128812500I0J-172500D01*
G01*
X104870000Y-129157500D01*
G75*
G02*
X104697500Y-129330000I-172500J0D01*
G01*
X104302500Y-129330000D01*
G75*
G02*
X104130000Y-129157500I0J172500D01*
G01*
X104130000Y-128812500D01*
G75*
G02*
X104302500Y-128640000I172500J0D01*
G01*
G37*
G36*
G01*
X104302500Y-127670000D02*
X104697500Y-127670000D01*
G75*
G02*
X104870000Y-127842500I0J-172500D01*
G01*
X104870000Y-128187500D01*
G75*
G02*
X104697500Y-128360000I-172500J0D01*
G01*
X104302500Y-128360000D01*
G75*
G02*
X104130000Y-128187500I0J172500D01*
G01*
X104130000Y-127842500D01*
G75*
G02*
X104302500Y-127670000I172500J0D01*
G01*
G37*
%TD*%
%TO.C,R12*%
G36*
G01*
X106802500Y-127670000D02*
X107197500Y-127670000D01*
G75*
G02*
X107370000Y-127842500I0J-172500D01*
G01*
X107370000Y-128187500D01*
G75*
G02*
X107197500Y-128360000I-172500J0D01*
G01*
X106802500Y-128360000D01*
G75*
G02*
X106630000Y-128187500I0J172500D01*
G01*
X106630000Y-127842500D01*
G75*
G02*
X106802500Y-127670000I172500J0D01*
G01*
G37*
G36*
G01*
X106802500Y-128640000D02*
X107197500Y-128640000D01*
G75*
G02*
X107370000Y-128812500I0J-172500D01*
G01*
X107370000Y-129157500D01*
G75*
G02*
X107197500Y-129330000I-172500J0D01*
G01*
X106802500Y-129330000D01*
G75*
G02*
X106630000Y-129157500I0J172500D01*
G01*
X106630000Y-128812500D01*
G75*
G02*
X106802500Y-128640000I172500J0D01*
G01*
G37*
%TD*%
D23*
%TO.C,RV1*%
X145000000Y-72080000D03*
X142460000Y-69540000D03*
X145000000Y-67000000D03*
%TD*%
D24*
%TO.C,U3*%
X183800000Y-67720000D03*
X183800000Y-68860000D03*
X183800000Y-71140000D03*
X183800000Y-72280000D03*
D25*
X190100000Y-70000000D03*
%TD*%
%TO.C,U4*%
X190100000Y-59000000D03*
D24*
X183800000Y-61280000D03*
X183800000Y-60140000D03*
X183800000Y-57860000D03*
X183800000Y-56720000D03*
%TD*%
%TO.C,U5*%
G36*
G01*
X141475000Y-84892500D02*
X141475000Y-84567500D01*
G75*
G02*
X141637500Y-84405000I162500J0D01*
G01*
X142862500Y-84405000D01*
G75*
G02*
X143025000Y-84567500I0J-162500D01*
G01*
X143025000Y-84892500D01*
G75*
G02*
X142862500Y-85055000I-162500J0D01*
G01*
X141637500Y-85055000D01*
G75*
G02*
X141475000Y-84892500I0J162500D01*
G01*
G37*
G36*
G01*
X141475000Y-87432500D02*
X141475000Y-87107500D01*
G75*
G02*
X141637500Y-86945000I162500J0D01*
G01*
X142862500Y-86945000D01*
G75*
G02*
X143025000Y-87107500I0J-162500D01*
G01*
X143025000Y-87432500D01*
G75*
G02*
X142862500Y-87595000I-162500J0D01*
G01*
X141637500Y-87595000D01*
G75*
G02*
X141475000Y-87432500I0J162500D01*
G01*
G37*
G36*
G01*
X146975000Y-87432500D02*
X146975000Y-87107500D01*
G75*
G02*
X147137500Y-86945000I162500J0D01*
G01*
X148362500Y-86945000D01*
G75*
G02*
X148525000Y-87107500I0J-162500D01*
G01*
X148525000Y-87432500D01*
G75*
G02*
X148362500Y-87595000I-162500J0D01*
G01*
X147137500Y-87595000D01*
G75*
G02*
X146975000Y-87432500I0J162500D01*
G01*
G37*
G36*
G01*
X146975000Y-84892500D02*
X146975000Y-84567500D01*
G75*
G02*
X147137500Y-84405000I162500J0D01*
G01*
X148362500Y-84405000D01*
G75*
G02*
X148525000Y-84567500I0J-162500D01*
G01*
X148525000Y-84892500D01*
G75*
G02*
X148362500Y-85055000I-162500J0D01*
G01*
X147137500Y-85055000D01*
G75*
G02*
X146975000Y-84892500I0J162500D01*
G01*
G37*
%TD*%
%TO.C,U6*%
G36*
G01*
X146975000Y-78892500D02*
X146975000Y-78567500D01*
G75*
G02*
X147137500Y-78405000I162500J0D01*
G01*
X148362500Y-78405000D01*
G75*
G02*
X148525000Y-78567500I0J-162500D01*
G01*
X148525000Y-78892500D01*
G75*
G02*
X148362500Y-79055000I-162500J0D01*
G01*
X147137500Y-79055000D01*
G75*
G02*
X146975000Y-78892500I0J162500D01*
G01*
G37*
G36*
G01*
X146975000Y-81432500D02*
X146975000Y-81107500D01*
G75*
G02*
X147137500Y-80945000I162500J0D01*
G01*
X148362500Y-80945000D01*
G75*
G02*
X148525000Y-81107500I0J-162500D01*
G01*
X148525000Y-81432500D01*
G75*
G02*
X148362500Y-81595000I-162500J0D01*
G01*
X147137500Y-81595000D01*
G75*
G02*
X146975000Y-81432500I0J162500D01*
G01*
G37*
G36*
G01*
X141475000Y-81432500D02*
X141475000Y-81107500D01*
G75*
G02*
X141637500Y-80945000I162500J0D01*
G01*
X142862500Y-80945000D01*
G75*
G02*
X143025000Y-81107500I0J-162500D01*
G01*
X143025000Y-81432500D01*
G75*
G02*
X142862500Y-81595000I-162500J0D01*
G01*
X141637500Y-81595000D01*
G75*
G02*
X141475000Y-81432500I0J162500D01*
G01*
G37*
G36*
G01*
X141475000Y-78892500D02*
X141475000Y-78567500D01*
G75*
G02*
X141637500Y-78405000I162500J0D01*
G01*
X142862500Y-78405000D01*
G75*
G02*
X143025000Y-78567500I0J-162500D01*
G01*
X143025000Y-78892500D01*
G75*
G02*
X142862500Y-79055000I-162500J0D01*
G01*
X141637500Y-79055000D01*
G75*
G02*
X141475000Y-78892500I0J162500D01*
G01*
G37*
%TD*%
%TO.C,U7*%
X183700000Y-92720000D03*
X183700000Y-93860000D03*
X183700000Y-96140000D03*
X183700000Y-97280000D03*
D25*
X190000000Y-95000000D03*
%TD*%
%TO.C,U8*%
X190100000Y-84000000D03*
D24*
X183800000Y-86280000D03*
X183800000Y-85140000D03*
X183800000Y-82860000D03*
X183800000Y-81720000D03*
%TD*%
%TO.C,U9*%
G36*
G01*
X146975000Y-96892500D02*
X146975000Y-96567500D01*
G75*
G02*
X147137500Y-96405000I162500J0D01*
G01*
X148362500Y-96405000D01*
G75*
G02*
X148525000Y-96567500I0J-162500D01*
G01*
X148525000Y-96892500D01*
G75*
G02*
X148362500Y-97055000I-162500J0D01*
G01*
X147137500Y-97055000D01*
G75*
G02*
X146975000Y-96892500I0J162500D01*
G01*
G37*
G36*
G01*
X146975000Y-99432500D02*
X146975000Y-99107500D01*
G75*
G02*
X147137500Y-98945000I162500J0D01*
G01*
X148362500Y-98945000D01*
G75*
G02*
X148525000Y-99107500I0J-162500D01*
G01*
X148525000Y-99432500D01*
G75*
G02*
X148362500Y-99595000I-162500J0D01*
G01*
X147137500Y-99595000D01*
G75*
G02*
X146975000Y-99432500I0J162500D01*
G01*
G37*
G36*
G01*
X141475000Y-99432500D02*
X141475000Y-99107500D01*
G75*
G02*
X141637500Y-98945000I162500J0D01*
G01*
X142862500Y-98945000D01*
G75*
G02*
X143025000Y-99107500I0J-162500D01*
G01*
X143025000Y-99432500D01*
G75*
G02*
X142862500Y-99595000I-162500J0D01*
G01*
X141637500Y-99595000D01*
G75*
G02*
X141475000Y-99432500I0J162500D01*
G01*
G37*
G36*
G01*
X141475000Y-96892500D02*
X141475000Y-96567500D01*
G75*
G02*
X141637500Y-96405000I162500J0D01*
G01*
X142862500Y-96405000D01*
G75*
G02*
X143025000Y-96567500I0J-162500D01*
G01*
X143025000Y-96892500D01*
G75*
G02*
X142862500Y-97055000I-162500J0D01*
G01*
X141637500Y-97055000D01*
G75*
G02*
X141475000Y-96892500I0J162500D01*
G01*
G37*
%TD*%
%TO.C,U10*%
G36*
G01*
X141475000Y-90892500D02*
X141475000Y-90567500D01*
G75*
G02*
X141637500Y-90405000I162500J0D01*
G01*
X142862500Y-90405000D01*
G75*
G02*
X143025000Y-90567500I0J-162500D01*
G01*
X143025000Y-90892500D01*
G75*
G02*
X142862500Y-91055000I-162500J0D01*
G01*
X141637500Y-91055000D01*
G75*
G02*
X141475000Y-90892500I0J162500D01*
G01*
G37*
G36*
G01*
X141475000Y-93432500D02*
X141475000Y-93107500D01*
G75*
G02*
X141637500Y-92945000I162500J0D01*
G01*
X142862500Y-92945000D01*
G75*
G02*
X143025000Y-93107500I0J-162500D01*
G01*
X143025000Y-93432500D01*
G75*
G02*
X142862500Y-93595000I-162500J0D01*
G01*
X141637500Y-93595000D01*
G75*
G02*
X141475000Y-93432500I0J162500D01*
G01*
G37*
G36*
G01*
X146975000Y-93432500D02*
X146975000Y-93107500D01*
G75*
G02*
X147137500Y-92945000I162500J0D01*
G01*
X148362500Y-92945000D01*
G75*
G02*
X148525000Y-93107500I0J-162500D01*
G01*
X148525000Y-93432500D01*
G75*
G02*
X148362500Y-93595000I-162500J0D01*
G01*
X147137500Y-93595000D01*
G75*
G02*
X146975000Y-93432500I0J162500D01*
G01*
G37*
G36*
G01*
X146975000Y-90892500D02*
X146975000Y-90567500D01*
G75*
G02*
X147137500Y-90405000I162500J0D01*
G01*
X148362500Y-90405000D01*
G75*
G02*
X148525000Y-90567500I0J-162500D01*
G01*
X148525000Y-90892500D01*
G75*
G02*
X148362500Y-91055000I-162500J0D01*
G01*
X147137500Y-91055000D01*
G75*
G02*
X146975000Y-90892500I0J162500D01*
G01*
G37*
%TD*%
%TO.C,U11*%
G36*
G01*
X98050000Y-91350000D02*
X98050000Y-91150000D01*
G75*
G02*
X98150000Y-91050000I100000J0D01*
G01*
X99525000Y-91050000D01*
G75*
G02*
X99625000Y-91150000I0J-100000D01*
G01*
X99625000Y-91350000D01*
G75*
G02*
X99525000Y-91450000I-100000J0D01*
G01*
X98150000Y-91450000D01*
G75*
G02*
X98050000Y-91350000I0J100000D01*
G01*
G37*
G36*
G01*
X98050000Y-91850000D02*
X98050000Y-91650000D01*
G75*
G02*
X98150000Y-91550000I100000J0D01*
G01*
X99525000Y-91550000D01*
G75*
G02*
X99625000Y-91650000I0J-100000D01*
G01*
X99625000Y-91850000D01*
G75*
G02*
X99525000Y-91950000I-100000J0D01*
G01*
X98150000Y-91950000D01*
G75*
G02*
X98050000Y-91850000I0J100000D01*
G01*
G37*
G36*
G01*
X98050000Y-92350000D02*
X98050000Y-92150000D01*
G75*
G02*
X98150000Y-92050000I100000J0D01*
G01*
X99525000Y-92050000D01*
G75*
G02*
X99625000Y-92150000I0J-100000D01*
G01*
X99625000Y-92350000D01*
G75*
G02*
X99525000Y-92450000I-100000J0D01*
G01*
X98150000Y-92450000D01*
G75*
G02*
X98050000Y-92350000I0J100000D01*
G01*
G37*
G36*
G01*
X98050000Y-92850000D02*
X98050000Y-92650000D01*
G75*
G02*
X98150000Y-92550000I100000J0D01*
G01*
X99525000Y-92550000D01*
G75*
G02*
X99625000Y-92650000I0J-100000D01*
G01*
X99625000Y-92850000D01*
G75*
G02*
X99525000Y-92950000I-100000J0D01*
G01*
X98150000Y-92950000D01*
G75*
G02*
X98050000Y-92850000I0J100000D01*
G01*
G37*
G36*
G01*
X98050000Y-93350000D02*
X98050000Y-93150000D01*
G75*
G02*
X98150000Y-93050000I100000J0D01*
G01*
X99525000Y-93050000D01*
G75*
G02*
X99625000Y-93150000I0J-100000D01*
G01*
X99625000Y-93350000D01*
G75*
G02*
X99525000Y-93450000I-100000J0D01*
G01*
X98150000Y-93450000D01*
G75*
G02*
X98050000Y-93350000I0J100000D01*
G01*
G37*
G36*
G01*
X98050000Y-93850000D02*
X98050000Y-93650000D01*
G75*
G02*
X98150000Y-93550000I100000J0D01*
G01*
X99525000Y-93550000D01*
G75*
G02*
X99625000Y-93650000I0J-100000D01*
G01*
X99625000Y-93850000D01*
G75*
G02*
X99525000Y-93950000I-100000J0D01*
G01*
X98150000Y-93950000D01*
G75*
G02*
X98050000Y-93850000I0J100000D01*
G01*
G37*
G36*
G01*
X98050000Y-94350000D02*
X98050000Y-94150000D01*
G75*
G02*
X98150000Y-94050000I100000J0D01*
G01*
X99525000Y-94050000D01*
G75*
G02*
X99625000Y-94150000I0J-100000D01*
G01*
X99625000Y-94350000D01*
G75*
G02*
X99525000Y-94450000I-100000J0D01*
G01*
X98150000Y-94450000D01*
G75*
G02*
X98050000Y-94350000I0J100000D01*
G01*
G37*
G36*
G01*
X98050000Y-94850000D02*
X98050000Y-94650000D01*
G75*
G02*
X98150000Y-94550000I100000J0D01*
G01*
X99525000Y-94550000D01*
G75*
G02*
X99625000Y-94650000I0J-100000D01*
G01*
X99625000Y-94850000D01*
G75*
G02*
X99525000Y-94950000I-100000J0D01*
G01*
X98150000Y-94950000D01*
G75*
G02*
X98050000Y-94850000I0J100000D01*
G01*
G37*
G36*
G01*
X98050000Y-95350000D02*
X98050000Y-95150000D01*
G75*
G02*
X98150000Y-95050000I100000J0D01*
G01*
X99525000Y-95050000D01*
G75*
G02*
X99625000Y-95150000I0J-100000D01*
G01*
X99625000Y-95350000D01*
G75*
G02*
X99525000Y-95450000I-100000J0D01*
G01*
X98150000Y-95450000D01*
G75*
G02*
X98050000Y-95350000I0J100000D01*
G01*
G37*
G36*
G01*
X98050000Y-95850000D02*
X98050000Y-95650000D01*
G75*
G02*
X98150000Y-95550000I100000J0D01*
G01*
X99525000Y-95550000D01*
G75*
G02*
X99625000Y-95650000I0J-100000D01*
G01*
X99625000Y-95850000D01*
G75*
G02*
X99525000Y-95950000I-100000J0D01*
G01*
X98150000Y-95950000D01*
G75*
G02*
X98050000Y-95850000I0J100000D01*
G01*
G37*
G36*
G01*
X98050000Y-96350000D02*
X98050000Y-96150000D01*
G75*
G02*
X98150000Y-96050000I100000J0D01*
G01*
X99525000Y-96050000D01*
G75*
G02*
X99625000Y-96150000I0J-100000D01*
G01*
X99625000Y-96350000D01*
G75*
G02*
X99525000Y-96450000I-100000J0D01*
G01*
X98150000Y-96450000D01*
G75*
G02*
X98050000Y-96350000I0J100000D01*
G01*
G37*
G36*
G01*
X98050000Y-96850000D02*
X98050000Y-96650000D01*
G75*
G02*
X98150000Y-96550000I100000J0D01*
G01*
X99525000Y-96550000D01*
G75*
G02*
X99625000Y-96650000I0J-100000D01*
G01*
X99625000Y-96850000D01*
G75*
G02*
X99525000Y-96950000I-100000J0D01*
G01*
X98150000Y-96950000D01*
G75*
G02*
X98050000Y-96850000I0J100000D01*
G01*
G37*
G36*
G01*
X100050000Y-98850000D02*
X100050000Y-97475000D01*
G75*
G02*
X100150000Y-97375000I100000J0D01*
G01*
X100350000Y-97375000D01*
G75*
G02*
X100450000Y-97475000I0J-100000D01*
G01*
X100450000Y-98850000D01*
G75*
G02*
X100350000Y-98950000I-100000J0D01*
G01*
X100150000Y-98950000D01*
G75*
G02*
X100050000Y-98850000I0J100000D01*
G01*
G37*
G36*
G01*
X100550000Y-98850000D02*
X100550000Y-97475000D01*
G75*
G02*
X100650000Y-97375000I100000J0D01*
G01*
X100850000Y-97375000D01*
G75*
G02*
X100950000Y-97475000I0J-100000D01*
G01*
X100950000Y-98850000D01*
G75*
G02*
X100850000Y-98950000I-100000J0D01*
G01*
X100650000Y-98950000D01*
G75*
G02*
X100550000Y-98850000I0J100000D01*
G01*
G37*
G36*
G01*
X101050000Y-98850000D02*
X101050000Y-97475000D01*
G75*
G02*
X101150000Y-97375000I100000J0D01*
G01*
X101350000Y-97375000D01*
G75*
G02*
X101450000Y-97475000I0J-100000D01*
G01*
X101450000Y-98850000D01*
G75*
G02*
X101350000Y-98950000I-100000J0D01*
G01*
X101150000Y-98950000D01*
G75*
G02*
X101050000Y-98850000I0J100000D01*
G01*
G37*
G36*
G01*
X101550000Y-98850000D02*
X101550000Y-97475000D01*
G75*
G02*
X101650000Y-97375000I100000J0D01*
G01*
X101850000Y-97375000D01*
G75*
G02*
X101950000Y-97475000I0J-100000D01*
G01*
X101950000Y-98850000D01*
G75*
G02*
X101850000Y-98950000I-100000J0D01*
G01*
X101650000Y-98950000D01*
G75*
G02*
X101550000Y-98850000I0J100000D01*
G01*
G37*
G36*
G01*
X102050000Y-98850000D02*
X102050000Y-97475000D01*
G75*
G02*
X102150000Y-97375000I100000J0D01*
G01*
X102350000Y-97375000D01*
G75*
G02*
X102450000Y-97475000I0J-100000D01*
G01*
X102450000Y-98850000D01*
G75*
G02*
X102350000Y-98950000I-100000J0D01*
G01*
X102150000Y-98950000D01*
G75*
G02*
X102050000Y-98850000I0J100000D01*
G01*
G37*
G36*
G01*
X102550000Y-98850000D02*
X102550000Y-97475000D01*
G75*
G02*
X102650000Y-97375000I100000J0D01*
G01*
X102850000Y-97375000D01*
G75*
G02*
X102950000Y-97475000I0J-100000D01*
G01*
X102950000Y-98850000D01*
G75*
G02*
X102850000Y-98950000I-100000J0D01*
G01*
X102650000Y-98950000D01*
G75*
G02*
X102550000Y-98850000I0J100000D01*
G01*
G37*
G36*
G01*
X103050000Y-98850000D02*
X103050000Y-97475000D01*
G75*
G02*
X103150000Y-97375000I100000J0D01*
G01*
X103350000Y-97375000D01*
G75*
G02*
X103450000Y-97475000I0J-100000D01*
G01*
X103450000Y-98850000D01*
G75*
G02*
X103350000Y-98950000I-100000J0D01*
G01*
X103150000Y-98950000D01*
G75*
G02*
X103050000Y-98850000I0J100000D01*
G01*
G37*
G36*
G01*
X103550000Y-98850000D02*
X103550000Y-97475000D01*
G75*
G02*
X103650000Y-97375000I100000J0D01*
G01*
X103850000Y-97375000D01*
G75*
G02*
X103950000Y-97475000I0J-100000D01*
G01*
X103950000Y-98850000D01*
G75*
G02*
X103850000Y-98950000I-100000J0D01*
G01*
X103650000Y-98950000D01*
G75*
G02*
X103550000Y-98850000I0J100000D01*
G01*
G37*
G36*
G01*
X104050000Y-98850000D02*
X104050000Y-97475000D01*
G75*
G02*
X104150000Y-97375000I100000J0D01*
G01*
X104350000Y-97375000D01*
G75*
G02*
X104450000Y-97475000I0J-100000D01*
G01*
X104450000Y-98850000D01*
G75*
G02*
X104350000Y-98950000I-100000J0D01*
G01*
X104150000Y-98950000D01*
G75*
G02*
X104050000Y-98850000I0J100000D01*
G01*
G37*
G36*
G01*
X104550000Y-98850000D02*
X104550000Y-97475000D01*
G75*
G02*
X104650000Y-97375000I100000J0D01*
G01*
X104850000Y-97375000D01*
G75*
G02*
X104950000Y-97475000I0J-100000D01*
G01*
X104950000Y-98850000D01*
G75*
G02*
X104850000Y-98950000I-100000J0D01*
G01*
X104650000Y-98950000D01*
G75*
G02*
X104550000Y-98850000I0J100000D01*
G01*
G37*
G36*
G01*
X105050000Y-98850000D02*
X105050000Y-97475000D01*
G75*
G02*
X105150000Y-97375000I100000J0D01*
G01*
X105350000Y-97375000D01*
G75*
G02*
X105450000Y-97475000I0J-100000D01*
G01*
X105450000Y-98850000D01*
G75*
G02*
X105350000Y-98950000I-100000J0D01*
G01*
X105150000Y-98950000D01*
G75*
G02*
X105050000Y-98850000I0J100000D01*
G01*
G37*
G36*
G01*
X105550000Y-98850000D02*
X105550000Y-97475000D01*
G75*
G02*
X105650000Y-97375000I100000J0D01*
G01*
X105850000Y-97375000D01*
G75*
G02*
X105950000Y-97475000I0J-100000D01*
G01*
X105950000Y-98850000D01*
G75*
G02*
X105850000Y-98950000I-100000J0D01*
G01*
X105650000Y-98950000D01*
G75*
G02*
X105550000Y-98850000I0J100000D01*
G01*
G37*
G36*
G01*
X106375000Y-96850000D02*
X106375000Y-96650000D01*
G75*
G02*
X106475000Y-96550000I100000J0D01*
G01*
X107850000Y-96550000D01*
G75*
G02*
X107950000Y-96650000I0J-100000D01*
G01*
X107950000Y-96850000D01*
G75*
G02*
X107850000Y-96950000I-100000J0D01*
G01*
X106475000Y-96950000D01*
G75*
G02*
X106375000Y-96850000I0J100000D01*
G01*
G37*
G36*
G01*
X106375000Y-96350000D02*
X106375000Y-96150000D01*
G75*
G02*
X106475000Y-96050000I100000J0D01*
G01*
X107850000Y-96050000D01*
G75*
G02*
X107950000Y-96150000I0J-100000D01*
G01*
X107950000Y-96350000D01*
G75*
G02*
X107850000Y-96450000I-100000J0D01*
G01*
X106475000Y-96450000D01*
G75*
G02*
X106375000Y-96350000I0J100000D01*
G01*
G37*
G36*
G01*
X106375000Y-95850000D02*
X106375000Y-95650000D01*
G75*
G02*
X106475000Y-95550000I100000J0D01*
G01*
X107850000Y-95550000D01*
G75*
G02*
X107950000Y-95650000I0J-100000D01*
G01*
X107950000Y-95850000D01*
G75*
G02*
X107850000Y-95950000I-100000J0D01*
G01*
X106475000Y-95950000D01*
G75*
G02*
X106375000Y-95850000I0J100000D01*
G01*
G37*
G36*
G01*
X106375000Y-95350000D02*
X106375000Y-95150000D01*
G75*
G02*
X106475000Y-95050000I100000J0D01*
G01*
X107850000Y-95050000D01*
G75*
G02*
X107950000Y-95150000I0J-100000D01*
G01*
X107950000Y-95350000D01*
G75*
G02*
X107850000Y-95450000I-100000J0D01*
G01*
X106475000Y-95450000D01*
G75*
G02*
X106375000Y-95350000I0J100000D01*
G01*
G37*
G36*
G01*
X106375000Y-94850000D02*
X106375000Y-94650000D01*
G75*
G02*
X106475000Y-94550000I100000J0D01*
G01*
X107850000Y-94550000D01*
G75*
G02*
X107950000Y-94650000I0J-100000D01*
G01*
X107950000Y-94850000D01*
G75*
G02*
X107850000Y-94950000I-100000J0D01*
G01*
X106475000Y-94950000D01*
G75*
G02*
X106375000Y-94850000I0J100000D01*
G01*
G37*
G36*
G01*
X106375000Y-94350000D02*
X106375000Y-94150000D01*
G75*
G02*
X106475000Y-94050000I100000J0D01*
G01*
X107850000Y-94050000D01*
G75*
G02*
X107950000Y-94150000I0J-100000D01*
G01*
X107950000Y-94350000D01*
G75*
G02*
X107850000Y-94450000I-100000J0D01*
G01*
X106475000Y-94450000D01*
G75*
G02*
X106375000Y-94350000I0J100000D01*
G01*
G37*
G36*
G01*
X106375000Y-93850000D02*
X106375000Y-93650000D01*
G75*
G02*
X106475000Y-93550000I100000J0D01*
G01*
X107850000Y-93550000D01*
G75*
G02*
X107950000Y-93650000I0J-100000D01*
G01*
X107950000Y-93850000D01*
G75*
G02*
X107850000Y-93950000I-100000J0D01*
G01*
X106475000Y-93950000D01*
G75*
G02*
X106375000Y-93850000I0J100000D01*
G01*
G37*
G36*
G01*
X106375000Y-93350000D02*
X106375000Y-93150000D01*
G75*
G02*
X106475000Y-93050000I100000J0D01*
G01*
X107850000Y-93050000D01*
G75*
G02*
X107950000Y-93150000I0J-100000D01*
G01*
X107950000Y-93350000D01*
G75*
G02*
X107850000Y-93450000I-100000J0D01*
G01*
X106475000Y-93450000D01*
G75*
G02*
X106375000Y-93350000I0J100000D01*
G01*
G37*
G36*
G01*
X106375000Y-92850000D02*
X106375000Y-92650000D01*
G75*
G02*
X106475000Y-92550000I100000J0D01*
G01*
X107850000Y-92550000D01*
G75*
G02*
X107950000Y-92650000I0J-100000D01*
G01*
X107950000Y-92850000D01*
G75*
G02*
X107850000Y-92950000I-100000J0D01*
G01*
X106475000Y-92950000D01*
G75*
G02*
X106375000Y-92850000I0J100000D01*
G01*
G37*
G36*
G01*
X106375000Y-92350000D02*
X106375000Y-92150000D01*
G75*
G02*
X106475000Y-92050000I100000J0D01*
G01*
X107850000Y-92050000D01*
G75*
G02*
X107950000Y-92150000I0J-100000D01*
G01*
X107950000Y-92350000D01*
G75*
G02*
X107850000Y-92450000I-100000J0D01*
G01*
X106475000Y-92450000D01*
G75*
G02*
X106375000Y-92350000I0J100000D01*
G01*
G37*
G36*
G01*
X106375000Y-91850000D02*
X106375000Y-91650000D01*
G75*
G02*
X106475000Y-91550000I100000J0D01*
G01*
X107850000Y-91550000D01*
G75*
G02*
X107950000Y-91650000I0J-100000D01*
G01*
X107950000Y-91850000D01*
G75*
G02*
X107850000Y-91950000I-100000J0D01*
G01*
X106475000Y-91950000D01*
G75*
G02*
X106375000Y-91850000I0J100000D01*
G01*
G37*
G36*
G01*
X106375000Y-91350000D02*
X106375000Y-91150000D01*
G75*
G02*
X106475000Y-91050000I100000J0D01*
G01*
X107850000Y-91050000D01*
G75*
G02*
X107950000Y-91150000I0J-100000D01*
G01*
X107950000Y-91350000D01*
G75*
G02*
X107850000Y-91450000I-100000J0D01*
G01*
X106475000Y-91450000D01*
G75*
G02*
X106375000Y-91350000I0J100000D01*
G01*
G37*
G36*
G01*
X105550000Y-90525000D02*
X105550000Y-89150000D01*
G75*
G02*
X105650000Y-89050000I100000J0D01*
G01*
X105850000Y-89050000D01*
G75*
G02*
X105950000Y-89150000I0J-100000D01*
G01*
X105950000Y-90525000D01*
G75*
G02*
X105850000Y-90625000I-100000J0D01*
G01*
X105650000Y-90625000D01*
G75*
G02*
X105550000Y-90525000I0J100000D01*
G01*
G37*
G36*
G01*
X105050000Y-90525000D02*
X105050000Y-89150000D01*
G75*
G02*
X105150000Y-89050000I100000J0D01*
G01*
X105350000Y-89050000D01*
G75*
G02*
X105450000Y-89150000I0J-100000D01*
G01*
X105450000Y-90525000D01*
G75*
G02*
X105350000Y-90625000I-100000J0D01*
G01*
X105150000Y-90625000D01*
G75*
G02*
X105050000Y-90525000I0J100000D01*
G01*
G37*
G36*
G01*
X104550000Y-90525000D02*
X104550000Y-89150000D01*
G75*
G02*
X104650000Y-89050000I100000J0D01*
G01*
X104850000Y-89050000D01*
G75*
G02*
X104950000Y-89150000I0J-100000D01*
G01*
X104950000Y-90525000D01*
G75*
G02*
X104850000Y-90625000I-100000J0D01*
G01*
X104650000Y-90625000D01*
G75*
G02*
X104550000Y-90525000I0J100000D01*
G01*
G37*
G36*
G01*
X104050000Y-90525000D02*
X104050000Y-89150000D01*
G75*
G02*
X104150000Y-89050000I100000J0D01*
G01*
X104350000Y-89050000D01*
G75*
G02*
X104450000Y-89150000I0J-100000D01*
G01*
X104450000Y-90525000D01*
G75*
G02*
X104350000Y-90625000I-100000J0D01*
G01*
X104150000Y-90625000D01*
G75*
G02*
X104050000Y-90525000I0J100000D01*
G01*
G37*
G36*
G01*
X103550000Y-90525000D02*
X103550000Y-89150000D01*
G75*
G02*
X103650000Y-89050000I100000J0D01*
G01*
X103850000Y-89050000D01*
G75*
G02*
X103950000Y-89150000I0J-100000D01*
G01*
X103950000Y-90525000D01*
G75*
G02*
X103850000Y-90625000I-100000J0D01*
G01*
X103650000Y-90625000D01*
G75*
G02*
X103550000Y-90525000I0J100000D01*
G01*
G37*
G36*
G01*
X103050000Y-90525000D02*
X103050000Y-89150000D01*
G75*
G02*
X103150000Y-89050000I100000J0D01*
G01*
X103350000Y-89050000D01*
G75*
G02*
X103450000Y-89150000I0J-100000D01*
G01*
X103450000Y-90525000D01*
G75*
G02*
X103350000Y-90625000I-100000J0D01*
G01*
X103150000Y-90625000D01*
G75*
G02*
X103050000Y-90525000I0J100000D01*
G01*
G37*
G36*
G01*
X102550000Y-90525000D02*
X102550000Y-89150000D01*
G75*
G02*
X102650000Y-89050000I100000J0D01*
G01*
X102850000Y-89050000D01*
G75*
G02*
X102950000Y-89150000I0J-100000D01*
G01*
X102950000Y-90525000D01*
G75*
G02*
X102850000Y-90625000I-100000J0D01*
G01*
X102650000Y-90625000D01*
G75*
G02*
X102550000Y-90525000I0J100000D01*
G01*
G37*
G36*
G01*
X102050000Y-90525000D02*
X102050000Y-89150000D01*
G75*
G02*
X102150000Y-89050000I100000J0D01*
G01*
X102350000Y-89050000D01*
G75*
G02*
X102450000Y-89150000I0J-100000D01*
G01*
X102450000Y-90525000D01*
G75*
G02*
X102350000Y-90625000I-100000J0D01*
G01*
X102150000Y-90625000D01*
G75*
G02*
X102050000Y-90525000I0J100000D01*
G01*
G37*
G36*
G01*
X101550000Y-90525000D02*
X101550000Y-89150000D01*
G75*
G02*
X101650000Y-89050000I100000J0D01*
G01*
X101850000Y-89050000D01*
G75*
G02*
X101950000Y-89150000I0J-100000D01*
G01*
X101950000Y-90525000D01*
G75*
G02*
X101850000Y-90625000I-100000J0D01*
G01*
X101650000Y-90625000D01*
G75*
G02*
X101550000Y-90525000I0J100000D01*
G01*
G37*
G36*
G01*
X101050000Y-90525000D02*
X101050000Y-89150000D01*
G75*
G02*
X101150000Y-89050000I100000J0D01*
G01*
X101350000Y-89050000D01*
G75*
G02*
X101450000Y-89150000I0J-100000D01*
G01*
X101450000Y-90525000D01*
G75*
G02*
X101350000Y-90625000I-100000J0D01*
G01*
X101150000Y-90625000D01*
G75*
G02*
X101050000Y-90525000I0J100000D01*
G01*
G37*
G36*
G01*
X100550000Y-90525000D02*
X100550000Y-89150000D01*
G75*
G02*
X100650000Y-89050000I100000J0D01*
G01*
X100850000Y-89050000D01*
G75*
G02*
X100950000Y-89150000I0J-100000D01*
G01*
X100950000Y-90525000D01*
G75*
G02*
X100850000Y-90625000I-100000J0D01*
G01*
X100650000Y-90625000D01*
G75*
G02*
X100550000Y-90525000I0J100000D01*
G01*
G37*
G36*
G01*
X100050000Y-90525000D02*
X100050000Y-89150000D01*
G75*
G02*
X100150000Y-89050000I100000J0D01*
G01*
X100350000Y-89050000D01*
G75*
G02*
X100450000Y-89150000I0J-100000D01*
G01*
X100450000Y-90525000D01*
G75*
G02*
X100350000Y-90625000I-100000J0D01*
G01*
X100150000Y-90625000D01*
G75*
G02*
X100050000Y-90525000I0J100000D01*
G01*
G37*
%TD*%
D26*
%TO.C,Y1*%
X92150000Y-91900000D03*
X92150000Y-94100000D03*
X93850000Y-94100000D03*
X93850000Y-91900000D03*
%TD*%
D20*
%TO.C,J4*%
X147000000Y-61000000D03*
D21*
X144460000Y-61000000D03*
X141920000Y-61000000D03*
X139380000Y-61000000D03*
X136840000Y-61000000D03*
X134300000Y-61000000D03*
X131760000Y-61000000D03*
X129220000Y-61000000D03*
X126680000Y-61000000D03*
X124140000Y-61000000D03*
X121600000Y-61000000D03*
X119060000Y-61000000D03*
X116520000Y-61000000D03*
X113980000Y-61000000D03*
X111440000Y-61000000D03*
X108900000Y-61000000D03*
%TD*%
M02*
