%TF.GenerationSoftware,KiCad,Pcbnew,(5.1.5-131-g305ed0b65)-1*%
%TF.CreationDate,2021-01-25T18:11:24+08:00*%
%TF.ProjectId,OpenTEC,4f70656e-5445-4432-9e6b-696361645f70,rev?*%
%TF.SameCoordinates,Original*%
%TF.FileFunction,Soldermask,Bot*%
%TF.FilePolarity,Negative*%
%FSLAX46Y46*%
G04 Gerber Fmt 4.6, Leading zero omitted, Abs format (unit mm)*
G04 Created by KiCad (PCBNEW (5.1.5-131-g305ed0b65)-1) date 2021-01-25 18:11:24*
%MOMM*%
%LPD*%
G01*
G04 APERTURE LIST*
%ADD10C,6.500000*%
%ADD11C,0.900000*%
%ADD12O,1.150000X2.000000*%
%ADD13C,3.100000*%
%ADD14R,3.100000X3.100000*%
%ADD15R,1.800000X1.800000*%
%ADD16O,1.800000X1.800000*%
%ADD17O,1.800000X2.100000*%
%ADD18C,1.540000*%
G04 APERTURE END LIST*
D10*
%TO.C,H1*%
X79000000Y-51000000D03*
D11*
X81400000Y-51000000D03*
X80697056Y-52697056D03*
X79000000Y-53400000D03*
X77302944Y-52697056D03*
X76600000Y-51000000D03*
X77302944Y-49302944D03*
X79000000Y-48600000D03*
X80697056Y-49302944D03*
%TD*%
%TO.C,H2*%
X200697056Y-49302944D03*
X199000000Y-48600000D03*
X197302944Y-49302944D03*
X196600000Y-51000000D03*
X197302944Y-52697056D03*
X199000000Y-53400000D03*
X200697056Y-52697056D03*
X201400000Y-51000000D03*
D10*
X199000000Y-51000000D03*
%TD*%
%TO.C,H3*%
X199000000Y-131000000D03*
D11*
X201400000Y-131000000D03*
X200697056Y-132697056D03*
X199000000Y-133400000D03*
X197302944Y-132697056D03*
X196600000Y-131000000D03*
X197302944Y-129302944D03*
X199000000Y-128600000D03*
X200697056Y-129302944D03*
%TD*%
%TO.C,H4*%
X80697056Y-129302944D03*
X79000000Y-128600000D03*
X77302944Y-129302944D03*
X76600000Y-131000000D03*
X77302944Y-132697056D03*
X79000000Y-133400000D03*
X80697056Y-132697056D03*
X81400000Y-131000000D03*
D10*
X79000000Y-131000000D03*
%TD*%
D12*
%TO.C,J1*%
X98575000Y-47800000D03*
X91425000Y-47800000D03*
%TD*%
D13*
%TO.C,J2*%
X171920000Y-50000000D03*
X166840000Y-50000000D03*
D14*
X177000000Y-50000000D03*
D13*
X161760000Y-50000000D03*
%TD*%
D15*
%TO.C,J3*%
X104000000Y-71000000D03*
D16*
X106540000Y-71000000D03*
X104000000Y-73540000D03*
X106540000Y-73540000D03*
X104000000Y-76080000D03*
X106540000Y-76080000D03*
X104000000Y-78620000D03*
X106540000Y-78620000D03*
X104000000Y-81160000D03*
X106540000Y-81160000D03*
%TD*%
D15*
%TO.C,J5*%
X102000000Y-132000000D03*
D16*
X104540000Y-132000000D03*
X107080000Y-132000000D03*
X109620000Y-132000000D03*
%TD*%
D15*
%TO.C,J6*%
X89000000Y-85000000D03*
D16*
X91540000Y-85000000D03*
X94080000Y-85000000D03*
%TD*%
D15*
%TO.C,J7*%
X79000000Y-70000000D03*
D16*
X79000000Y-72540000D03*
X79000000Y-75080000D03*
%TD*%
%TO.C,J8*%
X79000000Y-86080000D03*
X79000000Y-83540000D03*
D15*
X79000000Y-81000000D03*
%TD*%
%TO.C,J9*%
X79000000Y-92000000D03*
D16*
X79000000Y-94540000D03*
X79000000Y-97080000D03*
%TD*%
%TO.C,J10*%
X79000000Y-108080000D03*
X79000000Y-105540000D03*
D15*
X79000000Y-103000000D03*
%TD*%
D13*
%TO.C,J11*%
X200000000Y-61920000D03*
D14*
X200000000Y-67000000D03*
%TD*%
%TO.C,J12*%
X200000000Y-92000000D03*
D13*
X200000000Y-86920000D03*
%TD*%
D17*
%TO.C,J13*%
X125500000Y-50000000D03*
G36*
G01*
X122100000Y-50785294D02*
X122100000Y-49214706D01*
G75*
G02*
X122364706Y-48950000I264706J0D01*
G01*
X123635294Y-48950000D01*
G75*
G02*
X123900000Y-49214706I0J-264706D01*
G01*
X123900000Y-50785294D01*
G75*
G02*
X123635294Y-51050000I-264706J0D01*
G01*
X122364706Y-51050000D01*
G75*
G02*
X122100000Y-50785294I0J264706D01*
G01*
G37*
%TD*%
%TO.C,J14*%
G36*
G01*
X135100000Y-50785294D02*
X135100000Y-49214706D01*
G75*
G02*
X135364706Y-48950000I264706J0D01*
G01*
X136635294Y-48950000D01*
G75*
G02*
X136900000Y-49214706I0J-264706D01*
G01*
X136900000Y-50785294D01*
G75*
G02*
X136635294Y-51050000I-264706J0D01*
G01*
X135364706Y-51050000D01*
G75*
G02*
X135100000Y-50785294I0J264706D01*
G01*
G37*
X138500000Y-50000000D03*
%TD*%
%TO.C,J15*%
G36*
G01*
X143100000Y-107785294D02*
X143100000Y-106214706D01*
G75*
G02*
X143364706Y-105950000I264706J0D01*
G01*
X144635294Y-105950000D01*
G75*
G02*
X144900000Y-106214706I0J-264706D01*
G01*
X144900000Y-107785294D01*
G75*
G02*
X144635294Y-108050000I-264706J0D01*
G01*
X143364706Y-108050000D01*
G75*
G02*
X143100000Y-107785294I0J264706D01*
G01*
G37*
X146500000Y-107000000D03*
%TD*%
%TO.C,J16*%
X158500000Y-107000000D03*
G36*
G01*
X155100000Y-107785294D02*
X155100000Y-106214706D01*
G75*
G02*
X155364706Y-105950000I264706J0D01*
G01*
X156635294Y-105950000D01*
G75*
G02*
X156900000Y-106214706I0J-264706D01*
G01*
X156900000Y-107785294D01*
G75*
G02*
X156635294Y-108050000I-264706J0D01*
G01*
X155364706Y-108050000D01*
G75*
G02*
X155100000Y-107785294I0J264706D01*
G01*
G37*
%TD*%
%TO.C,J17*%
G36*
G01*
X167100000Y-107785294D02*
X167100000Y-106214706D01*
G75*
G02*
X167364706Y-105950000I264706J0D01*
G01*
X168635294Y-105950000D01*
G75*
G02*
X168900000Y-106214706I0J-264706D01*
G01*
X168900000Y-107785294D01*
G75*
G02*
X168635294Y-108050000I-264706J0D01*
G01*
X167364706Y-108050000D01*
G75*
G02*
X167100000Y-107785294I0J264706D01*
G01*
G37*
X170500000Y-107000000D03*
%TD*%
%TO.C,J18*%
X182500000Y-107000000D03*
G36*
G01*
X179100000Y-107785294D02*
X179100000Y-106214706D01*
G75*
G02*
X179364706Y-105950000I264706J0D01*
G01*
X180635294Y-105950000D01*
G75*
G02*
X180900000Y-106214706I0J-264706D01*
G01*
X180900000Y-107785294D01*
G75*
G02*
X180635294Y-108050000I-264706J0D01*
G01*
X179364706Y-108050000D01*
G75*
G02*
X179100000Y-107785294I0J264706D01*
G01*
G37*
%TD*%
%TO.C,J19*%
G36*
G01*
X191100000Y-107785294D02*
X191100000Y-106214706D01*
G75*
G02*
X191364706Y-105950000I264706J0D01*
G01*
X192635294Y-105950000D01*
G75*
G02*
X192900000Y-106214706I0J-264706D01*
G01*
X192900000Y-107785294D01*
G75*
G02*
X192635294Y-108050000I-264706J0D01*
G01*
X191364706Y-108050000D01*
G75*
G02*
X191100000Y-107785294I0J264706D01*
G01*
G37*
X194500000Y-107000000D03*
%TD*%
%TO.C,J20*%
X146500000Y-118000000D03*
G36*
G01*
X143100000Y-118785294D02*
X143100000Y-117214706D01*
G75*
G02*
X143364706Y-116950000I264706J0D01*
G01*
X144635294Y-116950000D01*
G75*
G02*
X144900000Y-117214706I0J-264706D01*
G01*
X144900000Y-118785294D01*
G75*
G02*
X144635294Y-119050000I-264706J0D01*
G01*
X143364706Y-119050000D01*
G75*
G02*
X143100000Y-118785294I0J264706D01*
G01*
G37*
%TD*%
%TO.C,J21*%
G36*
G01*
X155100000Y-118785294D02*
X155100000Y-117214706D01*
G75*
G02*
X155364706Y-116950000I264706J0D01*
G01*
X156635294Y-116950000D01*
G75*
G02*
X156900000Y-117214706I0J-264706D01*
G01*
X156900000Y-118785294D01*
G75*
G02*
X156635294Y-119050000I-264706J0D01*
G01*
X155364706Y-119050000D01*
G75*
G02*
X155100000Y-118785294I0J264706D01*
G01*
G37*
X158500000Y-118000000D03*
%TD*%
%TO.C,J22*%
X170500000Y-118000000D03*
G36*
G01*
X167100000Y-118785294D02*
X167100000Y-117214706D01*
G75*
G02*
X167364706Y-116950000I264706J0D01*
G01*
X168635294Y-116950000D01*
G75*
G02*
X168900000Y-117214706I0J-264706D01*
G01*
X168900000Y-118785294D01*
G75*
G02*
X168635294Y-119050000I-264706J0D01*
G01*
X167364706Y-119050000D01*
G75*
G02*
X167100000Y-118785294I0J264706D01*
G01*
G37*
%TD*%
%TO.C,J23*%
G36*
G01*
X179100000Y-118785294D02*
X179100000Y-117214706D01*
G75*
G02*
X179364706Y-116950000I264706J0D01*
G01*
X180635294Y-116950000D01*
G75*
G02*
X180900000Y-117214706I0J-264706D01*
G01*
X180900000Y-118785294D01*
G75*
G02*
X180635294Y-119050000I-264706J0D01*
G01*
X179364706Y-119050000D01*
G75*
G02*
X179100000Y-118785294I0J264706D01*
G01*
G37*
X182500000Y-118000000D03*
%TD*%
%TO.C,J24*%
X194500000Y-118000000D03*
G36*
G01*
X191100000Y-118785294D02*
X191100000Y-117214706D01*
G75*
G02*
X191364706Y-116950000I264706J0D01*
G01*
X192635294Y-116950000D01*
G75*
G02*
X192900000Y-117214706I0J-264706D01*
G01*
X192900000Y-118785294D01*
G75*
G02*
X192635294Y-119050000I-264706J0D01*
G01*
X191364706Y-119050000D01*
G75*
G02*
X191100000Y-118785294I0J264706D01*
G01*
G37*
%TD*%
%TO.C,J25*%
G36*
G01*
X143100000Y-129785294D02*
X143100000Y-128214706D01*
G75*
G02*
X143364706Y-127950000I264706J0D01*
G01*
X144635294Y-127950000D01*
G75*
G02*
X144900000Y-128214706I0J-264706D01*
G01*
X144900000Y-129785294D01*
G75*
G02*
X144635294Y-130050000I-264706J0D01*
G01*
X143364706Y-130050000D01*
G75*
G02*
X143100000Y-129785294I0J264706D01*
G01*
G37*
X146500000Y-129000000D03*
%TD*%
%TO.C,J26*%
X158500000Y-129000000D03*
G36*
G01*
X155100000Y-129785294D02*
X155100000Y-128214706D01*
G75*
G02*
X155364706Y-127950000I264706J0D01*
G01*
X156635294Y-127950000D01*
G75*
G02*
X156900000Y-128214706I0J-264706D01*
G01*
X156900000Y-129785294D01*
G75*
G02*
X156635294Y-130050000I-264706J0D01*
G01*
X155364706Y-130050000D01*
G75*
G02*
X155100000Y-129785294I0J264706D01*
G01*
G37*
%TD*%
%TO.C,J27*%
G36*
G01*
X167100000Y-129785294D02*
X167100000Y-128214706D01*
G75*
G02*
X167364706Y-127950000I264706J0D01*
G01*
X168635294Y-127950000D01*
G75*
G02*
X168900000Y-128214706I0J-264706D01*
G01*
X168900000Y-129785294D01*
G75*
G02*
X168635294Y-130050000I-264706J0D01*
G01*
X167364706Y-130050000D01*
G75*
G02*
X167100000Y-129785294I0J264706D01*
G01*
G37*
X170500000Y-129000000D03*
%TD*%
%TO.C,J28*%
X182500000Y-129000000D03*
G36*
G01*
X179100000Y-129785294D02*
X179100000Y-128214706D01*
G75*
G02*
X179364706Y-127950000I264706J0D01*
G01*
X180635294Y-127950000D01*
G75*
G02*
X180900000Y-128214706I0J-264706D01*
G01*
X180900000Y-129785294D01*
G75*
G02*
X180635294Y-130050000I-264706J0D01*
G01*
X179364706Y-130050000D01*
G75*
G02*
X179100000Y-129785294I0J264706D01*
G01*
G37*
%TD*%
D18*
%TO.C,RV1*%
X145000000Y-72080000D03*
X142460000Y-69540000D03*
X145000000Y-67000000D03*
%TD*%
D15*
%TO.C,J4*%
X147000000Y-61000000D03*
D16*
X144460000Y-61000000D03*
X141920000Y-61000000D03*
X139380000Y-61000000D03*
X136840000Y-61000000D03*
X134300000Y-61000000D03*
X131760000Y-61000000D03*
X129220000Y-61000000D03*
X126680000Y-61000000D03*
X124140000Y-61000000D03*
X121600000Y-61000000D03*
X119060000Y-61000000D03*
X116520000Y-61000000D03*
X113980000Y-61000000D03*
X111440000Y-61000000D03*
X108900000Y-61000000D03*
%TD*%
M02*
