%TF.GenerationSoftware,KiCad,Pcbnew,(5.1.5-131-g305ed0b65)-1*%
%TF.CreationDate,2021-01-25T18:11:24+08:00*%
%TF.ProjectId,OpenTEC,4f70656e-5445-4432-9e6b-696361645f70,rev?*%
%TF.SameCoordinates,Original*%
%TF.FileFunction,Legend,Bot*%
%TF.FilePolarity,Positive*%
%FSLAX46Y46*%
G04 Gerber Fmt 4.6, Leading zero omitted, Abs format (unit mm)*
G04 Created by KiCad (PCBNEW (5.1.5-131-g305ed0b65)-1) date 2021-01-25 18:11:24*
%MOMM*%
%LPD*%
G01*
G04 APERTURE LIST*
%ADD10C,0.150000*%
%ADD11C,0.300000*%
%ADD12C,0.120000*%
G04 APERTURE END LIST*
D10*
X108250000Y-56988095D02*
X108202380Y-56892857D01*
X108202380Y-56750000D01*
X108250000Y-56607142D01*
X108345238Y-56511904D01*
X108440476Y-56464285D01*
X108630952Y-56416666D01*
X108773809Y-56416666D01*
X108964285Y-56464285D01*
X109059523Y-56511904D01*
X109154761Y-56607142D01*
X109202380Y-56750000D01*
X109202380Y-56845238D01*
X109154761Y-56988095D01*
X109107142Y-57035714D01*
X108773809Y-57035714D01*
X108773809Y-56845238D01*
X109202380Y-57464285D02*
X108202380Y-57464285D01*
X109202380Y-58035714D01*
X108202380Y-58035714D01*
X109202380Y-58511904D02*
X108202380Y-58511904D01*
X108202380Y-58750000D01*
X108250000Y-58892857D01*
X108345238Y-58988095D01*
X108440476Y-59035714D01*
X108630952Y-59083333D01*
X108773809Y-59083333D01*
X108964285Y-59035714D01*
X109059523Y-58988095D01*
X109154761Y-58892857D01*
X109202380Y-58750000D01*
X109202380Y-58511904D01*
X110952380Y-56023809D02*
X110952380Y-56642857D01*
X111333333Y-56309523D01*
X111333333Y-56452380D01*
X111380952Y-56547619D01*
X111428571Y-56595238D01*
X111523809Y-56642857D01*
X111761904Y-56642857D01*
X111857142Y-56595238D01*
X111904761Y-56547619D01*
X111952380Y-56452380D01*
X111952380Y-56166666D01*
X111904761Y-56071428D01*
X111857142Y-56023809D01*
X111857142Y-57071428D02*
X111904761Y-57119047D01*
X111952380Y-57071428D01*
X111904761Y-57023809D01*
X111857142Y-57071428D01*
X111952380Y-57071428D01*
X110952380Y-57452380D02*
X110952380Y-58071428D01*
X111333333Y-57738095D01*
X111333333Y-57880952D01*
X111380952Y-57976190D01*
X111428571Y-58023809D01*
X111523809Y-58071428D01*
X111761904Y-58071428D01*
X111857142Y-58023809D01*
X111904761Y-57976190D01*
X111952380Y-57880952D01*
X111952380Y-57595238D01*
X111904761Y-57500000D01*
X111857142Y-57452380D01*
X110952380Y-58357142D02*
X111952380Y-58690476D01*
X110952380Y-59023809D01*
X114452380Y-57511904D02*
X113452380Y-57511904D01*
X113452380Y-57750000D01*
X113500000Y-57892857D01*
X113595238Y-57988095D01*
X113690476Y-58035714D01*
X113880952Y-58083333D01*
X114023809Y-58083333D01*
X114214285Y-58035714D01*
X114309523Y-57988095D01*
X114404761Y-57892857D01*
X114452380Y-57750000D01*
X114452380Y-57511904D01*
X113452380Y-58416666D02*
X113452380Y-59083333D01*
X114452380Y-58654761D01*
X116952380Y-57511904D02*
X115952380Y-57511904D01*
X115952380Y-57750000D01*
X116000000Y-57892857D01*
X116095238Y-57988095D01*
X116190476Y-58035714D01*
X116380952Y-58083333D01*
X116523809Y-58083333D01*
X116714285Y-58035714D01*
X116809523Y-57988095D01*
X116904761Y-57892857D01*
X116952380Y-57750000D01*
X116952380Y-57511904D01*
X115952380Y-58940476D02*
X115952380Y-58750000D01*
X116000000Y-58654761D01*
X116047619Y-58607142D01*
X116190476Y-58511904D01*
X116380952Y-58464285D01*
X116761904Y-58464285D01*
X116857142Y-58511904D01*
X116904761Y-58559523D01*
X116952380Y-58654761D01*
X116952380Y-58845238D01*
X116904761Y-58940476D01*
X116857142Y-58988095D01*
X116761904Y-59035714D01*
X116523809Y-59035714D01*
X116428571Y-58988095D01*
X116380952Y-58940476D01*
X116333333Y-58845238D01*
X116333333Y-58654761D01*
X116380952Y-58559523D01*
X116428571Y-58511904D01*
X116523809Y-58464285D01*
X119452380Y-57511904D02*
X118452380Y-57511904D01*
X118452380Y-57750000D01*
X118500000Y-57892857D01*
X118595238Y-57988095D01*
X118690476Y-58035714D01*
X118880952Y-58083333D01*
X119023809Y-58083333D01*
X119214285Y-58035714D01*
X119309523Y-57988095D01*
X119404761Y-57892857D01*
X119452380Y-57750000D01*
X119452380Y-57511904D01*
X118452380Y-58988095D02*
X118452380Y-58511904D01*
X118928571Y-58464285D01*
X118880952Y-58511904D01*
X118833333Y-58607142D01*
X118833333Y-58845238D01*
X118880952Y-58940476D01*
X118928571Y-58988095D01*
X119023809Y-59035714D01*
X119261904Y-59035714D01*
X119357142Y-58988095D01*
X119404761Y-58940476D01*
X119452380Y-58845238D01*
X119452380Y-58607142D01*
X119404761Y-58511904D01*
X119357142Y-58464285D01*
X121952380Y-57511904D02*
X120952380Y-57511904D01*
X120952380Y-57750000D01*
X121000000Y-57892857D01*
X121095238Y-57988095D01*
X121190476Y-58035714D01*
X121380952Y-58083333D01*
X121523809Y-58083333D01*
X121714285Y-58035714D01*
X121809523Y-57988095D01*
X121904761Y-57892857D01*
X121952380Y-57750000D01*
X121952380Y-57511904D01*
X121285714Y-58940476D02*
X121952380Y-58940476D01*
X120904761Y-58702380D02*
X121619047Y-58464285D01*
X121619047Y-59083333D01*
X124702380Y-57511904D02*
X123702380Y-57511904D01*
X123702380Y-57750000D01*
X123750000Y-57892857D01*
X123845238Y-57988095D01*
X123940476Y-58035714D01*
X124130952Y-58083333D01*
X124273809Y-58083333D01*
X124464285Y-58035714D01*
X124559523Y-57988095D01*
X124654761Y-57892857D01*
X124702380Y-57750000D01*
X124702380Y-57511904D01*
X123702380Y-58416666D02*
X123702380Y-59035714D01*
X124083333Y-58702380D01*
X124083333Y-58845238D01*
X124130952Y-58940476D01*
X124178571Y-58988095D01*
X124273809Y-59035714D01*
X124511904Y-59035714D01*
X124607142Y-58988095D01*
X124654761Y-58940476D01*
X124702380Y-58845238D01*
X124702380Y-58559523D01*
X124654761Y-58464285D01*
X124607142Y-58416666D01*
X127202380Y-57511904D02*
X126202380Y-57511904D01*
X126202380Y-57750000D01*
X126250000Y-57892857D01*
X126345238Y-57988095D01*
X126440476Y-58035714D01*
X126630952Y-58083333D01*
X126773809Y-58083333D01*
X126964285Y-58035714D01*
X127059523Y-57988095D01*
X127154761Y-57892857D01*
X127202380Y-57750000D01*
X127202380Y-57511904D01*
X126297619Y-58464285D02*
X126250000Y-58511904D01*
X126202380Y-58607142D01*
X126202380Y-58845238D01*
X126250000Y-58940476D01*
X126297619Y-58988095D01*
X126392857Y-59035714D01*
X126488095Y-59035714D01*
X126630952Y-58988095D01*
X127202380Y-58416666D01*
X127202380Y-59035714D01*
X129702380Y-57511904D02*
X128702380Y-57511904D01*
X128702380Y-57750000D01*
X128750000Y-57892857D01*
X128845238Y-57988095D01*
X128940476Y-58035714D01*
X129130952Y-58083333D01*
X129273809Y-58083333D01*
X129464285Y-58035714D01*
X129559523Y-57988095D01*
X129654761Y-57892857D01*
X129702380Y-57750000D01*
X129702380Y-57511904D01*
X129702380Y-59035714D02*
X129702380Y-58464285D01*
X129702380Y-58750000D02*
X128702380Y-58750000D01*
X128845238Y-58654761D01*
X128940476Y-58559523D01*
X128988095Y-58464285D01*
X132202380Y-57511904D02*
X131202380Y-57511904D01*
X131202380Y-57750000D01*
X131250000Y-57892857D01*
X131345238Y-57988095D01*
X131440476Y-58035714D01*
X131630952Y-58083333D01*
X131773809Y-58083333D01*
X131964285Y-58035714D01*
X132059523Y-57988095D01*
X132154761Y-57892857D01*
X132202380Y-57750000D01*
X132202380Y-57511904D01*
X131202380Y-58702380D02*
X131202380Y-58797619D01*
X131250000Y-58892857D01*
X131297619Y-58940476D01*
X131392857Y-58988095D01*
X131583333Y-59035714D01*
X131821428Y-59035714D01*
X132011904Y-58988095D01*
X132107142Y-58940476D01*
X132154761Y-58892857D01*
X132202380Y-58797619D01*
X132202380Y-58702380D01*
X132154761Y-58607142D01*
X132107142Y-58559523D01*
X132011904Y-58511904D01*
X131821428Y-58464285D01*
X131583333Y-58464285D01*
X131392857Y-58511904D01*
X131297619Y-58559523D01*
X131250000Y-58607142D01*
X131202380Y-58702380D01*
X134178571Y-57511904D02*
X134178571Y-57845238D01*
X134702380Y-57988095D02*
X134702380Y-57511904D01*
X133702380Y-57511904D01*
X133702380Y-57988095D01*
X134702380Y-58416666D02*
X133702380Y-58416666D01*
X134702380Y-58988095D01*
X133702380Y-58988095D01*
X136250000Y-56988095D02*
X136202380Y-56892857D01*
X136202380Y-56750000D01*
X136250000Y-56607142D01*
X136345238Y-56511904D01*
X136440476Y-56464285D01*
X136630952Y-56416666D01*
X136773809Y-56416666D01*
X136964285Y-56464285D01*
X137059523Y-56511904D01*
X137154761Y-56607142D01*
X137202380Y-56750000D01*
X137202380Y-56845238D01*
X137154761Y-56988095D01*
X137107142Y-57035714D01*
X136773809Y-57035714D01*
X136773809Y-56845238D01*
X137202380Y-57464285D02*
X136202380Y-57464285D01*
X137202380Y-58035714D01*
X136202380Y-58035714D01*
X137202380Y-58511904D02*
X136202380Y-58511904D01*
X136202380Y-58750000D01*
X136250000Y-58892857D01*
X136345238Y-58988095D01*
X136440476Y-59035714D01*
X136630952Y-59083333D01*
X136773809Y-59083333D01*
X136964285Y-59035714D01*
X137059523Y-58988095D01*
X137154761Y-58892857D01*
X137202380Y-58750000D01*
X137202380Y-58511904D01*
X139952380Y-58083333D02*
X139476190Y-57750000D01*
X139952380Y-57511904D02*
X138952380Y-57511904D01*
X138952380Y-57892857D01*
X139000000Y-57988095D01*
X139047619Y-58035714D01*
X139142857Y-58083333D01*
X139285714Y-58083333D01*
X139380952Y-58035714D01*
X139428571Y-57988095D01*
X139476190Y-57892857D01*
X139476190Y-57511904D01*
X139904761Y-58464285D02*
X139952380Y-58607142D01*
X139952380Y-58845238D01*
X139904761Y-58940476D01*
X139857142Y-58988095D01*
X139761904Y-59035714D01*
X139666666Y-59035714D01*
X139571428Y-58988095D01*
X139523809Y-58940476D01*
X139476190Y-58845238D01*
X139428571Y-58654761D01*
X139380952Y-58559523D01*
X139333333Y-58511904D01*
X139238095Y-58464285D01*
X139142857Y-58464285D01*
X139047619Y-58511904D01*
X139000000Y-58559523D01*
X138952380Y-58654761D01*
X138952380Y-58892857D01*
X139000000Y-59035714D01*
X141452380Y-57440476D02*
X142452380Y-57773809D01*
X141452380Y-58107142D01*
X141452380Y-58630952D02*
X141452380Y-58726190D01*
X141500000Y-58821428D01*
X141547619Y-58869047D01*
X141642857Y-58916666D01*
X141833333Y-58964285D01*
X142071428Y-58964285D01*
X142261904Y-58916666D01*
X142357142Y-58869047D01*
X142404761Y-58821428D01*
X142452380Y-58726190D01*
X142452380Y-58630952D01*
X142404761Y-58535714D01*
X142357142Y-58488095D01*
X142261904Y-58440476D01*
X142071428Y-58392857D01*
X141833333Y-58392857D01*
X141642857Y-58440476D01*
X141547619Y-58488095D01*
X141500000Y-58535714D01*
X141452380Y-58630952D01*
X143952380Y-56023809D02*
X143952380Y-56642857D01*
X144333333Y-56309523D01*
X144333333Y-56452380D01*
X144380952Y-56547619D01*
X144428571Y-56595238D01*
X144523809Y-56642857D01*
X144761904Y-56642857D01*
X144857142Y-56595238D01*
X144904761Y-56547619D01*
X144952380Y-56452380D01*
X144952380Y-56166666D01*
X144904761Y-56071428D01*
X144857142Y-56023809D01*
X144857142Y-57071428D02*
X144904761Y-57119047D01*
X144952380Y-57071428D01*
X144904761Y-57023809D01*
X144857142Y-57071428D01*
X144952380Y-57071428D01*
X143952380Y-57452380D02*
X143952380Y-58071428D01*
X144333333Y-57738095D01*
X144333333Y-57880952D01*
X144380952Y-57976190D01*
X144428571Y-58023809D01*
X144523809Y-58071428D01*
X144761904Y-58071428D01*
X144857142Y-58023809D01*
X144904761Y-57976190D01*
X144952380Y-57880952D01*
X144952380Y-57595238D01*
X144904761Y-57500000D01*
X144857142Y-57452380D01*
X143952380Y-58357142D02*
X144952380Y-58690476D01*
X143952380Y-59023809D01*
X146500000Y-56988095D02*
X146452380Y-56892857D01*
X146452380Y-56750000D01*
X146500000Y-56607142D01*
X146595238Y-56511904D01*
X146690476Y-56464285D01*
X146880952Y-56416666D01*
X147023809Y-56416666D01*
X147214285Y-56464285D01*
X147309523Y-56511904D01*
X147404761Y-56607142D01*
X147452380Y-56750000D01*
X147452380Y-56845238D01*
X147404761Y-56988095D01*
X147357142Y-57035714D01*
X147023809Y-57035714D01*
X147023809Y-56845238D01*
X147452380Y-57464285D02*
X146452380Y-57464285D01*
X147452380Y-58035714D01*
X146452380Y-58035714D01*
X147452380Y-58511904D02*
X146452380Y-58511904D01*
X146452380Y-58750000D01*
X146500000Y-58892857D01*
X146595238Y-58988095D01*
X146690476Y-59035714D01*
X146880952Y-59083333D01*
X147023809Y-59083333D01*
X147214285Y-59035714D01*
X147309523Y-58988095D01*
X147404761Y-58892857D01*
X147452380Y-58750000D01*
X147452380Y-58511904D01*
D11*
X129035714Y-64428571D02*
X129750000Y-64428571D01*
X129750000Y-62928571D01*
X127678571Y-64285714D02*
X127750000Y-64357142D01*
X127964285Y-64428571D01*
X128107142Y-64428571D01*
X128321428Y-64357142D01*
X128464285Y-64214285D01*
X128535714Y-64071428D01*
X128607142Y-63785714D01*
X128607142Y-63571428D01*
X128535714Y-63285714D01*
X128464285Y-63142857D01*
X128321428Y-63000000D01*
X128107142Y-62928571D01*
X127964285Y-62928571D01*
X127750000Y-63000000D01*
X127678571Y-63071428D01*
X127035714Y-64428571D02*
X127035714Y-62928571D01*
X126678571Y-62928571D01*
X126464285Y-63000000D01*
X126321428Y-63142857D01*
X126250000Y-63285714D01*
X126178571Y-63571428D01*
X126178571Y-63785714D01*
X126250000Y-64071428D01*
X126321428Y-64214285D01*
X126464285Y-64357142D01*
X126678571Y-64428571D01*
X127035714Y-64428571D01*
D12*
%TO.C,J4*%
X148330000Y-61000000D02*
X148330000Y-59670000D01*
X148330000Y-59670000D02*
X147000000Y-59670000D01*
X145730000Y-59670000D02*
X107570000Y-59670000D01*
X107570000Y-62330000D02*
X107570000Y-59670000D01*
X145730000Y-62330000D02*
X107570000Y-62330000D01*
X145730000Y-62330000D02*
X145730000Y-59670000D01*
D10*
X150317619Y-61333333D02*
X149603333Y-61333333D01*
X149460476Y-61380952D01*
X149365238Y-61476190D01*
X149317619Y-61619047D01*
X149317619Y-61714285D01*
X149984285Y-60428571D02*
X149317619Y-60428571D01*
X150365238Y-60666666D02*
X149650952Y-60904761D01*
X149650952Y-60285714D01*
%TD*%
M02*
